<?xml version="1.0" encoding="UTF-8"?>
<!DOCTYPE svg PUBLIC "-//W3C//DTD SVG 1.1//EN" "http://www.w3.org/Graphics/SVG/1.1/DTD/svg11.dtd">
<!-- Creator: CorelDRAW -->
<svg xmlns="http://www.w3.org/2000/svg" xml:space="preserve" width="210mm" height="297mm" version="1.1" style="shape-rendering:geometricPrecision; text-rendering:geometricPrecision; image-rendering:optimizeQuality; fill-rule:evenodd; clip-rule:evenodd"
viewBox="0 0 21000 29700"
 xmlns:xlink="http://www.w3.org/1999/xlink"
 xmlns:xodm="http://www.corel.com/coreldraw/odm/2003">
 <defs>
  <style type="text/css">
   <![CDATA[
    .str0 {stroke:#9D9E9E;stroke-width:20;stroke-miterlimit:22.9256}
    .fil0 {fill:#00A0E3}
    .fil5 {fill:#2B2A29;fill-rule:nonzero}
    .fil1 {fill:url(#id0)}
    .fil3 {fill:url(#id1);fill-rule:nonzero}
    .fil4 {fill:url(#id2);fill-rule:nonzero}
    .fil2 {fill:url(#id3);fill-rule:nonzero}
   ]]>
  </style>
  <linearGradient id="id0" gradientUnits="userSpaceOnUse" x1="7430.62" y1="1709.54" x2="7361.92" y2="4516.59">
   <stop offset="0" style="stop-opacity:1; stop-color:#898989"/>
   <stop offset="0.121569" style="stop-opacity:1; stop-color:#434242"/>
   <stop offset="0.290196" style="stop-opacity:1; stop-color:#898989"/>
   <stop offset="0.490196" style="stop-opacity:1; stop-color:#D9DADA"/>
   <stop offset="0.788235" style="stop-opacity:1; stop-color:#D9DADA"/>
   <stop offset="0.890196" style="stop-opacity:1; stop-color:#EBECEC"/>
   <stop offset="1" style="stop-opacity:1; stop-color:#2B2A29"/>
  </linearGradient>
  <linearGradient id="id1" gradientUnits="userSpaceOnUse" x1="7179.82" y1="2912.13" x2="7179.82" y2="5050.61">
   <stop offset="0" style="stop-opacity:1; stop-color:#9D9E9E"/>
   <stop offset="1" style="stop-opacity:1; stop-color:#FEFEFE"/>
  </linearGradient>
  <linearGradient id="id2" gradientUnits="userSpaceOnUse" x1="6738.47" y1="3258.06" x2="6752.68" y2="2005.72">
   <stop offset="0" style="stop-opacity:1; stop-color:#D9DADA"/>
   <stop offset="1" style="stop-opacity:1; stop-color:#FEFEFE"/>
  </linearGradient>
  <linearGradient id="id3" gradientUnits="objectBoundingBox" x1="44.9946%" y1="0%" x2="49.6243%" y2="97.1359%">
   <stop offset="0" style="stop-opacity:1; stop-color:#C5C6C6"/>
   <stop offset="0.121569" style="stop-opacity:1; stop-color:#EBECEC"/>
   <stop offset="0.290196" style="stop-opacity:1; stop-color:#B2B3B3"/>
   <stop offset="0.490196" style="stop-opacity:1; stop-color:#D9DADA"/>
   <stop offset="0.858824" style="stop-opacity:1; stop-color:#FEFEFE"/>
   <stop offset="0.890196" style="stop-opacity:1; stop-color:#EBECEC"/>
   <stop offset="1" style="stop-opacity:1; stop-color:#C5C6C6"/>
  </linearGradient>
 </defs>
 <g id="Слой_x0020_1">
  <metadata id="CorelCorpID_0Corel-Layer"/>
  <polygon class="fil0" points="1930.54,4752.51 11477.75,4752.35 10651.32,3233.98 10859.47,3233.35 11787.98,4939.6 1930.54,4939.6 "/>
  <path class="fil1 str0" d="M7351.36 2861.89l-212.57 558.43 201.16 0 200.04 524.94 -600.51 0 -191.25 510.48 -867.8 0 -763.97 -1363.62 338.84 0c75.29,0 250.2,-6.41 300.63,-76.12 24.06,-32.93 28.8,-85.5 28.8,-124.82 0,-69.82 -16.46,-133.33 -82.89,-165.73 -62.4,-30.37 -178.4,-33.72 -246.54,-33.72l-552.83 0 -450.71 -0.17 -953.94 -0.19c-195.48,-0.04 -329.1,75.89 -389.5,266.11l-0.13 0.38c-38.37,118.47 -46.64,248.83 -46.64,372.58 0,114.78 8.91,245.55 47.3,354.59l0.11 0.35c62.78,181.32 206.19,241.43 390.09,241.43l437.01 0 0 -365.52 -604.11 0 0 -520.47 1190.32 0 -0.05 1414.92 -1023.17 0c-160.16,0 -347.96,-12.11 -498.65,-70.52 -82.15,-31.95 -157.98,-78.33 -226.93,-132.98l-0.31 -0.24c-274.6,-220.18 -354.59,-563.75 -354.59,-901.14 0,-295.26 48.06,-628.7 244.06,-862.54 207.93,-248.08 526.06,-320.04 836.42,-320.04l2064.32 0c271.33,0 582.64,57.02 729.43,312.7 69.81,121.05 91.09,266.35 91.09,404.22 0,309.38 -117.04,546.22 -396.43,645.19l243.37 409.09 100.43 0.24 751.75 -1771.44 570.34 0 648.72 1522.02 640.92 -1521.43 636.66 0 -1012.11 2286.87 -596.27 0 -214.08 -555.51c-134.35,-346.49 -269.9,-692.48 -405.83,-1038.34zm2486.98 230.79l358.25 0 282.69 517.51 -854.83 -5.94 -89.77 214.69c-11.37,27.21 -8.81,53.91 7.54,78.46 16.35,24.56 39.98,37.21 69.48,37.21l1043.12 0 283.12 520.12 -1797.41 -5.16c-111.5,-0.32 -208.96,-52.69 -270.88,-145.39 -61.93,-92.71 -72.94,-202.74 -30.6,-305.87 222.5,-542.11 483.62,-1082.78 706.13,-1624.88 51.06,-124.41 166.99,-202.42 301.46,-202.88 592.61,-2.02 1150.08,-2.82 1742.67,-2.47 269.17,-0.05 581.22,49.81 727.59,304.77 69.81,121.04 91.09,266.35 91.09,404.22 0,309.58 -117.2,546.53 -397,645.38l825.21 1407.96 -671.62 0 -487.8 -862.69 -0.43 -0.82c-155.75,-293.11 -311.48,-586.23 -467.18,-879.37l-55.01 -103.55 325.24 0c75.29,0 250.2,-6.4 300.63,-76.12 25.28,-34.59 30.64,-74.97 30.64,-116.88 0,-69.82 -16.47,-133.33 -82.9,-165.73 -62.4,-30.37 -178.4,-33.72 -246.53,-33.72l-442.95 0.09 -294.83 0.22 -0.01 0.2 -647.87 0c-56.13,0 -102.7,31.01 -124.35,82.79l-132.89 317.85z"/>
  <path class="fil2" d="M8521.65 4385.26l-502.01 0 -196.72 -510.48c-156.3,-403.09 -314.03,-805.03 -472.63,-1208.21l-313.75 824.23 254.84 0 146.33 383.98 -547.09 0 -191.25 510.48 -777.64 0 -684.99 -1222.66 218.56 0c187.76,0 306.79,-34.86 357.59,-105.08 28.38,-38.85 42.33,-94.13 42.33,-166.34 0,-113.05 -40.84,-189.25 -122.52,-229.1 -56.28,-27.39 -148.91,-40.83 -277.4,-40.83l-552.81 0 -450.72 -0.18 0.01 -382.31 -952.73 0c-356.09,0 -617.33,97.89 -782.4,294.84 -152.17,181.54 -227.6,454.19 -227.6,817.26 0,388.95 109.57,670.84 328.2,846.14 67.24,53.29 136.96,94.63 208.67,122.52 113.06,43.83 270.43,65.74 473.13,65.74l952.69 0 0.04 -1273.95 -1049.34 0 0 379.49 604.1 0 0 506.5 -507.49 0c-237.56,0 -389.95,-96.12 -456.69,-288.86 -34.36,-97.61 -51.3,-223.62 -51.3,-378 0,-164.35 15.72,-288.22 50.08,-394.3 66.74,-210.17 219.14,-315.3 456.69,-315.25l953.94 0.18 0.01 -382.31 1111.59 0c339.66,0 562.28,92.63 668.36,277.4 54.28,94.13 81.67,217.14 81.67,369.04 0,337.66 -144.43,538.37 -433.28,602.61l310.57 522.06 187.18 0.45 751.8 -1771.56 477.11 0 695.67 1632.2 687.33 -1631.61 481.59 0 -949.72 2145.91zm1210.82 -1222.1l422.31 0 205.24 375.72 -782.37 -5.44 -107.99 258.31c-20.48,48.98 -15.53,100.52 13.89,144.71 29.42,44.19 75.06,68.63 128.15,68.63l1001.24 0 206.2 378.82 -1678.4 -4.82c-88.03,-0.25 -163.59,-40.87 -212.48,-114.06 -48.9,-73.2 -57.44,-158.53 -24.01,-239.96 223.37,-544.22 480.61,-1078.6 704.87,-1624.99 40.24,-98.04 130.52,-158.8 236.5,-159.16 592.55,-2.01 1151.13,-2.54 1743.69,-2.36 339.65,0.1 560.44,84.7 666.52,269.47 54.28,94.13 81.67,217.14 81.67,369.04 0,337.66 -144.42,538.36 -433.28,602.61l808.97 1380.24 -507.49 0 -467.11 -826.09c-212.58,-400.06 -412.64,-776.68 -467.18,-879.36l207.99 0c187.76,0 306.79,-34.86 357.59,-105.09 28.38,-38.84 44.16,-86.19 44.16,-158.4 0,-113.06 -40.84,-189.26 -122.52,-229.1 -56.27,-27.39 -148.9,-40.84 -277.4,-40.84l-442.99 0.1 -361.99 0.26 -0.01 0.15 -580.66 0c-84.55,0 -156.77,48.08 -189.38,126.09l-173.73 415.52z"/>
  <path class="fil2" d="M8521.65 4385.26l-502.01 0 -196.72 -510.48c-156.3,-403.09 -314.03,-805.03 -472.63,-1208.21l-313.75 824.23 254.84 0 146.33 383.98 -547.09 0 -191.25 510.48 -777.64 0 -684.99 -1222.66 218.56 0c187.76,0 306.79,-34.86 357.59,-105.08 28.38,-38.85 42.33,-94.13 42.33,-166.34 0,-113.05 -40.84,-189.25 -122.52,-229.1 -56.28,-27.39 -148.91,-40.83 -277.4,-40.83l-552.81 0 -450.72 -0.18 0.01 -382.31 -952.73 0c-356.09,0 -617.33,97.89 -782.4,294.84 -152.17,181.54 -227.6,454.19 -227.6,817.26 0,388.95 109.57,670.84 328.2,846.14 67.24,53.29 136.96,94.63 208.67,122.52 113.06,43.83 270.43,65.74 473.13,65.74l952.69 0 0.04 -1273.95 -1049.34 0 0 379.49 604.1 0 0 506.5 -507.49 0c-237.56,0 -389.95,-96.12 -456.69,-288.86 -34.36,-97.61 -51.3,-223.62 -51.3,-378 0,-164.35 15.72,-288.22 50.08,-394.3 66.74,-210.17 219.14,-315.3 456.69,-315.25l953.94 0.18 0.01 -382.31 1111.59 0c339.66,0 562.28,92.63 668.36,277.4 54.28,94.13 81.67,217.14 81.67,369.04 0,337.66 -144.43,538.37 -433.28,602.61l310.57 522.06 187.18 0.45 751.8 -1771.56 477.11 0 695.67 1632.2 687.33 -1631.61 481.59 0 -949.72 2145.91zm1210.82 -1222.1l422.31 0 205.24 375.72 -782.37 -5.44 -107.99 258.31c-20.48,48.98 -15.53,100.52 13.89,144.71 29.42,44.19 75.06,68.63 128.15,68.63l1001.24 0 206.2 378.82 -1678.4 -4.82c-88.03,-0.25 -163.59,-40.87 -212.48,-114.06 -48.9,-73.2 -57.44,-158.53 -24.01,-239.96 223.37,-544.22 480.61,-1078.6 704.87,-1624.99 40.24,-98.04 130.52,-158.8 236.5,-159.16 592.55,-2.01 1151.13,-2.54 1743.69,-2.36 339.65,0.1 560.44,84.7 666.52,269.47 54.28,94.13 81.67,217.14 81.67,369.04 0,337.66 -144.42,538.36 -433.28,602.61l808.97 1380.24 -507.49 0 -467.11 -826.09c-212.58,-400.06 -412.64,-776.68 -467.18,-879.36l207.99 0c187.76,0 306.79,-34.86 357.59,-105.09 28.38,-38.84 44.16,-86.19 44.16,-158.4 0,-113.06 -40.84,-189.26 -122.52,-229.1 -56.27,-27.39 -148.9,-40.84 -277.4,-40.84l-442.99 0.1 -361.99 0.26 -0.01 0.15 -580.66 0c-84.55,0 -156.77,48.08 -189.38,126.09l-173.73 415.52z"/>
  <path class="fil3" d="M8521.73 4384.9l-502.02 0 -196.72 -510.47c-54.02,-139.32 -108.22,-278.51 -162.56,-417.65 151.15,-3.55 304.11,-8.63 459.09,-15.54l183 429.36 189.28 -449.32c155.5,-9.61 312.76,-21.09 471.62,-34.4l-441.69 998.02zm-1485.12 -894.45l254.84 0 146.33 383.98 -547.09 0 -191.25 510.47 -777.64 0 -557.13 -994.42c215.33,17.56 438.06,32.42 667.47,44.07 122.95,-61.95 -122.86,46.44 -151.95,52.91l310.57 522.06 187.18 0.45 234.88 -553.48c130.19,20.44 260.72,31.1 423.79,33.96zm-4443.52 -752.39c-0.98,2.29 -1.95,4.59 -2.91,6.9 0.96,-2.31 1.93,-4.61 2.91,-6.9zm-8.4 20.31c-1.37,3.4 -2.72,6.82 -4.05,10.26 1.33,-3.44 2.68,-6.86 4.05,-10.26zm-5.32 13.53c-1.33,3.47 -2.64,6.95 -3.94,10.45 1.3,-3.5 2.61,-6.98 3.94,-10.45zm-7.93 21.36c-1.32,3.67 -2.63,7.36 -3.92,11.07 1.29,-3.71 2.6,-7.4 3.92,-11.07zm-4.95 14.07c-2.31,6.71 -4.58,13.5 -6.78,20.34 2.2,-6.85 4.47,-13.62 6.78,-20.34zm-7.07 21.26c-1.47,4.56 -2.92,9.15 -4.34,13.77 1.43,-4.62 2.87,-9.21 4.34,-13.77zm-4.57 14.51c-3.75,12.22 -7.33,24.62 -10.76,37.22 3.43,-12.6 7.01,-25 10.76,-37.22zm-11.04 38.24c-2.06,7.6 -4.07,15.27 -6.01,23.01 1.94,-7.74 3.95,-15.41 6.01,-23.01zm-6.03 23.06c-32.47,129.27 -48.66,277.99 -48.66,446.1 0,388.96 109.57,670.85 328.2,846.15 67.24,53.29 136.96,94.63 208.67,122.52 113.06,43.82 270.43,65.73 473.13,65.73l952.69 0 0.04 -1273.95 -0.01 185.43c-382.6,-47.71 -733.9,-102.04 -1049.33,-158.04l0 352.11 604.1 0 0 506.49 -507.49 0c-237.56,0 -389.95,-96.12 -456.69,-288.85 -34.36,-97.62 -51.3,-223.62 -51.3,-378.01 0,-102.45 6.11,-189.17 19.04,-265.66 -176.37,-35.15 -338.49,-70.08 -485.26,-103.64 3.96,-19.18 8.26,-37.98 12.87,-56.38zm7617.07 258.41l205.24 375.71 -782.36 -5.43 -108 258.31c-20.48,48.98 -15.53,100.52 13.89,144.71 29.42,44.19 75.06,68.63 128.15,68.63l1001.24 0 206.2 378.81 -1678.4 -4.81c-88.03,-0.26 -163.59,-40.87 -212.48,-114.07 -48.9,-73.19 -57.43,-158.52 -24.01,-239.95 90.49,-220.38 186.49,-439.18 283.61,-657.81 331.11,-31.21 668.99,-70.78 1012.9,-119.93l-45.98 -84.17zm2175.06 -417.27c0.69,5.56 1.33,11.16 1.93,16.81 -0.6,-5.65 -1.24,-11.26 -1.93,-16.81zm2.52 22.52c0.73,7.37 1.38,14.83 1.96,22.37 -0.58,-7.54 -1.23,-15 -1.96,-22.37zm2.9 35.82c1.49,23.49 2.24,47.77 2.24,72.83 0,337.66 -144.42,538.37 -433.28,602.62l808.97 1380.24 -507.49 0 -467.11 -826.1c-212.58,-400.05 -412.64,-776.67 -467.18,-879.36l207.99 0c187.76,0 306.79,-34.86 357.59,-105.08 21.84,-29.83 36.17,-64.7 41.66,-112.02 151.76,-34.55 304.49,-71.48 457.83,-110.04 -0.33,-7.78 -0.73,-15.48 -1.22,-23.09z"/>
  <path class="fil4" d="M7660.36 3457.13c-102.88,-263.44 -206.29,-526.73 -310.07,-790.56l-303.17 796.43c-146.92,-0.67 -291.86,-2.69 -434.37,-6.16l516.92 -1218.08 477.11 0 512.67 1202.84c-154.98,6.9 -307.95,11.98 -459.09,15.53zm-2295.76 -66.3l-127.86 -228.23 218.56 0c187.76,0 306.79,-34.86 357.59,-105.08 28.38,-38.85 42.33,-94.13 42.33,-166.34 0,-113.05 -40.84,-189.25 -122.52,-229.1 -56.28,-27.39 -148.91,-40.83 -277.4,-40.83l-552.81 0 -450.72 -0.18 0.01 -382.31 -952.73 0c-356.09,0 -617.33,97.89 -782.4,294.84 -91.74,109.44 -155.57,252.02 -191.81,427.53 146.77,33.56 308.89,68.49 485.26,103.64 7.8,-46.21 18.1,-88.68 31.04,-128.63 66.74,-210.17 219.14,-315.3 456.69,-315.25l953.94 0.18 0.01 -382.31 1111.59 0c339.66,0 562.28,92.63 668.36,277.4 54.28,94.13 81.67,217.14 81.67,369.04 0,272.08 -93.79,455.2 -281.33,549.7 -229.41,-11.64 -452.14,-26.5 -667.47,-44.07zm-912.83 -94.1l0.01 -185.42 -1049.34 0 0 27.38c315.43,56 666.73,110.33 1049.33,158.04zm4039.96 124.9l498.05 -1182.28 481.59 0 -508.02 1147.88c-158.86,13.31 -316.12,24.79 -471.62,34.4zm696.13 -54.37c331.11,-31.21 668.98,-70.78 1012.9,-119.93l-45.98 -84.17 -422.31 0 173.73 -415.52c32.61,-78.01 104.83,-126.09 189.38,-126.09l580.66 0 0.01 -0.15 361.99 -0.26 442.99 -0.1c128.5,0 221.13,13.45 277.4,40.84 81.68,39.84 122.52,116.04 122.52,229.1 0,16.73 -0.85,32.12 -2.5,46.38 151.76,-34.55 304.49,-71.48 457.83,-110.04 -5.43,-129.23 -32.42,-235.66 -80.65,-319.29 -106.08,-184.77 -326.87,-269.37 -666.52,-269.47 -592.56,-0.18 -1151.14,0.35 -1743.69,2.36 -105.98,0.36 -196.26,61.12 -236.5,159.16 -133.43,325.11 -278.55,645.97 -421.26,967.18z"/>
  <polygon class="fil0" points="7855.84,1985.7 8291.7,2870.43 8727.02,1986.41 "/>
  <path class="fil5" d="M3030.13 5790.77l-51.63 39.65c-28.42,-37.07 -62.59,-65.17 -102.55,-84.32 -39.81,-19.12 -83.56,-28.7 -131.41,-28.7 -52.11,0 -100.4,12.61 -144.91,37.69 -44.51,25.05 -78.86,58.77 -103.31,101 -24.44,42.24 -36.77,89.93 -36.77,142.64 0,79.93 27.34,146.61 82.04,199.92 54.69,53.5 123.65,80.22 207.05,80.22 91.6,0 168.19,-35.84 229.86,-107.56l51.63 39.2c-32.65,41.48 -73.37,73.69 -122.13,96.31 -48.77,22.64 -103.31,34.03 -163.46,34.03 -114.54,0 -204.91,-38.13 -270.99,-114.38 -55.46,-64.25 -83.27,-142.04 -83.27,-233.04 0,-95.7 33.59,-176.36 100.72,-241.69 67.31,-65.48 151.46,-98.13 252.63,-98.13 61.06,0 116.23,11.99 165.44,36 49.21,24.16 89.62,57.88 121.06,101.16zm69.27 49.68l64.73 0 166.93 371.13 162.26 -371.13 66.39 0 -288.96 660.83 -66.37 0 94.79 -216.64 -199.77 -444.19zm681.5 484l-140.84 0 0 -484 138.69 0c52.87,0 91.01,12.17 114.41,36.3 23.22,24.32 34.92,52.71 34.92,85.23 0,49.08 -21.7,82.18 -65.17,99.65 62.9,22.33 94.35,65.33 94.35,128.98 0,89.17 -58.8,133.84 -176.36,133.84zm-78.86 -430.22l0 150.4 40.72 0c37.07,0 61.36,-1.52 72.61,-4.42 11.39,-3.03 22.02,-10.32 32.05,-21.86 10.03,-11.7 15.05,-27.03 15.05,-46.34 0,-20.06 -5.17,-36.77 -15.65,-50.28 -10.5,-13.68 -21.42,-21.57 -32.96,-24 -11.55,-2.27 -35.26,-3.5 -71.1,-3.5l-40.72 0zm0 207.81l0 169.54 67 0c31.6,0 54.22,-1.98 67.75,-6.08 13.51,-3.95 25.21,-12.59 34.79,-25.97 9.72,-13.37 14.58,-30.24 14.58,-50.75 0,-26.43 -8.36,-47.38 -25.08,-63.18 -16.69,-15.65 -38.73,-23.56 -66.08,-23.56l-92.96 0zm773.09 61.98l52.56 27.66c-17.32,33.56 -37.2,60.76 -59.84,81.42 -22.65,20.5 -48.01,36.3 -76.27,47.09 -28.39,10.79 -60.31,16.12 -95.99,16.12 -79.3,0 -141.13,-25.84 -185.79,-77.5 -44.67,-51.64 -67,-109.97 -67,-175 0,-61.2 18.99,-115.9 56.81,-163.75 47.85,-60.91 112.11,-91.44 192.48,-91.44 82.8,0 149.01,31.29 198.4,93.71 35.08,44.07 53,99.05 53.63,165.13l-437.51 0c1.2,56.06 19.28,101.95 54.07,137.63 34.95,35.86 78.07,53.78 129.27,53.78 24.76,0 48.92,-4.26 72.32,-12.75 23.4,-8.51 43.28,-19.74 59.71,-33.88 16.4,-14.13 34.17,-36.77 53.15,-68.22zm0.61 -130.34c-8.34,-33.27 -20.51,-59.71 -36.44,-79.59 -16.12,-19.9 -37.22,-35.86 -63.52,-48 -26.28,-12.18 -53.92,-18.23 -82.78,-18.23 -47.85,0 -88.88,15.17 -123.21,45.7 -25.2,22.34 -44.06,55.61 -56.96,100.12l362.91 0zm527.62 57.44l-282.57 0 0 233.33 -61.98 0 0 -484 61.98 0 0 192.32 282.57 0 0 -192.32 61.98 0 0 484 -61.98 0 0 -233.33zm262.66 -250.67l0 358.52 356.09 -358.52 4.86 0 0 484 -61.99 0 0 -355.78 -353.34 355.78 -7.61 0 0 -484 61.99 0zm500.56 0l61.98 0 0 89.01c24.6,-33.87 52.87,-59.08 84.92,-75.8 32.04,-16.71 67.75,-25.04 107.24,-25.04 68.83,0 127.62,24.76 176.52,74.12 48.92,49.37 73.37,108.92 73.37,178.35 0,71.1 -24.29,131.25 -72.74,180.93 -48.48,49.52 -106.96,74.29 -175.48,74.29 -38.42,0 -73.81,-8.07 -106.17,-24.01 -32.36,-16.11 -61.54,-39.96 -87.66,-71.7l0 260.68 -61.98 0 0 -660.83zm249.6 48.32c-53.94,0 -99.2,18.67 -135.98,56.21 -36.91,37.51 -55.3,84.16 -55.3,139.9 0,36.62 8.2,69.58 24.63,98.76 16.41,29.3 39.94,52.39 70.47,69.55 30.7,17.19 63.06,25.68 96.94,25.68 33.4,0 64.85,-8.65 94.31,-25.96 29.49,-17.19 52.87,-41.33 70.34,-72.33 17.48,-30.98 26.15,-63.5 26.15,-97.37 0,-34.33 -8.67,-66.85 -25.99,-97.54 -17.32,-30.69 -40.56,-54.53 -69.87,-71.38 -29.17,-17.03 -61.22,-25.52 -95.7,-25.52zm715.81 202.35l-282.56 0 0 233.33 -61.98 0 0 -484 61.98 0 0 192.32 282.56 0 0 -192.32 61.98 0 0 484 -61.98 0 0 -233.33zm682.85 -250.67l0 484 -61.98 0 0 -83.25c-26.12,31.74 -55.3,55.59 -87.79,71.39 -32.36,15.8 -67.91,23.72 -106.36,23.72 -68.35,0 -126.84,-24.77 -175.29,-74.29 -48.48,-49.68 -72.61,-109.83 -72.61,-180.93 0,-69.43 24.45,-128.98 73.37,-178.35 48.76,-49.36 107.53,-74.12 176.36,-74.12 39.65,0 75.51,8.33 107.72,25.04 32.05,16.72 60.31,41.93 84.6,75.8l0 -89.01 61.98 0zm-249.44 48.32c-34.64,0 -66.69,8.49 -95.86,25.52 -29.31,16.85 -52.55,40.69 -69.87,71.38 -17.32,30.69 -25.99,63.21 -25.99,97.54 0,33.87 8.67,66.39 26.14,97.37 17.48,31 40.86,55.14 70.35,72.33 29.46,17.31 61.06,25.96 94.78,25.96 33.88,0 66.24,-8.49 96.62,-25.68 30.54,-17.16 53.91,-40.25 70.34,-69.55 16.41,-29.18 24.61,-62.14 24.61,-98.76 0,-55.74 -18.39,-102.39 -55.3,-139.9 -36.78,-37.54 -82.04,-56.21 -135.82,-56.21zm595.06 219.67l-44.38 0 -139.14 216.01 -67.31 0 146.14 -222.26c-36.31,-4.38 -65.77,-18.23 -88.39,-41.32 -22.64,-22.93 -33.88,-51.64 -33.88,-85.83 0,-42.68 13.06,-75.95 39.03,-99.33 25.99,-23.56 60.15,-35.26 102.23,-35.26l147.68 0 0 484 -61.98 0 0 -216.01zm0 -214.21l-41.32 0c-39.97,0 -66.84,2.58 -80.69,7.6 -13.66,5.01 -24.6,13.66 -32.65,25.96 -8.04,12.33 -12.14,28.86 -12.14,49.53 0,19.9 5.14,36.17 15.64,49.07 10.48,12.91 22.18,20.82 35.08,23.85 12.78,2.9 37.69,4.42 74.76,4.42l41.32 0 0 -160.43zm514.66 -53.78l0 358.52 356.1 -358.52 4.85 0 0 484 -61.98 0 0 -355.78 -353.35 355.78 -7.6 0 0 -484 61.98 0zm752.88 0l61.98 0 0 89.01c24.61,-33.87 52.87,-59.08 84.92,-75.8 32.05,-16.71 67.75,-25.04 107.25,-25.04 68.82,0 127.62,24.76 176.52,74.12 48.92,49.37 73.37,108.92 73.37,178.35 0,71.1 -24.29,131.25 -72.75,180.93 -48.48,49.52 -106.96,74.29 -175.47,74.29 -38.42,0 -73.81,-8.07 -106.18,-24.01 -32.36,-16.11 -61.54,-39.96 -87.66,-71.7l0 260.68 -61.98 0 0 -660.83zm249.6 48.32c-53.93,0 -99.2,18.67 -135.98,56.21 -36.9,37.51 -55.29,84.16 -55.29,139.9 0,36.62 8.2,69.58 24.63,98.76 16.4,29.3 39.94,52.39 70.47,69.55 30.69,17.19 63.05,25.68 96.93,25.68 33.41,0 64.86,-8.65 94.32,-25.96 29.49,-17.19 52.87,-41.33 70.34,-72.33 17.47,-30.98 26.15,-63.5 26.15,-97.37 0,-34.33 -8.68,-66.85 -25.99,-97.54 -17.32,-30.69 -40.57,-54.53 -69.87,-71.38 -29.18,-17.03 -61.23,-25.52 -95.71,-25.52zm779.91 275.25l52.56 27.66c-17.32,33.56 -37.2,60.76 -59.84,81.42 -22.65,20.5 -48.01,36.3 -76.27,47.09 -28.39,10.79 -60.31,16.12 -95.99,16.12 -79.3,0 -141.13,-25.84 -185.79,-77.5 -44.67,-51.64 -67,-109.97 -67,-175 0,-61.2 18.99,-115.9 56.81,-163.75 47.85,-60.91 112.11,-91.44 192.48,-91.44 82.8,0 149.01,31.29 198.4,93.71 35.08,44.07 53,99.05 53.63,165.13l-437.51 0c1.2,56.06 19.28,101.95 54.07,137.63 34.95,35.86 78.07,53.78 129.27,53.78 24.76,0 48.92,-4.26 72.32,-12.75 23.4,-8.51 43.28,-19.74 59.71,-33.88 16.4,-14.13 34.17,-36.77 53.15,-68.22zm0.61 -130.34c-8.34,-33.27 -20.51,-59.71 -36.44,-79.59 -16.12,-19.9 -37.22,-35.86 -63.52,-48 -26.28,-12.18 -53.92,-18.23 -82.78,-18.23 -47.85,0 -88.88,15.17 -123.21,45.7 -25.2,22.34 -44.06,55.61 -56.96,100.12l362.91 0zm183.07 -193.23l61.98 0 0 203.86 225.44 -203.86 85.39 0 -244.74 220.89 264.33 263.11 -88.1 0 -222.73 -223.77 -19.59 17.32 0 206.45 -61.98 0 0 -484zm868.04 484l-65.17 0 -163.46 -352.91 -160.87 352.91 -66.71 0 221.05 -484 11.08 0 224.08 484zm576.8 -484l0 484 -61.98 0 0 -83.25c-26.12,31.74 -55.29,55.59 -87.79,71.39 -32.36,15.8 -67.91,23.72 -106.36,23.72 -68.35,0 -126.84,-24.77 -175.29,-74.29 -48.48,-49.68 -72.61,-109.83 -72.61,-180.93 0,-69.43 24.45,-128.98 73.37,-178.35 48.77,-49.36 107.54,-74.12 176.36,-74.12 39.65,0 75.51,8.33 107.72,25.04 32.05,16.72 60.31,41.93 84.6,75.8l0 -89.01 61.98 0zm-249.44 48.32c-34.64,0 -66.68,8.49 -95.86,25.52 -29.31,16.85 -52.55,40.69 -69.87,71.38 -17.32,30.69 -25.99,63.21 -25.99,97.54 0,33.87 8.67,66.39 26.15,97.37 17.47,31 40.85,55.14 70.34,72.33 29.46,17.31 61.06,25.96 94.79,25.96 33.87,0 66.24,-8.49 96.61,-25.68 30.54,-17.16 53.91,-40.25 70.34,-69.55 16.41,-29.18 24.61,-62.14 24.61,-98.76 0,-55.74 -18.39,-102.39 -55.3,-139.9 -36.77,-37.54 -82.04,-56.21 -135.82,-56.21zm917.12 -48.32l17.92 0 163.45 484 -65.01 0 -119.86 -355.47 -186.55 355.47 -11.54 0 -186.55 -357.01 -119.87 357.01 -64.88 0 165.13 -484 16.88 0 195.5 378.58 195.38 -378.58zm618.44 250.67l-282.57 0 0 233.33 -61.98 0 0 -484 61.98 0 0 192.32 282.57 0 0 -192.32 61.98 0 0 484 -61.98 0 0 -233.33zm682.85 -250.67l0 484 -61.98 0 0 -83.25c-26.12,31.74 -55.3,55.59 -87.79,71.39 -32.37,15.8 -67.91,23.72 -106.36,23.72 -68.36,0 -126.84,-24.77 -175.29,-74.29 -48.48,-49.68 -72.62,-109.83 -72.62,-180.93 0,-69.43 24.45,-128.98 73.37,-178.35 48.77,-49.36 107.54,-74.12 176.37,-74.12 39.65,0 75.51,8.33 107.71,25.04 32.05,16.72 60.31,41.93 84.61,75.8l0 -89.01 61.98 0zm-249.45 48.32c-34.63,0 -66.68,8.49 -95.86,25.52 -29.3,16.85 -52.55,40.69 -69.87,71.38 -17.31,30.69 -25.99,63.21 -25.99,97.54 0,33.87 8.68,66.39 26.15,97.37 17.47,31 40.85,55.14 70.34,72.33 29.46,17.31 61.07,25.96 94.79,25.96 33.88,0 66.24,-8.49 96.62,-25.68 30.53,-17.16 53.91,-40.25 70.34,-69.55 16.4,-29.18 24.6,-62.14 24.6,-98.76 0,-55.74 -18.39,-102.39 -55.29,-139.9 -36.78,-37.54 -82.05,-56.21 -135.83,-56.21zm595.07 219.67l-44.38 0 -139.14 216.01 -67.31 0 146.14 -222.26c-36.31,-4.38 -65.77,-18.23 -88.39,-41.32 -22.65,-22.93 -33.88,-51.64 -33.88,-85.83 0,-42.68 13.06,-75.95 39.02,-99.33 25.99,-23.56 60.16,-35.26 102.24,-35.26l147.68 0 0 484 -61.98 0 0 -216.01zm0 -214.21l-41.33 0c-39.96,0 -66.84,2.58 -80.68,7.6 -13.66,5.01 -24.61,13.66 -32.65,25.96 -8.05,12.33 -12.15,28.86 -12.15,49.53 0,19.9 5.15,36.17 15.65,49.07 10.47,12.91 22.18,20.82 35.08,23.85 12.77,2.9 37.69,4.42 74.75,4.42l41.33 0 0 -160.43zm452.68 -53.78l406.53 0 0 484 -61.99 0 0 -425.65 -282.56 0 0 425.65 -61.98 0 0 -484zm546.14 0l61.98 0 0 89.01c24.6,-33.87 52.87,-59.08 84.91,-75.8 32.05,-16.71 67.76,-25.04 107.25,-25.04 68.83,0 127.62,24.76 176.52,74.12 48.92,49.37 73.37,108.92 73.37,178.35 0,71.1 -24.29,131.25 -72.74,180.93 -48.48,49.52 -106.96,74.29 -175.48,74.29 -38.42,0 -73.81,-8.07 -106.17,-24.01 -32.36,-16.11 -61.54,-39.96 -87.66,-71.7l0 260.68 -61.98 0 0 -660.83zm249.6 48.32c-53.94,0 -99.21,18.67 -135.98,56.21 -36.91,37.51 -55.3,84.16 -55.3,139.9 0,36.62 8.2,69.58 24.63,98.76 16.41,29.3 39.94,52.39 70.47,69.55 30.7,17.19 63.06,25.68 96.94,25.68 33.4,0 64.85,-8.65 94.31,-25.96 29.49,-17.19 52.87,-41.33 70.34,-72.33 17.48,-30.98 26.15,-63.5 26.15,-97.37 0,-34.33 -8.67,-66.85 -25.99,-97.54 -17.32,-30.69 -40.56,-54.53 -69.87,-71.38 -29.17,-17.03 -61.22,-25.52 -95.7,-25.52zm600.81 -60.15c74.59,0 136.58,26.87 185.63,80.81 44.66,49.05 67,107.25 67,174.38 0,67.46 -23.54,126.39 -70.79,176.83 -47.09,50.43 -107.87,75.67 -181.84,75.67 -74.45,0 -135.36,-25.24 -182.45,-75.67 -47.25,-50.44 -70.79,-109.37 -70.79,-176.83 0,-66.84 22.34,-124.86 67,-173.94 49.05,-54.22 111.19,-81.25 186.24,-81.25zm-0.32 61.06c-51.79,0 -96.14,18.99 -133.37,57.1 -37.22,38.14 -55.73,84.32 -55.73,138.41 0,34.79 8.48,67.28 25.36,97.53 17,30.07 39.93,53.31 68.8,69.72 28.73,16.4 60.46,24.6 94.94,24.6 34.51,0 66.24,-8.2 94.95,-24.6 28.86,-16.41 51.82,-39.65 68.82,-69.72 16.88,-30.25 25.37,-62.74 25.37,-97.53 0,-54.09 -18.68,-100.27 -56.06,-138.41 -37.22,-38.11 -81.57,-57.1 -133.08,-57.1zm372.05 381.9l186.84 -431.13 32.52 0 185.79 431.13 58.04 0 0 114.85 -60.16 0 0 -61.98 -400.15 0 0 64.72 -61.99 0 0 -117.59 59.11 0zm202.04 -333.76l-141.57 333.76 277.39 0 -135.82 -333.76zm293.04 -97.37l64.72 0 166.94 371.13 162.25 -371.13 66.4 0 -288.97 660.83 -66.37 0 94.79 -216.64 -199.76 -444.19zm540.65 0l61.98 0 0 203.86 225.45 -203.86 85.38 0 -244.74 220.89 264.33 263.11 -88.1 0 -222.73 -223.77 -19.59 17.32 0 206.45 -61.98 0 0 -484zm910.57 484l-453 0 0 -484 61.98 0 0 425.67 281.65 0 0 -425.67 61.98 0 0 425.67 105.74 0 0 134.89 -58.35 0 0 -76.56zm204.02 -484l0 358.52 356.09 -358.52 4.86 0 0 484 -61.99 0 0 -355.78 -353.34 355.78 -7.6 0 0 -484 61.98 0zm704.74 267.99l-44.38 0 -139.14 216.01 -67.31 0 146.14 -222.26c-36.31,-4.38 -65.77,-18.23 -88.39,-41.32 -22.65,-22.93 -33.88,-51.64 -33.88,-85.83 0,-42.68 13.06,-75.95 39.02,-99.33 25.99,-23.56 60.16,-35.26 102.24,-35.26l147.68 0 0 484 -61.98 0 0 -216.01zm0 -214.21l-41.33 0c-39.96,0 -66.84,2.58 -80.68,7.6 -13.66,5.01 -24.6,13.66 -32.65,25.96 -8.04,12.33 -12.14,28.86 -12.14,49.53 0,19.9 5.14,36.17 15.64,49.07 10.47,12.91 22.18,20.82 35.08,23.85 12.77,2.9 37.69,4.42 74.75,4.42l41.33 0 0 -160.43z"/>
 </g>
</svg>
