<svg width="188" height="188" viewBox="0 0 188 188" fill="none" xmlns="http://www.w3.org/2000/svg">
<g clip-path="url(#clip0_1681_2654)">
<path d="M93.9999 187.656C145.717 187.656 187.656 145.718 187.656 94.0004C187.656 42.2832 145.717 0.344727 93.9999 0.344727C42.2827 0.344727 0.344238 42.2832 0.344238 94.0004C0.344238 145.718 42.2827 187.656 93.9999 187.656Z" fill="url(#paint0_linear_1681_2654)" stroke="#E0BB58" stroke-miterlimit="10"/>
<path d="M151.502 58.6385C151.295 63.3212 148.575 64.2165 148.575 64.2165C148.575 64.2165 147.198 57.7432 146.027 53.9557C144.856 50.1681 149.746 45.4854 149.746 45.4854C149.746 45.4854 151.708 53.9557 151.502 58.6385Z" fill="#E0BB58" stroke="#E0BB58"/>
<path d="M145.545 75.8885C148.231 77.7134 153.189 78.5742 153.189 78.5742C153.189 78.5742 150.675 71.9976 147.714 69.2086C144.547 66.213 137.936 64.7324 137.936 64.7324C137.936 64.7324 141.379 73.065 145.545 75.8885Z" fill="#E0BB58" stroke="#E0BB58"/>
<path d="M158.733 74.3045C157.734 78.7119 153.637 84.3588 153.637 84.3588C153.637 84.3588 153.155 77.2313 153.637 72.7551C154.256 67.1426 157.149 58.8789 157.149 58.8789C157.149 58.8789 160.041 68.4166 158.733 74.3045Z" fill="#E0BB58" stroke="#E0BB58"/>
<path d="M146.681 92.3475C148.713 95.5153 153.705 98.3732 153.705 98.3732C153.705 98.3732 152.259 91.2801 150.366 87.2171C148.472 83.1541 144.099 77.8516 144.099 77.8516C144.099 77.8516 143.686 87.6648 146.681 92.3475Z" fill="#E0BB58" stroke="#E0BB58"/>
<path d="M160.075 97.5119C157.734 103.331 153.43 103.331 153.43 103.331C153.43 103.331 154.394 93.2767 157.734 86.5969C161.074 79.8826 163.794 81.4665 163.794 81.4665C163.794 81.4665 162.417 91.6928 160.075 97.5119Z" fill="#E0BB58" stroke="#E0BB58"/>
<path d="M157.837 117.345C154.704 120.34 148.265 122.027 148.265 122.027C148.265 122.027 151.192 113.557 154.704 108.392C158.216 103.262 164.276 101.919 164.276 101.919C164.276 101.919 162.313 113.041 157.837 117.345Z" fill="#E0BB58" stroke="#E0BB58"/>
<path d="M138.9 151.537C134.63 152.397 127.95 149.539 127.95 149.539C127.95 149.539 135.147 144.547 140.277 142.825C144.443 141.413 151.226 140.828 151.226 140.828C151.226 140.828 144.856 150.331 138.9 151.537Z" fill="#E0BB58" stroke="#E0BB58"/>
<path d="M150.4 135.525C146.613 137.832 139.657 137.97 139.657 137.97C139.657 137.97 143.341 133.183 146.096 130.601C150.848 126.194 159.8 121.89 159.8 121.89C159.8 121.89 155.634 132.323 150.4 135.525Z" fill="#E0BB58" stroke="#E0BB58"/>
<path d="M145.063 110.425C146.303 113.799 149.574 118.241 149.574 118.241C149.574 118.241 150.985 107.085 148.403 101.059C147.163 98.1323 144.099 94.3447 144.099 94.3447C144.099 94.3447 142.928 104.606 145.063 110.425Z" fill="#E0BB58" stroke="#E0BB58"/>
<path d="M130.326 137.041C129.637 140.794 130.326 146.854 130.326 146.854C130.326 146.854 134.355 142.584 135.801 139.038C137.936 133.804 136.765 124.301 136.765 124.301C136.765 124.301 131.359 131.428 130.326 137.041Z" fill="#E0BB58" stroke="#E0BB58"/>
<path d="M139.313 124.679C139.382 128.948 141.275 135.387 141.275 135.387C141.275 135.387 144.409 129.121 144.994 124.679C145.752 118.722 142.859 109.494 142.859 109.494C142.859 109.494 139.209 118.55 139.313 124.679Z" fill="#E0BB58" stroke="#E0BB58"/>
<path d="M121.649 161.556C118.24 160.661 113.833 156.632 113.833 156.632C113.833 156.632 118.516 154.842 121.649 154.394C127.675 153.568 137.109 156.632 137.109 156.632C137.109 156.632 127.744 163.175 121.649 161.556Z" fill="#E0BB58" stroke="#E0BB58"/>
<path d="M116.519 150.366C114.384 155.289 116.519 155.289 116.519 155.289C116.519 155.289 121.649 153.258 123.749 150.366C126.504 146.578 126.297 138.073 126.297 138.073C126.297 138.073 118.653 145.442 116.519 150.366Z" fill="#E0BB58" stroke="#E0BB58"/>
<path d="M106.396 165.998C98.3729 162.865 100.714 159.077 100.714 159.077C100.714 159.077 107.256 159.353 111.285 160.627C116.725 162.348 124.197 167.995 124.197 167.995C124.197 167.995 114.418 169.131 106.396 165.998Z" fill="#E0BB58" stroke="#E0BB58"/>
<path d="M105.672 150.435C100.783 152.363 102.333 158.492 102.333 158.492C102.333 158.492 107.463 158.251 110.562 156.047C114.212 153.396 116.415 145.339 116.415 145.339C116.415 145.339 110.562 148.507 105.672 150.435Z" fill="#E0BB58" stroke="#E0BB58"/>
<path d="M135.663 46.9655C138.108 48.3083 141.138 51.8893 141.138 51.8893C141.138 51.8893 137.763 52.2336 135.663 51.8893C130.842 51.1318 124.507 45.6226 124.507 45.6226C124.507 45.6226 131.703 44.7618 135.663 46.9655Z" fill="#E0BB58" stroke="#E0BB58"/>
<path d="M141.482 57.2604C143.72 59.0164 146.957 62.1842 146.957 62.1842H141.482C136.386 62.1842 130.326 55.9175 130.326 55.9175C130.326 55.9175 137.591 54.1959 141.482 57.2604Z" fill="#E0BB58" stroke="#E0BB58"/>
<path d="M144.271 43.5564C145.58 46.8963 142.515 52.7153 142.515 52.7153C142.515 52.7153 139.416 48.549 138.418 45.3468C137.075 41.0772 137.832 33.7432 137.832 33.7432C137.832 33.7432 142.481 39.1146 144.271 43.5564Z" fill="#E0BB58" stroke="#E0BB58"/>
<path d="M133.184 34.7422C133.838 37.3246 133.184 41.663 133.184 41.663C133.184 41.663 128.88 37.8755 126.332 34.7422C123.784 31.6088 123.784 25.8242 123.784 25.8242C123.784 25.8242 131.876 29.5085 133.184 34.7422Z" fill="#E0BB58" stroke="#E0BB58"/>
<path d="M114.246 33.0549C111.147 31.0923 109.701 24.1025 109.701 24.1025C109.701 24.1025 114.694 25.1011 117.242 27.167C119.549 29.0608 121.925 33.5025 121.925 33.5025C121.925 33.5025 116.863 34.7077 114.246 33.0549Z" fill="#E0BB58" stroke="#E0BB58"/>
<path d="M119.239 37.2559C123.543 36.5672 129.982 40.3892 129.982 40.3892C129.982 40.3892 127.847 44.1768 122.544 42.8339C117.276 41.491 111.388 41.491 111.388 41.491C111.388 41.491 115.899 37.8068 119.239 37.2559Z" fill="#E0BB58" stroke="#E0BB58"/>
<path d="M122.131 33.3994C122.131 33.3994 163.209 57.984 152.432 108.427C141.689 158.905 98.6484 158.905 98.6484 158.905" stroke="#E0BB58"/>
<path d="M36.1884 58.6385C36.395 63.3212 39.1151 64.2165 39.1151 64.2165C39.1151 64.2165 40.4924 57.7432 41.6631 53.9557C42.8338 50.1681 37.9444 45.4854 37.9444 45.4854C37.9444 45.4854 36.0162 53.9557 36.1884 58.6385Z" fill="#E0BB58" stroke="#E0BB58"/>
<path d="M42.1449 75.8885C39.4592 77.7134 34.501 78.5742 34.501 78.5742C34.501 78.5742 37.0145 71.9976 39.9757 69.2086C43.1435 66.213 49.7545 64.7324 49.7545 64.7324C49.7545 64.7324 46.3112 73.065 42.1449 75.8885Z" fill="#E0BB58" stroke="#E0BB58"/>
<path d="M28.9919 74.3045C29.9904 78.7119 34.0879 84.3588 34.0879 84.3588C34.0879 84.3588 34.5699 77.2313 34.0879 72.7551C33.4337 67.1426 30.5414 58.8789 30.5414 58.8789C30.5414 58.8789 27.649 68.4166 28.9919 74.3045Z" fill="#E0BB58" stroke="#E0BB58"/>
<path d="M41.0088 92.3475C38.9773 95.5153 33.9846 98.3732 33.9846 98.3732C33.9846 98.3732 35.3963 91.2801 37.3245 87.2171C39.2183 83.1541 43.5912 77.8516 43.5912 77.8516C43.5912 77.8516 44.0044 87.6648 41.0088 92.3475Z" fill="#E0BB58" stroke="#E0BB58"/>
<path d="M27.6491 97.5121C29.9905 103.297 34.2945 103.297 34.2945 103.297C34.2945 103.297 33.3304 93.2425 29.9905 86.5627C26.6506 79.8484 23.9304 81.4323 23.9304 81.4323C23.9304 81.4323 25.2733 91.6931 27.6491 97.5121Z" fill="#E0BB58" stroke="#E0BB58"/>
<path d="M29.8526 117.345C32.986 120.34 39.4248 122.027 39.4248 122.027C39.4248 122.027 36.4981 113.557 32.986 108.392C29.4739 103.262 23.4138 101.919 23.4138 101.919C23.4138 101.919 25.3765 113.041 29.8526 117.345Z" fill="#E0BB58" stroke="#E0BB58"/>
<path d="M48.8248 151.537C53.0944 152.397 59.7742 149.539 59.7742 149.539C59.7742 149.539 52.5779 144.547 47.4475 142.825C43.2812 141.413 36.498 140.828 36.498 140.828C36.498 140.828 42.868 150.331 48.8248 151.537Z" fill="#E0BB58" stroke="#E0BB58"/>
<path d="M37.2901 135.525C41.0777 137.832 48.033 137.97 48.033 137.97C48.033 137.97 44.3487 133.183 41.5942 130.601C36.8769 126.194 27.9246 121.89 27.9246 121.89C27.9246 121.89 32.0909 132.323 37.2901 135.525Z" fill="#E0BB58" stroke="#E0BB58"/>
<path d="M42.6272 110.425C41.3876 113.799 38.1165 118.241 38.1165 118.241C38.1165 118.241 36.7048 107.085 39.2872 101.059C40.5268 98.1323 43.5913 94.3447 43.5913 94.3447C43.5913 94.3447 44.762 104.606 42.6272 110.425Z" fill="#E0BB58" stroke="#E0BB58"/>
<path d="M57.3985 137.041C58.0872 140.794 57.3985 146.854 57.3985 146.854C57.3985 146.854 53.37 142.584 51.9238 139.038C49.789 133.804 50.9597 124.301 50.9597 124.301C50.9597 124.301 56.3311 131.428 57.3985 137.041Z" fill="#E0BB58" stroke="#E0BB58"/>
<path d="M48.4118 124.679C48.343 128.948 46.4492 135.387 46.4492 135.387C46.4492 135.387 43.3158 129.121 42.7305 124.679C41.973 118.722 44.8653 109.494 44.8653 109.494C44.8653 109.494 48.4807 118.55 48.4118 124.679Z" fill="#E0BB58" stroke="#E0BB58"/>
<path d="M66.0755 161.556C69.4843 160.661 73.8917 156.632 73.8917 156.632C73.8917 156.632 69.2089 154.842 66.0755 154.394C60.0499 153.568 50.6155 156.632 50.6155 156.632C50.6155 156.632 59.981 163.175 66.0755 161.556Z" fill="#E0BB58" stroke="#E0BB58"/>
<path d="M71.2059 150.366C73.3407 155.289 71.2059 155.289 71.2059 155.289C71.2059 155.289 66.0755 153.258 63.9751 150.366C61.2205 146.578 61.4271 138.073 61.4271 138.073C61.4271 138.073 69.0711 145.442 71.2059 150.366Z" fill="#E0BB58" stroke="#E0BB58"/>
<path d="M81.3291 165.998C89.3518 162.865 87.0104 159.077 87.0104 159.077C87.0104 159.077 80.4682 159.353 76.4397 160.627C70.9994 162.348 63.5276 167.995 63.5276 167.995C63.5276 167.995 73.3063 169.131 81.3291 165.998Z" fill="#E0BB58" stroke="#E0BB58"/>
<path d="M82.0175 150.435C86.9069 152.363 85.3574 158.492 85.3574 158.492C85.3574 158.492 80.227 158.251 77.1281 156.047C73.4783 153.396 71.2747 145.339 71.2747 145.339C71.2747 145.339 77.1281 148.507 82.0175 150.435Z" fill="#E0BB58" stroke="#E0BB58"/>
<path d="M52.0616 46.9655C49.6169 48.3083 46.5869 51.8893 46.5869 51.8893C46.5869 51.8893 49.9613 52.2336 52.0616 51.8893C56.8821 51.1318 63.2177 45.6226 63.2177 45.6226C63.2177 45.6226 55.9869 44.7618 52.0616 46.9655Z" fill="#E0BB58" stroke="#E0BB58"/>
<path d="M46.2081 57.2604C43.97 59.0164 40.7334 62.1842 40.7334 62.1842H46.2081C51.3041 62.1842 57.3642 55.9175 57.3642 55.9175C57.3642 55.9175 50.1334 54.1959 46.2081 57.2604Z" fill="#E0BB58" stroke="#E0BB58"/>
<path d="M43.4534 43.5564C42.145 46.8963 45.2095 52.7153 45.2095 52.7153C45.2095 52.7153 48.3084 48.549 49.3069 45.3468C50.6498 41.0772 49.8923 33.7432 49.8923 33.7432C49.8923 33.7432 45.2095 39.1146 43.4534 43.5564Z" fill="#E0BB58" stroke="#E0BB58"/>
<path d="M54.5063 34.7422C53.8521 37.3246 54.5063 41.663 54.5063 41.663C54.5063 41.663 58.8104 37.8755 61.3583 34.7422C63.9063 31.6088 63.9063 25.8242 63.9063 25.8242C63.9063 25.8242 55.8492 29.5085 54.5063 34.7422Z" fill="#E0BB58" stroke="#E0BB58"/>
<path d="M73.4784 33.0549C76.5773 31.0923 78.0235 24.1025 78.0235 24.1025C78.0235 24.1025 73.0308 25.1011 70.4828 27.167C68.1759 29.0608 65.8 33.5025 65.8 33.5025C65.8 33.5025 70.8272 34.7077 73.4784 33.0549Z" fill="#E0BB58" stroke="#E0BB58"/>
<path d="M68.4858 37.2559C64.1817 36.5672 57.7429 40.3892 57.7429 40.3892C57.7429 40.3892 59.8777 44.1768 65.1803 42.8339C70.4484 41.491 76.3363 41.491 76.3363 41.491C76.3363 41.491 71.8257 37.8068 68.4858 37.2559Z" fill="#E0BB58" stroke="#E0BB58"/>
<path d="M65.5589 33.3994C65.5589 33.3994 24.4813 57.984 35.2586 108.427C46.0014 158.905 89.0417 158.905 89.0417 158.905" stroke="#E0BB58"/>
<path d="M93.7934 39.9414L95.6527 45.6227H101.61L96.789 49.1348L98.6483 54.8161L93.8278 51.304L89.0073 54.8161L90.8667 49.1348L86.0461 45.6227H92.0029L93.7934 39.9414Z" fill="#E0BB58"/>
<path d="M107.36 47.5166L108.53 51.1664H112.352L109.253 53.4045L110.424 57.0543L107.325 54.8162L104.226 57.0543L105.397 53.4045L102.298 51.1664H106.12L107.36 47.5166Z" fill="#E0BB58"/>
<path d="M80.3303 47.5166L79.1596 51.1664H75.3376L78.4365 53.4045L77.2658 57.0543L80.3647 54.8162L83.4637 57.0543L82.293 53.4045L85.3919 51.1664H81.5699L80.3303 47.5166Z" fill="#E0BB58"/>
<path d="M116.657 54.0586L117.827 57.7084H121.649L118.55 59.9465L119.721 63.5963L116.622 61.3582L113.523 63.5963L114.694 59.9465L111.595 57.7084H115.417L116.657 54.0586Z" fill="#E0BB58"/>
<path d="M71.3779 54.0586L70.2072 57.7084H66.3853L69.4842 59.9465L68.3135 63.5963L71.4124 61.3582L74.5113 63.5963L73.3406 59.9465L76.4395 57.7084H72.6175L71.3779 54.0586Z" fill="#E0BB58"/>
<path d="M82.4307 183.731L82.4651 183.352H82.5684C82.7406 183.386 82.9127 183.317 83.016 183.214C83.1537 183.111 83.2226 182.904 83.3259 182.629C83.3948 182.353 83.4636 182.009 83.5325 181.561L83.8424 179.323L86.4937 179.599L86.046 184.109L85.6329 184.075L86.046 179.943L84.2211 179.771L83.9457 181.733C83.8768 182.216 83.808 182.594 83.7047 182.904C83.6014 183.214 83.4636 183.455 83.2915 183.593C83.1193 183.731 82.8783 183.799 82.5684 183.765L82.4307 183.731Z" fill="#A47C38" stroke="#A47C38"/>
<path d="M33.5713 155.083L30.2314 158.148L28.4753 156.219L28.7508 155.978L30.2314 157.631L31.5054 156.495L30.0937 154.945L30.3691 154.704L31.7808 156.254L33.0548 155.118L31.5398 153.43L31.8153 153.189L33.5713 155.083Z" fill="#A47C38" stroke="#A47C38"/>
<path d="M91.0389 184.488H90.5913L92.2785 179.978H92.7261L94.31 184.523H93.8624L92.4851 180.528H92.4506L91.0389 184.488ZM91.3832 182.767L93.6213 182.801V183.18L91.3832 183.145V182.767Z" fill="#A47C38" stroke="#A47C38"/>
<path d="M39.5626 166.273L39.1838 165.963L40.4922 161.9L40.4578 161.866L36.6358 163.794L36.2571 163.484L39.2183 160.041L39.5281 160.282L37.1523 163.071L37.1867 163.105L40.7333 161.315L41.0087 161.556L39.7692 165.344L39.8036 165.378L42.1794 162.589L42.4893 162.83L39.5626 166.273Z" fill="#A47C38" stroke="#A47C38"/>
<path d="M75.0278 182.216L76.233 177.843L78.7809 178.566L78.6777 178.91L76.5429 178.325L76.0952 179.978L78.0923 180.528L77.989 180.873L75.9919 180.322L75.5443 181.975L77.7135 182.594L77.6102 182.939L75.0278 182.216Z" fill="#A47C38" stroke="#A47C38"/>
<path d="M68.4512 175.88L67.1772 180.046L68.7956 180.528C69.1399 180.632 69.4842 180.666 69.7597 180.632C70.0351 180.597 70.2761 180.494 70.4483 180.322C70.6205 180.149 70.7582 179.977 70.8271 179.736C70.8959 179.495 70.8959 179.254 70.8271 179.013C70.7582 178.772 70.6205 178.566 70.4139 178.393C70.2073 178.221 69.9318 178.084 69.5531 177.98L68.2791 177.601L68.1758 177.946L69.4498 178.325C69.7252 178.393 69.9318 178.497 70.0696 178.634C70.2073 178.772 70.3106 178.91 70.345 179.082C70.3794 179.254 70.3794 179.426 70.345 179.599C70.2761 179.771 70.2073 179.943 70.0696 180.046C69.9318 180.149 69.7597 180.253 69.5875 180.253C69.3809 180.287 69.1399 180.253 68.8989 180.184L67.7282 179.84L68.8989 176.018L68.4512 175.88Z" fill="#A47C38" stroke="#A47C38"/>
<path d="M68.4856 175.776L71.3435 176.637L71.2402 177.05L70.8959 176.981L69.2431 176.568L68.8644 176.465L68.3479 176.327L68.4856 175.776Z" fill="#A47C38" stroke="#A47C38"/>
<path d="M122.2 177.222L123.543 176.775C123.818 176.671 124.094 176.637 124.335 176.671C124.576 176.706 124.782 176.775 124.92 176.913C125.092 177.05 125.196 177.257 125.299 177.463C125.368 177.704 125.402 177.945 125.368 178.152C125.333 178.359 125.23 178.565 125.058 178.737C124.886 178.91 124.679 179.047 124.369 179.151L122.751 179.702L121.305 175.397L121.683 175.26L123.026 179.219L124.231 178.806C124.438 178.737 124.61 178.634 124.713 178.496C124.817 178.359 124.92 178.221 124.92 178.049C124.955 177.877 124.92 177.739 124.886 177.567C124.817 177.326 124.645 177.188 124.438 177.085C124.231 176.981 123.956 176.981 123.646 177.085L122.303 177.532L122.2 177.222Z" fill="#A47C38" stroke="#A47C38"/>
<path d="M21.9334 148.368L25.6521 145.751L25.8931 146.096L22.1745 148.712L21.9334 148.368ZM27.3049 148.161L24.4814 148.23L23.4829 150.606L23.2074 150.193L24.1715 147.989L23.2763 146.715L20.866 146.887L20.5906 146.474L23.173 146.337L24.206 143.72L24.4814 144.098L23.5517 146.44L24.5503 147.852L27.0638 147.783L27.3049 148.161Z" fill="#A47C38" stroke="#A47C38"/>
<path d="M21.4858 138.039L20.1773 138.727L20.0396 138.486C19.9019 138.452 19.7297 138.417 19.5231 138.417C19.3165 138.417 19.0755 138.452 18.8 138.555C18.5246 138.624 18.1803 138.762 17.8015 138.934L16.011 139.76L14.8059 137.453L18.4902 135.525L18.2491 135.043L19.5576 134.354L19.7297 134.699L18.7656 135.215L20.3151 138.176L21.2792 137.66L21.4858 138.039ZM19.7986 138.039L18.6623 135.904L15.3224 137.66L16.1832 139.278L17.6294 138.59C17.9392 138.452 18.2147 138.314 18.4902 138.245C18.7656 138.176 19.0066 138.108 19.2132 138.073C19.4198 138.039 19.6264 138.039 19.7986 138.039Z" fill="#A47C38" stroke="#A47C38"/>
<path d="M15.7354 128.811L15.3911 128.949L15.3223 128.742C15.2878 128.639 15.219 128.536 15.1501 128.467C15.0812 128.398 15.0124 128.363 14.9091 128.329C14.8058 128.295 14.7369 128.295 14.5992 128.295H14.3926L11.638 131.015L11.4658 130.602L13.8072 128.26L10.5362 128.226L10.364 127.812L14.4959 127.881C14.668 127.881 14.8058 127.916 14.9435 127.95C15.0812 127.985 15.1845 128.054 15.2878 128.157C15.3911 128.26 15.4944 128.398 15.5633 128.604L15.7354 128.811Z" fill="#A47C38" stroke="#A47C38"/>
<path d="M12.2923 120.065L7.88498 121.202L7.78168 120.788L9.77875 120.272L9.12454 117.793L7.12747 118.309L7.02417 117.896L11.3971 116.76L11.5004 117.173L9.46886 117.689L10.1231 120.169L12.1546 119.652L12.2923 120.065Z" fill="#A47C38" stroke="#A47C38"/>
<path d="M9.77874 109.701L9.8476 110.114L5.13039 109.081L5.06152 108.634L9.33112 106.396L9.39998 106.809L5.61244 108.806V108.84L9.77874 109.701ZM7.98826 109.632L7.67837 107.394L8.05713 107.36L8.36702 109.598L7.98826 109.632Z" fill="#A47C38" stroke="#A47C38"/>
<path d="M8.33266 100.301L3.78761 100.405L3.75317 98.9584C3.75317 98.6485 3.78761 98.373 3.92534 98.132C4.02863 97.9254 4.20079 97.7532 4.40739 97.6155C4.61398 97.5122 4.85501 97.4434 5.13046 97.4434C5.40592 97.4434 5.64695 97.4778 5.85354 97.5811C6.06013 97.6844 6.23229 97.8565 6.37002 98.0631C6.50775 98.2697 6.57662 98.5452 6.57662 98.8551L6.61105 99.9913H6.2323L6.19786 98.8551C6.19786 98.6141 6.129 98.4075 6.06013 98.2697C5.95684 98.132 5.85354 97.9943 5.68138 97.9254C5.50922 97.8565 5.33706 97.8221 5.1649 97.8221C4.9583 97.8221 4.78614 97.8565 4.64841 97.9598C4.51068 98.0287 4.37295 98.1664 4.30409 98.3042C4.23523 98.4763 4.16636 98.6485 4.20079 98.8895L4.23523 99.9225L8.40153 99.8192L8.33266 100.301Z" fill="#A47C38" stroke="#A47C38"/>
<path d="M6.33563 87.1481C6.81768 87.1825 7.19643 87.3203 7.54076 87.5269C7.88508 87.7335 8.12611 87.9745 8.29827 88.2844C8.47043 88.5943 8.53929 88.9386 8.50486 89.3173C8.47043 89.6961 8.3327 90.0404 8.12611 90.3159C7.91951 90.5913 7.60962 90.7979 7.2653 90.9357C6.88655 91.0734 6.47336 91.1078 6.02574 91.0734C5.54369 91.039 5.16493 90.9012 4.82061 90.6946C4.47629 90.488 4.23526 90.247 4.0631 89.9371C3.89094 89.6272 3.82208 89.2829 3.85651 88.9042C3.89094 88.5254 4.02867 88.1811 4.23526 87.9056C4.44186 87.6302 4.75175 87.4236 5.09607 87.2858C5.44039 87.1481 5.85358 87.0792 6.33563 87.1481ZM6.3012 87.5269C5.88801 87.4924 5.54369 87.5269 5.2338 87.6302C4.92391 87.7335 4.68288 87.9056 4.51072 88.1122C4.33856 88.3188 4.23526 88.5943 4.20083 88.9042C4.1664 89.214 4.23526 89.4551 4.37299 89.7305C4.51072 89.9716 4.71731 90.1781 4.99277 90.3503C5.26823 90.5225 5.61255 90.6258 6.02574 90.6602C6.43893 90.6946 6.78325 90.6602 7.09314 90.5569C7.40303 90.4536 7.64405 90.2814 7.81622 90.0748C7.98838 89.8683 8.09167 89.5928 8.12611 89.3173C8.16054 89.0074 8.09167 88.732 7.95394 88.491C7.81622 88.2499 7.60962 88.0433 7.33416 87.8712C7.05871 87.6646 6.71438 87.5613 6.3012 87.5269Z" fill="#A47C38" stroke="#A47C38"/>
<path d="M10.2264 81.1569L8.78023 80.847L8.84909 80.5716C8.78023 80.4338 8.6425 80.3305 8.50477 80.1928C8.33261 80.0551 8.12602 79.9518 7.88499 79.8141C7.60953 79.7108 7.26521 79.573 6.85202 79.4697L4.95825 78.9533L5.50917 76.4053L9.57217 77.3005L9.67547 76.784L11.0872 77.0939L11.0183 77.4727L9.95093 77.2317L9.22785 80.5027L10.2952 80.7437L10.2264 81.1569ZM8.95239 80.0895L9.46887 77.7137L5.78463 76.9218L5.40587 78.7122L6.95532 79.1254C7.29964 79.2287 7.5751 79.2976 7.85056 79.4009C8.09159 79.5042 8.33261 79.6075 8.50477 79.7108C8.67693 79.8141 8.81466 79.9518 8.95239 80.0895Z" fill="#A47C38" stroke="#A47C38"/>
<path d="M11.3626 70.1388L7.09302 68.6238L7.23075 68.2451L9.19338 68.9337L10.0542 66.5235L8.09155 65.8348L8.22928 65.4561L12.4989 66.9711L12.3611 67.3498L10.3985 66.6612L9.53771 69.0714L11.5003 69.7601L11.3626 70.1388Z" fill="#A47C38" stroke="#A47C38"/>
<path d="M15.1847 60.3597L14.9781 60.7385L11.6382 57.2608L11.8448 56.8477L16.6309 57.3641L16.4243 57.7429L12.2235 57.2608V57.2953L15.1847 60.3597ZM13.773 59.2923L14.7715 57.2608L15.1158 57.433L14.1173 59.4645L13.773 59.2923Z" fill="#A47C38" stroke="#A47C38"/>
<path d="M21.0727 49.3412L20.8661 49.6855L17.354 47.4474L16.8031 48.3082C16.6653 48.5148 16.5965 48.687 16.5965 48.8591C16.5965 49.0313 16.6309 49.2034 16.6998 49.3412C16.7686 49.4789 16.9063 49.6166 17.0785 49.7199C17.2507 49.8232 17.4228 49.8921 17.5606 49.8921C17.7327 49.8921 17.8705 49.8577 18.0426 49.7888C18.1803 49.6855 18.3181 49.5478 18.4558 49.3412L19.11 48.3082L19.4199 48.5148L18.7657 49.5478C18.5935 49.8232 18.3869 49.9954 18.1803 50.1331C17.9737 50.2364 17.7327 50.3053 17.5261 50.3053C17.2851 50.3053 17.0785 50.202 16.8375 50.0642C16.6309 49.9265 16.4587 49.7544 16.321 49.5478C16.2177 49.3412 16.1488 49.1346 16.1833 48.8936C16.2177 48.6525 16.2866 48.3771 16.4587 48.136L17.2507 46.8965L21.0727 49.3412ZM18.2836 49.9265L18.5247 49.5478L19.6609 51.5793L19.4199 51.9925L18.2836 49.9265Z" fill="#A47C38" stroke="#A47C38"/>
<path d="M27.0982 33.5713L30.4381 36.6358L30.1627 36.9456L27.0982 34.1222L25.4454 35.9127L28.5099 38.7361L28.2345 39.046L24.8945 35.9815L27.0982 33.5713Z" fill="#A47C38" stroke="#A47C38"/>
<path d="M34.811 31.8845L31.8499 28.4758L32.9517 27.5117C33.1927 27.3051 33.4337 27.1673 33.6748 27.1329C33.9158 27.0985 34.1568 27.0985 34.3634 27.2018C34.57 27.3051 34.7766 27.4428 34.9488 27.6149C35.1209 27.8215 35.2242 28.0281 35.2931 28.2692C35.3619 28.5102 35.3275 28.7168 35.2586 28.9578C35.1898 29.1988 35.0176 29.4054 34.7766 29.612L33.9158 30.3695L33.6748 30.0941L34.5356 29.3366C34.7077 29.1644 34.8455 29.0267 34.8799 28.8545C34.9488 28.6823 34.9488 28.5102 34.9143 28.338C34.8799 28.1659 34.7766 28.0281 34.6733 27.856C34.5356 27.7182 34.3978 27.6149 34.2257 27.5461C34.0535 27.4772 33.8814 27.4772 33.7092 27.5117C33.537 27.5461 33.3649 27.6494 33.1583 27.7871L32.3663 28.4758L35.0865 31.6091L34.811 31.8845Z" fill="#A47C38" stroke="#A47C38"/>
<path d="M41.6974 25.8243L39.115 22.1056L41.2842 20.625L41.4908 20.9349L39.6659 22.2089L40.63 23.6206L42.3516 22.4499L42.5582 22.7598L40.8366 23.9305L41.8007 25.3422L43.66 24.0682L43.8666 24.3781L41.6974 25.8243Z" fill="#A47C38" stroke="#A47C38"/>
<path d="M47.4475 16.459L47.8607 16.2524L51.1318 18.9725L51.1662 18.9381L50.7874 14.6685L51.2006 14.4619L53.301 18.4905L52.9567 18.6626L51.2695 15.426H51.2351L51.5794 19.3857L51.2351 19.5579L48.1706 17.0099H48.1362L49.8233 20.2465L49.479 20.4187L47.4475 16.459Z" fill="#A47C38" stroke="#A47C38"/>
<path d="M58.5002 10.949L58.879 10.8113L60.1874 14.3922H60.2219L61.427 9.91605L61.8057 9.77832L63.3896 14.0135L63.0109 14.1512L61.7024 10.6047H61.668L60.4629 15.0809L60.0841 15.2186L58.5002 10.949Z" fill="#A47C38" stroke="#A47C38"/>
<path d="M72.8242 11.1212L72.4111 11.2245L71.447 7.19592L70.4484 7.43694C70.2074 7.50581 70.0352 7.57467 69.8975 7.67797C69.7598 7.78127 69.6909 7.919 69.6221 8.09116C69.5876 8.26332 69.5876 8.43548 69.6221 8.60764C69.6565 8.81423 69.7598 8.95196 69.8631 9.08969C69.9664 9.22742 70.1041 9.29628 70.2763 9.33072C70.4484 9.36515 70.655 9.36515 70.8616 9.29628L72.0667 9.02083L72.17 9.39958L70.9649 9.67504C70.655 9.7439 70.3796 9.7439 70.1385 9.70947C69.8975 9.64061 69.6909 9.53731 69.5532 9.36515C69.4155 9.19299 69.2777 8.98639 69.2433 8.71094C69.1744 8.46991 69.1744 8.22889 69.2433 7.98786C69.3122 7.74683 69.4155 7.57467 69.6221 7.40251C69.7942 7.23035 70.0697 7.12705 70.3796 7.05819L71.7913 6.71387L72.8242 11.1212ZM70.414 9.60617L70.8616 9.50288L70.2763 11.741L69.8286 11.8443L70.414 9.60617Z" fill="#A47C38" stroke="#A47C38"/>
<path d="M86.2873 8.71158C86.0118 8.71158 85.7708 8.67714 85.5298 8.60828C85.2887 8.50498 85.1166 8.40169 84.9788 8.22952C84.8411 8.05736 84.7723 7.85077 84.7378 7.60974L85.151 7.57531C85.1854 7.74747 85.2199 7.8852 85.3232 7.9885C85.4265 8.0918 85.5642 8.19509 85.7019 8.26396C85.8741 8.33282 86.0462 8.33282 86.2184 8.33282C86.425 8.33282 86.5972 8.26396 86.7693 8.19509C86.9415 8.0918 87.0448 7.9885 87.1136 7.85077C87.1825 7.71304 87.2169 7.54088 87.2169 7.36872C87.2169 7.19656 87.1481 7.0244 87.0448 6.88667C86.9415 6.74894 86.8038 6.64564 86.6316 6.57678C86.4594 6.50791 86.2528 6.47348 86.0118 6.50791H85.7364L85.7019 6.12916H85.9774C86.184 6.12916 86.3561 6.06029 86.4939 5.99143C86.6316 5.92256 86.7693 5.81927 86.8382 5.68154C86.907 5.54381 86.9415 5.40608 86.9415 5.23392C86.9415 5.06176 86.8726 4.92403 86.8038 4.7863C86.7349 4.64857 86.5972 4.57971 86.4594 4.51084C86.3217 4.44198 86.1495 4.40755 85.9774 4.44198C85.8052 4.44198 85.6331 4.51084 85.4953 4.57971C85.3576 4.64857 85.2543 4.75187 85.151 4.8896C85.0821 5.02733 85.0477 5.16506 85.0477 5.33722L84.6345 5.37165C84.6345 5.13062 84.669 4.92403 84.8067 4.75187C84.91 4.57971 85.0821 4.40755 85.2887 4.30425C85.4953 4.20095 85.7019 4.13209 85.9774 4.09766C86.2528 4.09766 86.4939 4.13209 86.666 4.23539C86.8726 4.33868 87.0103 4.47641 87.1481 4.64857C87.2514 4.82073 87.3202 5.02733 87.3547 5.23392C87.3547 5.47495 87.3202 5.71597 87.1825 5.92257C87.0448 6.12916 86.8726 6.26689 86.6316 6.33575V6.37018C86.9071 6.40462 87.1481 6.54235 87.3202 6.71451C87.4924 6.88667 87.5957 7.12769 87.5957 7.43758C87.5957 7.67861 87.5613 7.8852 87.458 8.0918C87.3547 8.29839 87.1825 8.43612 86.9759 8.57385C86.8038 8.64271 86.5627 8.71158 86.2873 8.71158Z" fill="#A47C38" stroke="#A47C38"/>
<path d="M94.4132 8.2633L93.9656 8.22887L95.8593 3.78711L96.307 3.82154L97.7187 8.43546L97.2711 8.40103L96.0659 4.33803H96.0315L94.4132 8.2633ZM94.8264 6.54169L97.0645 6.64498L97.03 7.02374L94.7919 6.92044L94.8264 6.54169Z" fill="#A47C38" stroke="#A47C38"/>
<path d="M109.116 9.46904L109.219 9.09028L109.322 9.12471C109.494 9.15914 109.667 9.12471 109.804 9.05585C109.942 8.95255 110.08 8.78039 110.183 8.53936C110.286 8.29834 110.424 7.91958 110.527 7.5064L111.113 5.30273L113.695 5.92252L112.662 10.3298L112.249 10.2265L113.179 6.16354L111.388 5.75035L110.872 7.67856C110.734 8.12618 110.596 8.50493 110.459 8.81482C110.321 9.12471 110.149 9.33131 109.942 9.4346C109.736 9.57233 109.494 9.57233 109.219 9.50347L109.116 9.46904Z" fill="#A47C38" stroke="#A47C38"/>
<path d="M118.757 11.9477L118.895 11.5689L119.101 11.6378C119.204 11.6722 119.342 11.7066 119.411 11.6722C119.514 11.6722 119.583 11.6378 119.652 11.5689C119.721 11.5345 119.79 11.4656 119.893 11.3623L120.031 11.2246L119.755 7.36816L120.169 7.57476L120.41 10.8803L122.579 8.43556L122.992 8.57329L120.237 11.6722C120.134 11.8099 120.031 11.8788 119.893 11.9821C119.79 12.0509 119.652 12.1198 119.514 12.1198C119.377 12.1198 119.204 12.1198 118.998 12.0509L118.757 11.9477Z" fill="#A47C38" stroke="#A47C38"/>
<path d="M129.569 10.9492L129.947 11.1214L129.293 12.4642C129.19 12.6708 129.155 12.8774 129.155 13.0152C129.155 13.1873 129.224 13.325 129.328 13.4628C129.431 13.6005 129.603 13.7038 129.775 13.8071C129.878 13.876 129.982 13.9104 130.119 13.9448C130.223 13.9793 130.326 14.0137 130.464 14.0481C130.567 14.0826 130.705 14.117 130.808 14.117C130.911 14.1514 131.049 14.1514 131.152 14.1858L130.98 14.5302C130.877 14.5302 130.739 14.4957 130.636 14.4613C130.533 14.4269 130.429 14.4269 130.292 14.3924C130.188 14.358 130.085 14.3236 129.982 14.2891C129.878 14.2547 129.741 14.1858 129.637 14.1514C129.362 14.0137 129.155 13.876 128.983 13.6694C128.845 13.4972 128.742 13.2906 128.742 13.0496C128.742 12.8086 128.777 12.5675 128.914 12.2921L129.569 10.9492ZM132.048 12.1543L132.426 12.3265L130.464 16.3895L130.085 16.2174L132.048 12.1543Z" fill="#A47C38" stroke="#A47C38"/>
<path d="M138.349 15.4941L138.693 15.7352L136.455 19.2128L137.867 20.1425L140.105 16.6648L140.449 16.9059L138.211 20.3835L139.623 21.3132L141.861 17.8355L142.205 18.0421L139.76 21.8297L135.904 19.2817L138.349 15.4941Z" fill="#A47C38" stroke="#A47C38"/>
<path d="M149.126 22.4502L149.436 22.7257L146.957 25.618L146.991 25.6524L151.502 24.5161L151.812 24.7916L148.885 28.2348L148.575 27.9594L151.02 25.067L150.985 25.0326L146.475 26.1689L146.165 25.8934L149.126 22.4502Z" fill="#A47C38" stroke="#A47C38"/>
<path d="M154.05 32.8479L157.355 29.749L159.146 31.6772L158.87 31.9183L157.355 30.2999L156.116 31.4706L157.527 32.9857L157.252 33.2267L155.84 31.7117L154.601 32.8824L156.15 34.5351L155.875 34.7761L154.05 32.8479Z" fill="#A47C38" stroke="#A47C38"/>
<path d="M167.375 42.0757L167.685 41.8691L169.441 44.6237L169.131 44.8303L168.374 43.6252L164.862 45.8633L164.655 45.519L168.167 43.2809L167.375 42.0757Z" fill="#A47C38" stroke="#A47C38"/>
<path d="M172.54 54.7126C172.127 54.9192 171.713 55.0225 171.335 55.0225C170.956 55.0225 170.612 54.9192 170.302 54.747C169.992 54.5749 169.785 54.2994 169.613 53.9551C169.441 53.6108 169.372 53.2664 169.441 52.9221C169.475 52.5778 169.613 52.2335 169.854 51.958C170.095 51.6481 170.439 51.4071 170.853 51.2005C171.266 50.9939 171.679 50.8906 172.058 50.8906C172.437 50.8906 172.781 50.9939 173.091 51.1661C173.401 51.3382 173.642 51.6137 173.779 51.958C173.952 52.3023 174.02 52.6467 173.952 52.991C173.917 53.3353 173.779 53.6796 173.538 53.9551C173.297 54.265 172.953 54.506 172.54 54.7126ZM172.368 54.3338C172.746 54.1617 173.022 53.9551 173.228 53.6796C173.435 53.4386 173.538 53.1632 173.573 52.8877C173.607 52.6122 173.573 52.3368 173.435 52.0613C173.297 51.7859 173.125 51.5793 172.884 51.4415C172.643 51.3038 172.368 51.2349 172.058 51.2349C171.748 51.2349 171.404 51.3382 171.025 51.5104C170.646 51.6826 170.371 51.8892 170.164 52.1646C169.957 52.4056 169.854 52.6811 169.82 52.9566C169.785 53.232 169.82 53.5075 169.957 53.7829C170.095 54.0584 170.267 54.265 170.508 54.4027C170.749 54.5404 171.025 54.6093 171.335 54.6093C171.645 54.6093 171.989 54.5404 172.368 54.3338Z" fill="#A47C38" stroke="#A47C38"/>
<path d="M173.435 62.047L177.705 60.5664L178.221 62.0126C178.324 62.288 178.359 62.529 178.324 62.7701C178.29 62.9767 178.221 63.1833 178.083 63.321C177.946 63.4587 177.774 63.5964 177.567 63.6653C177.395 63.7342 177.223 63.7342 177.085 63.7342C176.947 63.7342 176.809 63.6653 176.706 63.5964C176.603 63.5276 176.5 63.4243 176.431 63.321H176.396C176.431 63.4587 176.431 63.5964 176.396 63.7686C176.362 63.9408 176.258 64.0785 176.155 64.2162C176.017 64.354 175.845 64.4572 175.639 64.5261C175.432 64.595 175.226 64.6294 175.019 64.595C174.812 64.5605 174.64 64.4572 174.468 64.2851C174.296 64.1129 174.158 63.8719 174.055 63.562L173.435 62.047ZM173.952 62.3225L174.33 63.4587C174.434 63.803 174.606 64.0096 174.812 64.1129C175.019 64.2162 175.226 64.2507 175.432 64.1474C175.604 64.0785 175.742 64.0096 175.845 63.8719C175.949 63.7342 176.017 63.5964 176.052 63.4243C176.086 63.2521 176.052 63.08 175.983 62.8734L175.57 61.7371L173.952 62.3225ZM175.914 61.6338L176.293 62.7356C176.362 62.9078 176.431 63.0455 176.568 63.1488C176.672 63.2521 176.809 63.321 176.947 63.3554C177.085 63.3899 177.257 63.3554 177.395 63.321C177.636 63.2521 177.774 63.1144 177.877 62.9078C177.98 62.7012 177.98 62.4602 177.877 62.1847L177.498 61.1173L175.914 61.6338Z" fill="#A47C38" stroke="#A47C38"/>
<path d="M176.568 70.9649L176.465 70.5518L181.251 71.1371L181.354 71.5847L177.291 74.2016L177.188 73.7884L180.769 71.5159V71.4814L176.568 70.9649ZM178.359 70.8617L178.875 73.0653L178.497 73.1342L177.98 70.9305L178.359 70.8617Z" fill="#A47C38" stroke="#A47C38"/>
<path d="M178.462 80.089L182.973 79.5381L183.145 80.9842C183.179 81.2941 183.145 81.5696 183.042 81.8106C182.938 82.0516 182.801 82.2238 182.594 82.3615C182.387 82.4993 182.181 82.5681 181.905 82.6026C181.63 82.637 181.389 82.6026 181.182 82.5337C180.976 82.4648 180.769 82.2927 180.631 82.1205C180.494 81.9139 180.39 81.6729 180.356 81.3286L180.218 80.1923L180.597 80.1579L180.735 81.2941C180.769 81.5352 180.838 81.7073 180.941 81.8795C181.045 82.0172 181.182 82.1205 181.354 82.1894C181.527 82.2582 181.699 82.2582 181.905 82.2582C182.112 82.2238 182.284 82.1894 182.422 82.0861C182.56 81.9828 182.663 81.845 182.732 81.7073C182.801 81.5352 182.835 81.3286 182.801 81.0875L182.663 80.0546L178.531 80.5366L178.462 80.089Z" fill="#A47C38" stroke="#A47C38"/>
<path d="M98.7173 184.144L98.5452 179.633L99.9913 179.564C100.301 179.564 100.577 179.599 100.818 179.702C101.024 179.805 101.196 179.978 101.334 180.184C101.437 180.391 101.506 180.632 101.541 180.873C101.541 181.148 101.506 181.389 101.403 181.596C101.3 181.803 101.162 181.975 100.921 182.112C100.714 182.25 100.439 182.319 100.129 182.319L98.9928 182.353V181.975L100.129 181.94C100.37 181.94 100.577 181.871 100.714 181.768C100.852 181.665 100.99 181.562 101.059 181.389C101.128 181.217 101.162 181.045 101.162 180.873C101.162 180.666 101.093 180.494 101.024 180.356C100.955 180.219 100.818 180.081 100.646 180.012C100.473 179.943 100.301 179.909 100.06 179.909L99.0272 179.943L99.1994 184.11L98.7173 184.144Z" fill="#A47C38" stroke="#A47C38"/>
<path d="M182.319 89.4893V90.901C182.319 91.2109 182.284 91.452 182.181 91.6586C182.078 91.8652 181.94 92.0373 181.768 92.1406C181.596 92.2439 181.355 92.3128 181.114 92.3128C180.838 92.3128 180.632 92.2439 180.425 92.1406C180.218 92.0373 180.081 91.8652 179.977 91.6586C179.874 91.452 179.805 91.1765 179.805 90.901V89.2139H184.35V89.627H180.184V90.901C180.184 91.1076 180.218 91.3142 180.322 91.452C180.391 91.5897 180.528 91.7274 180.666 91.7963C180.804 91.8651 180.976 91.8996 181.148 91.8996C181.389 91.8996 181.596 91.7963 181.768 91.6241C181.94 91.452 182.009 91.2109 182.009 90.8666V89.4549L182.319 89.4893ZM184.316 93.2769H179.771V92.8637H184.316V93.2769Z" fill="#A47C38" stroke="#A47C38"/>
<path d="M183.696 106.534L183.627 106.947L179.909 106.224V106.258L183.145 109.598L183.076 109.977L178.635 109.116L178.703 108.703L182.422 109.426V109.392L179.185 106.052L179.254 105.673L183.696 106.534Z" fill="#A47C38" stroke="#A47C38"/>
<path d="M175.226 121.821L175.57 121.959L175.501 122.166C175.467 122.269 175.432 122.372 175.432 122.476C175.432 122.579 175.467 122.648 175.501 122.751C175.536 122.82 175.604 122.923 175.673 122.992L175.811 123.13L179.667 122.992L179.495 123.405L176.19 123.508L178.566 125.747L178.393 126.16L175.398 123.302C175.295 123.199 175.191 123.061 175.122 122.958C175.053 122.854 175.019 122.717 174.985 122.579C174.985 122.441 175.019 122.269 175.088 122.062L175.226 121.821Z" fill="#A47C38" stroke="#A47C38"/>
<path d="M173.022 134.836L173.228 134.458C173.366 134.492 173.538 134.527 173.676 134.527C173.814 134.527 173.986 134.492 174.124 134.423C174.261 134.354 174.399 134.286 174.537 134.182C174.675 134.079 174.743 133.941 174.847 133.769C174.985 133.528 175.053 133.253 175.019 132.977C174.985 132.702 174.881 132.426 174.709 132.185C174.537 131.91 174.261 131.703 173.883 131.497C173.504 131.29 173.16 131.187 172.85 131.187C172.54 131.187 172.264 131.221 171.989 131.359C171.748 131.497 171.576 131.703 171.438 131.944C171.369 132.116 171.3 132.254 171.266 132.426C171.231 132.598 171.231 132.736 171.266 132.908C171.3 133.046 171.335 133.218 171.438 133.321C171.507 133.459 171.61 133.562 171.748 133.666L171.541 134.044C171.369 133.907 171.231 133.769 171.128 133.597C171.025 133.425 170.956 133.253 170.887 133.046C170.853 132.839 170.818 132.633 170.853 132.426C170.887 132.22 170.956 132.013 171.059 131.772C171.231 131.428 171.472 131.187 171.782 131.014C172.092 130.842 172.437 130.773 172.815 130.773C173.194 130.808 173.607 130.911 174.02 131.152C174.434 131.359 174.743 131.634 174.985 131.944C175.226 132.254 175.329 132.598 175.363 132.943C175.398 133.287 175.329 133.631 175.122 133.976C175.019 134.182 174.881 134.354 174.709 134.492C174.537 134.63 174.365 134.733 174.193 134.802C173.986 134.871 173.814 134.905 173.607 134.905C173.435 134.94 173.228 134.905 173.022 134.836Z" fill="#A47C38" stroke="#A47C38"/>
<path d="M116.863 178.221L116.45 178.325C116.381 178.187 116.278 178.049 116.174 177.946C116.071 177.842 115.933 177.774 115.795 177.705C115.658 177.636 115.486 177.601 115.348 177.601C115.176 177.601 115.004 177.601 114.831 177.67C114.556 177.739 114.315 177.911 114.143 178.118C113.971 178.325 113.833 178.6 113.798 178.91C113.73 179.22 113.764 179.599 113.902 179.977C114.005 180.39 114.177 180.7 114.418 180.941C114.625 181.182 114.866 181.32 115.141 181.423C115.417 181.492 115.692 181.492 115.968 181.423C116.14 181.389 116.278 181.286 116.415 181.217C116.553 181.114 116.656 181.01 116.76 180.873C116.863 180.735 116.897 180.597 116.966 180.459C117.001 180.322 117.035 180.149 117.001 180.012L117.414 179.908C117.448 180.115 117.414 180.322 117.379 180.528C117.345 180.735 117.242 180.907 117.138 181.079C117.035 181.251 116.897 181.389 116.725 181.527C116.553 181.664 116.346 181.768 116.105 181.837C115.727 181.94 115.382 181.94 115.038 181.837C114.694 181.733 114.418 181.527 114.143 181.251C113.902 180.976 113.695 180.597 113.557 180.149C113.42 179.702 113.385 179.289 113.454 178.91C113.523 178.531 113.661 178.221 113.902 177.946C114.143 177.67 114.418 177.498 114.797 177.395C115.038 177.326 115.245 177.292 115.451 177.326C115.658 177.326 115.864 177.395 116.037 177.464C116.209 177.533 116.381 177.67 116.553 177.808C116.656 177.877 116.76 178.015 116.863 178.221Z" fill="#A47C38" stroke="#A47C38"/>
<path d="M166.996 139.312L167.306 139.519L167.237 139.622C167.134 139.76 167.1 139.932 167.134 140.104C167.169 140.277 167.306 140.449 167.478 140.655C167.685 140.862 167.96 141.103 168.305 141.378L170.13 142.756L168.615 144.925L164.896 142.343L165.137 141.998L168.546 144.374L169.613 142.859L168.029 141.654C167.651 141.378 167.341 141.103 167.134 140.862C166.927 140.621 166.79 140.38 166.755 140.173C166.721 139.932 166.79 139.726 166.962 139.45L166.996 139.312Z" fill="#A47C38" stroke="#A47C38"/>
<path d="M160.833 147.542L161.109 147.783L160.971 147.955C160.902 148.058 160.833 148.127 160.799 148.231C160.764 148.334 160.764 148.403 160.799 148.506C160.799 148.609 160.833 148.678 160.902 148.782L161.005 148.954L164.689 150.124L164.38 150.469L161.212 149.47L162.692 152.397L162.417 152.741L160.558 149.023C160.489 148.885 160.42 148.747 160.42 148.609C160.385 148.472 160.385 148.334 160.42 148.196C160.454 148.058 160.558 147.921 160.695 147.749L160.833 147.542Z" fill="#A47C38" stroke="#A47C38"/>
<path d="M107.015 183.524L106.947 183.145L107.153 183.111C107.291 183.077 107.394 183.042 107.463 183.008C107.532 182.939 107.601 182.87 107.635 182.801C107.67 182.732 107.704 182.629 107.739 182.526L107.773 182.319L105.638 179.082L106.086 179.014L107.911 181.768L108.599 178.566L109.047 178.497L108.152 182.56C108.117 182.732 108.083 182.87 108.014 182.973C107.945 183.111 107.876 183.214 107.739 183.283C107.635 183.352 107.463 183.421 107.257 183.455L107.015 183.524Z" fill="#A47C38" stroke="#A47C38"/>
<path d="M156.254 159.525L156.012 159.249L157.665 157.734L154.842 154.67L155.152 154.395L158.216 157.734L156.254 159.525Z" fill="#A47C38" stroke="#A47C38"/>
<path d="M150.641 164.552L150.297 164.793L148.059 161.694L148.024 161.728L148.059 166.377L147.749 166.618L145.097 162.933L145.442 162.692L147.645 165.757L147.68 165.722L147.645 161.074L147.955 160.833L150.641 164.552Z" fill="#A47C38" stroke="#A47C38"/>
<path d="M77.4724 121.063C77.5413 122.234 78.3332 122.475 78.3332 122.475C78.3332 122.475 78.712 120.857 79.0563 119.893C79.4006 118.929 77.9889 117.758 77.9889 117.758C77.9889 117.758 77.4036 119.893 77.4724 121.063Z" stroke="#E0BB58"/>
<path d="M78.9876 125.403C78.2301 125.85 76.7839 126.091 76.7839 126.091C76.7839 126.091 77.507 124.438 78.3678 123.715C79.2631 122.958 81.1913 122.579 81.1913 122.579C81.1913 122.579 80.1927 124.679 78.9876 125.403Z" stroke="#E0BB58"/>
<path d="M75.1655 124.748C75.441 125.85 76.6117 127.296 76.6117 127.296C76.6117 127.296 76.7494 125.506 76.6117 124.369C76.4395 122.958 75.6131 120.892 75.6131 120.892C75.6131 120.892 74.7867 123.267 75.1655 124.748Z" stroke="#E0BB58"/>
<path d="M78.8154 129.328C78.2301 130.12 76.7839 130.843 76.7839 130.843C76.7839 130.843 77.1971 129.052 77.748 128.019C78.299 126.986 79.5385 125.644 79.5385 125.644C79.5385 125.644 79.6762 128.157 78.8154 129.328Z" stroke="#E0BB58"/>
<path d="M74.7525 130.808C75.4411 132.254 76.6807 132.254 76.6807 132.254C76.6807 132.254 76.4052 129.706 75.4411 128.019C74.477 126.331 73.6851 126.71 73.6851 126.71C73.6851 126.71 74.0638 129.327 74.7525 130.808Z" stroke="#E0BB58"/>
<path d="M75.5444 135.766C76.4396 136.523 78.299 136.937 78.299 136.937C78.299 136.937 77.4382 134.802 76.4396 133.493C75.4411 132.185 73.6851 131.875 73.6851 131.875C73.6851 131.875 74.2704 134.664 75.5444 135.766Z" stroke="#E0BB58"/>
<path d="M81.0189 144.203C82.2585 144.409 84.1867 143.686 84.1867 143.686C84.1867 143.686 82.1208 142.447 80.6402 141.999C79.435 141.655 77.4724 141.482 77.4724 141.482C77.4724 141.482 79.2973 143.927 81.0189 144.203Z" stroke="#E0BB58"/>
<path d="M77.748 140.483C78.8498 141.069 80.8469 141.103 80.8469 141.103C80.8469 141.103 79.7795 139.898 78.9875 139.244C77.6102 138.142 75.0623 137.04 75.0623 137.04C75.0623 137.04 76.2674 139.657 77.748 140.483Z" stroke="#E0BB58"/>
<path d="M79.2285 133.873C78.8842 134.733 77.9201 135.835 77.9201 135.835C77.9201 135.835 77.5069 133.012 78.2644 131.497C78.6087 130.774 79.504 129.81 79.504 129.81C79.504 129.81 79.8483 132.392 79.2285 133.873Z" stroke="#E0BB58"/>
<path d="M83.567 140.587C83.7736 141.517 83.567 143.066 83.567 143.066C83.567 143.066 82.3963 141.999 81.9831 141.103C81.3634 139.795 81.7077 137.385 81.7077 137.385C81.7077 137.385 83.2571 139.175 83.567 140.587Z" stroke="#E0BB58"/>
<path d="M80.8468 137.419C80.8468 138.486 80.2959 140.104 80.2959 140.104C80.2959 140.104 79.4006 138.52 79.2285 137.419C79.0219 135.938 79.8482 133.597 79.8482 133.597C79.8482 133.597 80.8812 135.869 80.8468 137.419Z" stroke="#E0BB58"/>
<path d="M86.0462 146.784C87.0104 146.543 88.2843 145.545 88.2843 145.545C88.2843 145.545 86.9415 145.097 86.0462 144.994C84.3246 144.787 81.6045 145.545 81.6045 145.545C81.6045 145.545 84.2902 147.197 86.0462 146.784Z" stroke="#E0BB58"/>
<path d="M87.5268 143.927C88.1466 145.167 87.5268 145.167 87.5268 145.167C87.5268 145.167 86.0463 144.65 85.4609 143.927C84.669 142.963 84.7378 140.828 84.7378 140.828C84.7378 140.828 86.9071 142.687 87.5268 143.927Z" stroke="#E0BB58"/>
<path d="M90.5222 148.093C92.8292 147.301 92.1406 146.337 92.1406 146.337C92.1406 146.337 90.2468 146.406 89.1105 146.716C87.5611 147.163 85.3918 148.575 85.3918 148.575C85.3918 148.575 88.2153 148.885 90.5222 148.093Z" stroke="#E0BB58"/>
<path d="M90.5567 144.202C91.9684 144.684 91.5208 146.233 91.5208 146.233C91.5208 146.233 90.0402 146.164 89.1449 145.613C88.0775 144.959 87.4578 142.928 87.4578 142.928C87.4578 142.928 89.1449 143.72 90.5567 144.202Z" stroke="#E0BB58"/>
<path d="M81.8109 118.137C81.1223 118.481 80.2271 119.377 80.2271 119.377C80.2271 119.377 81.1912 119.446 81.8109 119.377C83.1882 119.17 85.0131 117.793 85.0131 117.793C85.0131 117.793 82.9472 117.586 81.8109 118.137Z" stroke="#E0BB58"/>
<path d="M80.4337 120.616C79.7795 121.064 78.8499 121.856 78.8499 121.856H80.4337C81.8799 121.856 83.6359 120.272 83.6359 120.272C83.6359 120.272 81.5356 119.858 80.4337 120.616Z" stroke="#E0BB58"/>
<path d="M79.6418 117.138C79.263 117.965 80.1582 119.445 80.1582 119.445C80.1582 119.445 81.0535 118.412 81.3289 117.586C81.7077 116.519 81.5011 114.659 81.5011 114.659C81.5011 114.659 80.1238 116.002 79.6418 117.138Z" stroke="#E0BB58"/>
<path d="M82.7062 114.832C82.534 115.486 82.7062 116.588 82.7062 116.588C82.7062 116.588 83.9457 115.624 84.6688 114.832C85.3919 114.04 85.3919 112.594 85.3919 112.594C85.3919 112.594 83.1193 113.523 82.7062 114.832Z" stroke="#E0BB58"/>
<path d="M86.7693 115.383C85.5298 115.211 83.6704 116.175 83.6704 116.175C83.6704 116.175 84.2902 117.139 85.8052 116.795C87.3202 116.45 89.0074 116.45 89.0074 116.45C89.0074 116.45 87.7334 115.521 86.7693 115.383Z" stroke="#E0BB58"/>
<path d="M85.6674 114.625C85.6674 114.625 86.2871 113.833 86.6659 113.385C87.4234 112.49 89.2139 112.249 89.2139 112.249C89.2139 112.249 88.6285 114.212 87.5956 114.625C86.9069 114.9 85.6674 114.625 85.6674 114.625ZM85.6674 114.625C85.6674 114.625 73.8571 120.823 76.956 133.528C80.0549 146.234 92.4161 146.234 92.4161 146.234" stroke="#E0BB58"/>
<path d="M110.08 121.063C110.011 122.234 109.219 122.475 109.219 122.475C109.219 122.475 108.84 120.857 108.496 119.893C108.152 118.929 109.563 117.758 109.563 117.758C109.563 117.758 110.149 119.893 110.08 121.063Z" stroke="#E0BB58"/>
<path d="M108.599 125.403C109.357 125.85 110.803 126.091 110.803 126.091C110.803 126.091 110.08 124.438 109.219 123.715C108.324 122.958 106.396 122.579 106.396 122.579C106.396 122.579 107.394 124.679 108.599 125.403Z" stroke="#E0BB58"/>
<path d="M112.387 124.748C112.111 125.85 110.941 127.296 110.941 127.296C110.941 127.296 110.803 125.506 110.941 124.369C111.113 122.958 111.939 120.892 111.939 120.892C111.939 120.892 112.766 123.267 112.387 124.748Z" stroke="#E0BB58"/>
<path d="M108.84 129.328C109.426 130.119 110.872 130.843 110.872 130.843C110.872 130.843 110.459 129.052 109.908 128.019C109.357 126.986 108.117 125.678 108.117 125.678C108.117 125.678 107.979 128.157 108.84 129.328Z" stroke="#E0BB58"/>
<path d="M112.8 130.808C112.111 132.254 110.872 132.254 110.872 132.254C110.872 132.254 111.147 129.706 112.111 128.019C113.075 126.331 113.867 126.71 113.867 126.71C113.867 126.71 113.454 129.327 112.8 130.808Z" stroke="#E0BB58"/>
<path d="M112.249 135.766C111.354 136.523 109.495 136.937 109.495 136.937C109.495 136.937 110.355 134.802 111.354 133.493C112.353 132.185 114.109 131.875 114.109 131.875C114.109 131.875 113.523 134.664 112.249 135.766Z" stroke="#E0BB58"/>
<path d="M106.809 144.203C105.569 144.409 103.641 143.686 103.641 143.686C103.641 143.686 105.707 142.447 107.188 141.999C108.393 141.655 110.355 141.482 110.355 141.482C110.355 141.482 108.496 143.927 106.809 144.203Z" stroke="#E0BB58"/>
<path d="M109.839 140.483C108.737 141.069 106.74 141.103 106.74 141.103C106.74 141.103 107.807 139.898 108.599 139.244C109.977 138.142 112.525 137.04 112.525 137.04C112.525 137.04 111.354 139.657 109.839 140.483Z" stroke="#E0BB58"/>
<path d="M108.496 133.873C108.84 134.733 109.805 135.835 109.805 135.835C109.805 135.835 110.218 133.012 109.46 131.497C109.116 130.774 108.221 129.81 108.221 129.81C108.221 129.81 107.876 132.392 108.496 133.873Z" stroke="#E0BB58"/>
<path d="M104.089 140.587C103.882 141.517 104.089 143.066 104.089 143.066C104.089 143.066 105.259 141.999 105.673 141.103C106.292 139.795 105.948 137.385 105.948 137.385C105.948 137.385 104.364 139.175 104.089 140.587Z" stroke="#E0BB58"/>
<path d="M106.74 137.419C106.74 138.486 107.291 140.104 107.291 140.104C107.291 140.104 108.186 138.52 108.358 137.419C108.565 135.938 107.738 133.597 107.738 133.597C107.738 133.597 106.705 135.869 106.74 137.419Z" stroke="#E0BB58"/>
<path d="M101.747 146.784C100.783 146.543 99.5093 145.545 99.5093 145.545C99.5093 145.545 100.852 145.097 101.747 144.994C103.469 144.787 106.189 145.545 106.189 145.545C106.189 145.545 103.503 147.197 101.747 146.784Z" stroke="#E0BB58"/>
<path d="M100.129 143.927C99.5092 145.167 100.129 145.167 100.129 145.167C100.129 145.167 101.61 144.65 102.195 143.927C102.987 142.963 102.918 140.828 102.918 140.828C102.918 140.828 100.749 142.687 100.129 143.927Z" stroke="#E0BB58"/>
<path d="M97.0988 148.093C94.7919 147.301 95.4805 146.337 95.4805 146.337C95.4805 146.337 97.3743 146.406 98.5106 146.716C100.06 147.163 102.229 148.575 102.229 148.575C102.229 148.575 99.4058 148.885 97.0988 148.093Z" stroke="#E0BB58"/>
<path d="M97.0989 144.202C95.6872 144.684 96.1348 146.233 96.1348 146.233C96.1348 146.233 97.6154 146.164 98.5106 145.613C99.578 144.959 100.198 142.928 100.198 142.928C100.198 142.928 98.5106 143.72 97.0989 144.202Z" stroke="#E0BB58"/>
<path d="M105.81 118.137C106.499 118.481 107.394 119.377 107.394 119.377C107.394 119.377 106.43 119.446 105.81 119.377C104.433 119.17 102.608 117.793 102.608 117.793C102.608 117.793 104.674 117.586 105.81 118.137Z" stroke="#E0BB58"/>
<path d="M107.188 120.616C107.842 121.064 108.771 121.856 108.771 121.856H107.188C105.741 121.856 103.985 120.272 103.985 120.272C103.985 120.272 106.051 119.858 107.188 120.616Z" stroke="#E0BB58"/>
<path d="M108.324 117.138C108.703 117.965 107.807 119.445 107.807 119.445C107.807 119.445 106.912 118.412 106.637 117.586C106.258 116.519 106.464 114.659 106.464 114.659C106.464 114.659 107.807 116.002 108.324 117.138Z" stroke="#E0BB58"/>
<path d="M104.949 114.832C105.122 115.486 104.949 116.588 104.949 116.588C104.949 116.588 103.71 115.624 102.987 114.832C102.264 114.04 102.264 112.594 102.264 112.594C102.264 112.594 104.571 113.523 104.949 114.832Z" stroke="#E0BB58"/>
<path d="M101.059 115.383C102.298 115.211 104.158 116.175 104.158 116.175C104.158 116.175 103.538 117.139 102.023 116.795C100.508 116.45 98.8206 116.45 98.8206 116.45C98.8206 116.45 100.095 115.521 101.059 115.383Z" stroke="#E0BB58"/>
<path d="M101.782 114.625C101.782 114.625 101.162 113.833 100.783 113.385C100.026 112.49 98.2352 112.249 98.2352 112.249C98.2352 112.249 98.8205 114.212 99.8535 114.625C100.577 114.9 101.782 114.625 101.782 114.625ZM101.782 114.625C101.782 114.625 113.592 120.823 110.493 133.528C107.394 146.234 95.033 146.234 95.033 146.234" stroke="#E0BB58"/>
<path d="M93.9999 187.656C145.725 187.656 187.656 145.725 187.656 94.0004C187.656 42.2758 145.725 0.344727 93.9999 0.344727C42.2753 0.344727 0.344238 42.2758 0.344238 94.0004C0.344238 145.725 42.2753 187.656 93.9999 187.656Z" stroke="#A47C38" stroke-width="2"/>
<path d="M94 175.949C139.259 175.949 175.949 139.259 175.949 94.0005C175.949 48.7414 139.259 12.0518 94 12.0518C48.741 12.0518 12.0513 48.7414 12.0513 94.0005C12.0513 139.259 48.741 175.949 94 175.949Z" stroke="#EECE6E" stroke-width="3"/>
<path d="M61.0828 98.924C61.0828 101.059 60.0498 102.712 57.9839 103.882C56.9509 104.468 55.6425 104.743 54.0242 104.743C53.5077 104.743 53.0945 104.743 52.7502 104.743L49.6857 104.674C48.5839 104.674 47.7575 104.709 47.1721 104.743L47.0344 104.605V104.261L47.1033 104.123C47.7231 103.71 48.0674 103.469 48.1362 103.366C48.2051 103.228 48.274 102.643 48.274 101.679L48.3084 98.8207V92.3474C48.3084 90.3159 48.2395 89.0075 48.1362 88.3877C48.1018 88.1467 47.9641 87.9745 47.6886 87.9056C47.5509 87.8712 47.0688 87.8368 46.208 87.7679L46.0703 87.6302V86.7694L46.208 86.6661C46.9655 86.7005 48.274 86.7349 50.1333 86.7349C51.304 86.7349 52.3714 86.7005 53.3011 86.6661C54.0586 86.6317 54.6784 86.6317 55.1949 86.6317C57.5707 86.6317 59.1201 87.1826 59.8776 88.25C60.2564 88.8353 60.463 89.4895 60.463 90.2126C60.463 91.4177 59.9809 92.4163 59.0513 93.2426C58.6036 93.6214 58.1216 93.8969 57.6395 94.1034C57.0886 94.31 56.4688 94.5166 55.8146 94.6544C59.3267 94.7921 61.0828 96.2038 61.0828 98.924ZM56.641 90.8324C56.641 88.9386 55.6769 88.0089 53.7143 88.0089C53.0601 88.0089 52.5091 88.0434 52.0615 88.1122C52.0271 89.0075 52.0271 89.8339 52.0271 90.5914V94.1034C52.2337 94.1034 52.6124 94.1379 53.1978 94.1379C54.7472 94.1379 55.7458 93.6558 56.2278 92.6573C56.4688 92.0719 56.641 91.4866 56.641 90.8324ZM57.1919 99.3027C57.1919 96.7547 55.8491 95.4807 53.1633 95.4807C52.819 95.4807 52.4403 95.4807 51.9927 95.5152V101.438C51.9927 102.092 52.0271 102.712 52.0271 103.331C52.3714 103.4 52.8535 103.435 53.5077 103.435C54.7128 103.435 55.608 103.056 56.2623 102.298C56.882 101.541 57.1919 100.577 57.1919 99.3027ZM86.3216 104.64L86.2183 104.777C85.3575 104.743 84.0491 104.709 82.2586 104.709C80.5025 104.709 79.1597 104.743 78.3333 104.777L78.23 104.64V103.779L78.3678 103.641C79.2286 103.607 79.745 103.538 79.8483 103.503C80.0894 103.435 80.2271 103.262 80.296 103.021C80.3993 102.402 80.4681 101.093 80.4681 99.0617V92.313C80.4681 90.2815 80.3993 88.973 80.296 88.3533C80.2615 88.1122 80.1238 87.9401 79.8483 87.8712C79.7106 87.8368 79.2286 87.8023 78.3678 87.7335L78.23 87.5958V86.7694L78.3678 86.6661C79.1941 86.7005 80.5025 86.7349 82.293 86.7349C84.0835 86.7349 85.3919 86.7005 86.2183 86.6661L86.356 86.7694V87.6302L86.2183 87.7679C85.3575 87.8023 84.841 87.8712 84.7377 87.9056C84.4967 87.9745 84.359 88.1467 84.2901 88.3877C84.1868 89.0075 84.1179 90.3159 84.1179 92.3474V99.0961C84.1179 101.128 84.1868 102.436 84.2901 103.056C84.3245 103.297 84.4623 103.469 84.7377 103.538C84.8754 103.572 85.3575 103.607 86.2183 103.676L86.356 103.813L86.3216 104.64ZM78.6432 99.165C78.6432 101.024 77.8857 102.47 76.3707 103.469C75.0967 104.33 73.4439 104.743 71.4813 104.743C71.0681 104.743 70.3106 104.709 69.1399 104.674C68.4513 104.64 67.8659 104.64 67.3839 104.64C67.0395 104.64 65.7656 104.674 63.5275 104.709L63.3897 104.605V103.71L63.5275 103.572C64.285 103.538 64.7326 103.503 64.9047 103.435C65.1458 103.366 65.2835 103.194 65.3524 102.953C65.4557 102.333 65.5245 101.024 65.5245 98.9928V92.2441C65.5245 90.2126 65.4557 88.9042 65.3524 88.2844C65.3179 88.0434 65.1802 87.8712 64.9047 87.8023C64.767 87.7679 64.285 87.7335 63.5275 87.6646L63.3897 87.5269V86.7694L63.5275 86.6661C64.2505 86.7005 65.5245 86.7349 67.315 86.7349C68.2447 86.7349 69.5531 86.7005 71.2747 86.6661L71.4124 86.7694V87.6302L71.2747 87.7679C70.4139 87.8023 69.8974 87.8712 69.7941 87.9056C69.5531 87.9745 69.4154 88.1467 69.3465 88.3877C69.2432 89.0075 69.1743 90.3159 69.1743 92.3474V94.4133C71.5157 94.4133 73.1685 94.5166 74.167 94.6888C77.1626 95.1708 78.6432 96.6859 78.6432 99.165ZM74.7868 99.406C74.7868 98.2009 74.4425 97.2368 73.7194 96.5826C73.0652 95.9972 72.2388 95.6873 71.2058 95.6529C70.7927 95.6529 70.104 95.6185 69.1743 95.6185V103.297C69.5875 103.366 70.0696 103.4 70.6205 103.4C71.5846 103.4 72.3077 103.331 72.7553 103.159C73.4095 102.918 73.8916 102.47 74.3047 101.782C74.6146 101.196 74.7868 100.405 74.7868 99.406ZM103.331 99.165C103.331 101.024 102.574 102.47 101.059 103.469C99.7846 104.33 98.1318 104.743 96.1692 104.743C95.756 104.743 94.9985 104.709 93.8278 104.674C93.1392 104.64 92.5538 104.64 92.0718 104.64C91.6586 104.64 90.3157 104.674 88.1121 104.709L88.0088 104.605V103.71L88.1465 103.572C89.0073 103.538 89.5238 103.469 89.6271 103.435C89.8681 103.366 90.0058 103.194 90.0747 102.953C90.178 102.333 90.2469 101.024 90.2469 98.9928V92.2441C90.2469 90.2126 90.178 88.9042 90.0747 88.2844C90.0403 88.0434 89.9025 87.8712 89.6271 87.8023C89.4894 87.7679 89.0073 87.7335 88.1465 87.6646L88.0088 87.5269V86.7694L88.1465 86.6661L95.0674 86.7349L100.336 86.7005C100.955 86.7005 101.437 86.6661 101.885 86.5972L102.023 86.7349C101.919 87.3203 101.851 87.9745 101.851 88.6287L101.816 90.798L101.678 90.9357H100.852L100.714 90.8324C100.68 90.3503 100.68 89.8339 100.645 89.3518C100.542 88.6976 100.336 88.3188 99.9568 88.1811C99.6813 88.0778 98.8205 88.0434 97.3399 88.0434H94C93.9311 90.1437 93.8967 91.4522 93.8967 91.9687V94.4133C96.2381 94.4133 97.8908 94.5166 98.8894 94.6888C101.816 95.1708 103.331 96.6859 103.331 99.165ZM99.4403 99.406C99.4403 98.2009 99.096 97.2368 98.3729 96.5826C97.7187 95.9972 96.8923 95.6873 95.8593 95.6529C95.4461 95.6529 94.7575 95.6185 93.8278 95.6185V103.297C94.241 103.366 94.7231 103.4 95.274 103.4C96.2381 103.4 96.9612 103.331 97.4088 103.159C98.063 102.918 98.545 102.47 98.9582 101.782C99.3025 101.196 99.4403 100.405 99.4403 99.406ZM125.402 95.2397C125.402 98.373 124.473 100.852 122.648 102.643C120.857 104.364 118.447 105.259 115.348 105.259C112.421 105.259 110.149 104.433 108.496 102.815C106.843 101.162 106.017 98.8895 106.017 95.9628C106.017 91.8654 107.566 89.0419 110.7 87.458C112.111 86.7349 113.867 86.3906 115.968 86.3906C118.929 86.3906 121.27 87.1826 122.923 88.732C124.541 90.2815 125.402 92.4507 125.402 95.2397ZM121.442 95.8939C121.442 93.4148 120.96 91.4522 119.962 90.006C118.963 88.5599 117.517 87.8368 115.589 87.8368C113.075 87.8368 111.388 88.973 110.562 91.2456C110.149 92.4163 109.908 93.7247 109.908 95.1708C109.908 97.7877 110.39 99.8881 111.354 101.403C112.352 102.987 113.867 103.779 115.864 103.779C118.275 103.779 119.927 102.574 120.754 100.198C121.236 98.924 121.442 97.4778 121.442 95.8939ZM141.895 90.6602C141.895 92.4163 141.31 93.7936 140.105 94.7577C138.9 95.7218 137.557 96.2382 136.042 96.2382C135.525 96.2382 135.009 96.1694 134.492 96.0661C134.423 95.8251 134.251 95.5152 134.045 95.1364L134.32 94.861C134.664 94.9643 135.009 95.0331 135.319 95.0331C136.179 95.0331 136.868 94.7232 137.385 94.1379C137.901 93.5181 138.177 92.6573 138.177 91.5555C138.177 89.1796 137.109 87.9745 134.974 87.9745C134.733 87.9745 134.217 88.0089 133.425 88.1122C133.356 88.3188 133.322 89.6961 133.322 92.2785V99.0273C133.322 101.059 133.39 102.367 133.494 102.987C133.528 103.228 133.666 103.4 133.941 103.469C134.01 103.503 134.596 103.538 135.697 103.607L135.835 103.744V104.571L135.697 104.709C134.527 104.674 133.149 104.64 131.497 104.64C129.672 104.64 128.363 104.674 127.571 104.709L127.434 104.605V103.744L127.571 103.607C128.432 103.572 128.914 103.503 129.052 103.469C129.293 103.4 129.431 103.228 129.5 102.987C129.603 102.367 129.672 101.059 129.672 99.0273V92.2785C129.672 90.247 129.603 88.9386 129.5 88.3188C129.465 88.0778 129.327 87.9056 129.052 87.8368C128.914 87.8024 128.432 87.7679 127.571 87.6991L127.434 87.5613V86.7694L127.571 86.6317C128.398 86.6661 129.672 86.7005 131.428 86.7005C132.151 86.7005 133.184 86.7005 134.527 86.6661C135.87 86.6317 136.662 86.6317 136.868 86.6317C139.21 86.6317 140.725 87.217 141.413 88.4221C141.723 89.0419 141.895 89.765 141.895 90.6602Z" fill="#A47C38"/>
<path d="M62.8732 80.537L62.8043 80.6059C62.3223 80.5714 61.5648 80.5714 60.5318 80.5714C59.4644 80.5714 58.7069 80.5714 58.2593 80.6059L58.1904 80.537V80.0205L58.2593 79.9516C58.7758 79.9172 59.0512 79.8828 59.1201 79.8828C59.2578 79.8483 59.3611 79.745 59.3611 79.6073C59.43 79.263 59.4644 78.4711 59.4644 77.3004V75.5099C59.2234 75.4755 58.397 75.4755 57.0542 75.4755C55.8146 75.4755 54.9882 75.4755 54.6095 75.5099V77.3004C54.6095 78.4711 54.6439 79.2286 54.7128 79.6073C54.7472 79.745 54.8161 79.8483 54.9538 79.8828C55.0227 79.9172 55.3326 79.9172 55.8146 79.9516L55.8835 80.0205V80.5026L55.8146 80.5714C55.3326 80.537 54.575 80.537 53.5421 80.537C52.4747 80.537 51.7172 80.537 51.2695 80.5714L51.2007 80.5026V79.9861L51.2695 79.9172C51.786 79.8828 52.0615 79.8483 52.1304 79.8483C52.2681 79.8139 52.3714 79.7106 52.3714 79.5729C52.4402 79.2286 52.4747 78.4366 52.4747 77.2659V73.3407C52.4747 72.17 52.4402 71.4124 52.3714 71.0337C52.337 70.896 52.2681 70.7927 52.1304 70.7582C52.0615 70.7238 51.7516 70.7238 51.2695 70.6894L51.2007 70.6205V70.104L51.2695 70.0352C51.7516 70.0696 52.5091 70.0696 53.5421 70.0696C54.6095 70.0696 55.367 70.0696 55.8146 70.0352L55.8835 70.104V70.6205L55.8146 70.6894C55.2981 70.7238 55.0227 70.7582 54.9538 70.7582C54.8161 70.7927 54.7128 70.896 54.7128 71.0337C54.6439 71.378 54.6095 72.17 54.6095 73.3407V74.5458C55.126 74.5802 55.849 74.5802 56.7787 74.5802C58.2249 74.5802 59.1201 74.5802 59.4644 74.5458V73.3407C59.4644 72.17 59.43 71.4124 59.3611 71.0337C59.3267 70.896 59.2578 70.7927 59.1201 70.7582C59.0512 70.7238 58.7413 70.7238 58.2593 70.6894L58.1904 70.6205V70.104L58.2593 70.0352C58.7413 70.0696 59.4989 70.0696 60.5318 70.0696C61.5992 70.0696 62.3567 70.0696 62.8043 70.0352L62.8732 70.104V70.6205L62.8043 70.6894C62.2879 70.7238 62.0124 70.7582 61.9435 70.7582C61.8058 70.7927 61.7025 70.896 61.7025 71.0337C61.6337 71.378 61.5992 72.17 61.5992 73.3407V77.2659C61.5992 78.4366 61.6337 79.1941 61.7025 79.5729C61.7369 79.7106 61.8058 79.8139 61.9435 79.8483C62.0124 79.8828 62.3223 79.8828 62.8043 79.9172L62.8732 79.9861V80.537ZM71.86 80.537L71.7912 80.6059C71.378 80.5714 70.9304 80.5714 70.4483 80.5714C69.9663 80.5714 69.5531 80.5714 69.1399 80.6059L69.071 80.537L69.1399 79.6073L69.0366 79.5729C68.6923 79.8828 68.4857 80.0549 68.3824 80.1582C68.1758 80.3304 67.9692 80.4681 67.797 80.5714C67.4871 80.7436 67.0739 80.8124 66.5919 80.8124C65.3523 80.8124 64.6981 80.1927 64.6981 78.9531C64.6981 78.2989 64.9047 77.8168 65.2835 77.4381C65.5934 77.1626 66.2476 76.9216 67.2461 76.7494L69.0366 76.4051C69.0366 75.9575 69.0021 75.6132 68.9333 75.4066C68.83 75.0623 68.6234 74.8212 68.3479 74.6146C68.1069 74.4769 67.8315 74.4081 67.556 74.4081C67.3494 74.4081 67.0395 74.4425 66.6952 74.5113L66.1443 75.5787L66.041 75.6476L65.7311 75.5787L65.6622 75.4755L65.7311 74.4769C66.8673 73.7194 67.797 73.3407 68.4512 73.3407C69.3809 73.3407 70.0696 73.6505 70.5172 74.2359C70.7582 74.5802 70.8959 75.0623 70.8959 75.7165C70.8959 75.9231 70.8959 76.4396 70.8615 77.2659C70.8615 77.5758 70.8615 77.8857 70.8615 78.0923C70.8615 79.1941 70.8959 79.7795 70.9648 79.8828C71.0337 79.9861 71.3091 80.0205 71.8256 80.0549L71.8945 80.1238L71.86 80.537ZM69.071 78.0234V76.8183C68.6234 76.956 68.2791 77.0593 68.038 77.1282C67.556 77.3004 67.2461 77.4381 67.0739 77.5414C66.7296 77.7824 66.5919 78.1267 66.5919 78.5744C66.5919 78.8842 66.6952 79.1253 66.9018 79.3319C67.1084 79.5385 67.3494 79.6418 67.6593 79.6418C68.1413 79.6418 68.5201 79.4352 68.83 79.0564C68.9677 78.8498 69.071 78.5055 69.071 78.0234ZM82.0175 76.3018C82.0175 78.0234 81.3633 79.2974 80.0893 80.0894C79.3663 80.537 78.5399 80.7436 77.5758 80.7436C77.197 80.7436 76.7838 80.7092 76.3362 80.6059V82.6374C76.3362 83.1883 76.3706 83.567 76.4051 83.7048C76.4395 83.8081 76.5084 83.8769 76.6117 83.9113C76.715 83.9458 77.0249 83.9802 77.5758 84.0146L77.6446 84.0835V84.5311L77.5758 84.6H77.2315C76.6805 84.5656 76.0608 84.5656 75.4065 84.5656C74.8901 84.5656 74.2359 84.6 73.4439 84.6344L73.375 84.5656V84.1179L73.4439 84.0491C73.8915 84.0146 74.167 84.0146 74.2703 83.9802C74.3736 83.9458 74.408 83.8769 74.4424 83.7736C74.4769 83.6703 74.4769 83.326 74.4769 82.7062V75.9919C74.4769 75.3722 74.4769 75.0278 74.4424 74.8901C74.408 74.7868 74.3391 74.7179 74.2703 74.6835C74.167 74.6491 73.8915 74.6146 73.4439 74.6146L73.375 74.5458V74.0293L73.4439 73.9604C74.3736 73.8571 75.3032 73.6505 76.2674 73.3407L76.4395 73.444V74.7179C77.197 73.8916 78.1267 73.444 79.1597 73.444C79.6761 73.444 80.1582 73.5472 80.6058 73.7883C81.0879 74.0293 81.4322 74.3392 81.7076 74.7868C81.8798 75.2 82.0175 75.7165 82.0175 76.3018ZM80.0893 77.2659C80.0893 76.0952 79.745 75.3033 79.0908 74.8901C78.7465 74.6835 78.4022 74.5802 77.989 74.5802C77.2315 74.5802 76.7494 74.8557 76.5084 75.441C76.4051 75.7165 76.3362 76.1297 76.3362 76.6806V79.1941C76.8871 79.745 77.4725 80.0205 78.0578 80.0205C78.471 80.0205 78.8153 79.8828 79.1597 79.6418C79.4695 79.4007 79.7106 79.0908 79.8483 78.7121C80.0205 78.2989 80.0893 77.8168 80.0893 77.2659ZM85.3919 74.167C86.1494 73.5817 87.1135 73.3062 88.2842 73.3062C89.4549 73.3062 90.419 73.6161 91.1421 74.2015C91.934 74.8557 92.3128 75.7509 92.3128 76.8872C92.3128 77.6791 92.1406 78.3678 91.8307 78.9531C91.4864 79.6073 90.9699 80.0894 90.3157 80.3993C89.6271 80.7092 88.904 80.8813 88.0776 80.8813C86.4937 80.8813 85.323 80.3304 84.6344 79.2286C84.2556 78.6432 84.049 77.8857 84.0835 76.956C84.0835 75.7509 84.5311 74.8212 85.3919 74.167ZM86.115 76.9905C86.115 77.8513 86.2527 78.5744 86.4937 79.1597C86.838 79.9172 87.389 80.296 88.1465 80.296C89.5582 80.296 90.2813 79.1941 90.2813 76.9905C90.2813 76.0264 90.1091 75.2689 89.7304 74.7179C89.3516 74.167 88.8351 73.8916 88.1809 73.8916C87.4578 73.8916 86.9069 74.2359 86.5282 74.959C86.2527 75.4755 86.115 76.1641 86.115 76.9905ZM102.126 79.8828L102.229 79.9861C101.954 80.8124 101.713 81.811 101.437 82.9472L101.334 83.0161H100.955L100.852 82.9472C100.852 81.9487 100.818 81.3634 100.783 81.1568C100.749 80.9502 100.611 80.8124 100.404 80.7436C100.198 80.6747 99.3714 80.6403 97.9252 80.6403C97.4432 80.6403 96.9611 80.6403 96.4791 80.6747C96.0315 80.7092 95.7216 80.7436 95.6183 80.8124C95.515 80.8813 95.4117 80.9846 95.3428 81.1568C95.3084 81.3289 95.2739 81.7077 95.2739 82.3619V82.9817L95.1706 83.0505H94.7575L94.6542 82.9817C94.4131 81.8798 94.2065 81.019 93.9655 80.3648L93.8622 80.0549L93.9655 79.9516L94.3787 80.0205L98.2351 74.6491C98.304 74.5802 98.304 74.5114 98.304 74.4769C98.304 74.4425 98.2695 74.4081 98.2351 74.3736C98.2007 74.3392 98.0285 74.3048 97.7875 74.2703C97.5465 74.2359 97.2366 74.2359 96.8923 74.2015L96.789 74.1326V73.685L96.8923 73.6161C97.2366 73.6161 97.9252 73.6505 98.8893 73.6505C99.5091 73.6505 100.163 73.6505 100.818 73.6161L100.99 73.7194L100.955 75.441C100.955 75.8886 100.921 76.5084 100.921 77.2659C100.921 78.7465 100.955 79.6073 100.99 79.9172L101.059 80.0205L102.126 79.8828ZM99.1304 79.9516V74.4425H99.0271L97.4087 77.0938L95.6527 79.9516H99.1304ZM113.075 80.537L113.007 80.6059C112.525 80.5714 111.87 80.5714 110.975 80.5714C110.149 80.5714 109.494 80.6059 108.944 80.6059L108.875 80.537V80.0894L108.944 80.0205C109.426 79.9861 109.701 79.9861 109.804 79.9172C109.908 79.8828 109.977 79.8139 110.011 79.7106C110.045 79.5729 110.045 79.1941 110.045 78.6432V76.956H106.637V78.6432C106.637 79.2286 106.671 79.5729 106.705 79.7106C106.74 79.8139 106.809 79.8828 106.912 79.9172C107.015 79.9516 107.291 79.9861 107.738 80.0205L107.807 80.0894V80.537L107.738 80.6059C107.291 80.5714 106.602 80.5714 105.707 80.5714C104.812 80.5714 104.157 80.6059 103.675 80.6059L103.607 80.537V80.0894L103.675 80.0205C104.089 79.9861 104.364 79.9861 104.502 79.9172C104.605 79.8828 104.674 79.8139 104.708 79.7106C104.743 79.6073 104.743 79.263 104.743 78.6432V76.1985C104.743 75.0623 104.708 74.4425 104.64 74.3736C104.605 74.3048 104.536 74.2703 104.467 74.2703C104.33 74.2359 104.089 74.2359 103.675 74.2015L103.607 74.1326V73.685L103.675 73.6161C104.157 73.6505 104.812 73.685 105.707 73.685C106.602 73.685 107.256 73.685 107.738 73.6161L107.807 73.685V74.1326L107.738 74.2015C107.291 74.2015 107.015 74.2359 106.912 74.2703C106.809 74.3048 106.74 74.4081 106.705 74.5458C106.671 74.6835 106.671 75.0623 106.671 75.7509V76.474H110.08V75.9575C110.08 75.3722 110.08 74.9934 110.045 74.7868C110.011 74.5113 109.942 74.3392 109.77 74.2703C109.701 74.2359 109.426 74.2359 108.978 74.2015L108.909 74.1326V73.685L108.978 73.6161C109.46 73.6505 110.114 73.685 111.009 73.685C111.836 73.685 112.524 73.685 113.041 73.6161L113.11 73.685V74.1326L113.041 74.2015C112.593 74.2015 112.318 74.2359 112.215 74.2703C112.111 74.3048 112.042 74.4081 112.008 74.5458C111.974 74.6835 111.974 75.0623 111.974 75.7509V78.6776C111.974 79.263 112.008 79.6073 112.008 79.7451C112.042 79.8483 112.111 79.9172 112.215 79.9516C112.318 79.9861 112.593 80.0205 113.041 80.0549L113.11 80.1238V80.537H113.075ZM125.987 80.537L125.919 80.6059C125.437 80.5714 124.782 80.5714 123.887 80.5714C123.061 80.5714 122.407 80.6059 121.856 80.6059L121.787 80.537V80.0894L121.856 80.0205C122.269 79.9861 122.544 79.9861 122.682 79.9172C122.82 79.8828 122.923 79.6762 122.923 79.3319C122.923 79.3663 122.923 79.1253 122.923 78.6432V76.4396C122.923 75.441 122.923 74.8212 122.889 74.5802C122.889 74.4425 122.82 74.3392 122.682 74.2703C122.579 74.2359 122.303 74.2015 121.856 74.167L121.787 74.0982V73.6505L121.856 73.5817C122.338 73.6161 122.992 73.6505 123.887 73.6505C124.782 73.6505 125.437 73.6505 125.919 73.5817L125.987 73.6505V74.0982L125.884 74.167C125.437 74.167 125.161 74.2015 125.058 74.2359C124.92 74.2703 124.851 74.5114 124.817 74.9245C124.817 74.7868 124.817 75.0278 124.817 75.682V78.6088C124.817 79.1597 124.817 79.5385 124.851 79.6762C124.886 79.8139 125.023 79.9172 125.299 79.9516C125.333 79.9516 125.505 79.9516 125.884 79.9861L125.987 80.0549V80.537ZM122.097 78.1612C122.097 79.504 121.374 80.296 119.962 80.5026C119.514 80.5714 119.067 80.6059 118.619 80.6059L116.415 80.5714C116.037 80.5714 115.451 80.5714 114.59 80.6059L114.522 80.537V80.0894L114.59 80.0205C115.004 79.9861 115.279 79.9861 115.417 79.9172C115.52 79.8828 115.589 79.8139 115.623 79.7106C115.658 79.6073 115.658 79.263 115.658 78.6432V76.1641C115.658 75.0278 115.623 74.4081 115.555 74.3392C115.52 74.2703 115.451 74.2359 115.382 74.2359C115.279 74.2015 115.004 74.2015 114.59 74.167L114.522 74.0982V73.6505L114.556 73.5817C115.417 73.6161 116.071 73.6161 116.553 73.6161C117.242 73.6161 117.896 73.6161 118.55 73.5817L118.619 73.6505V74.0982L118.55 74.167C118.378 74.167 118.206 74.2015 118.034 74.2015C117.793 74.2359 117.655 74.2703 117.586 74.3736C117.552 74.4425 117.517 74.6146 117.517 74.8557V76.1297H119.549C120.375 76.1297 121.029 76.3018 121.442 76.6461C121.89 76.956 122.097 77.4725 122.097 78.1612ZM120.134 78.0579C120.134 77.4381 119.927 77.0249 119.48 76.8183C119.239 76.6806 118.585 76.6117 117.552 76.6117V78.7465C117.552 79.3663 117.62 79.745 117.793 79.8483C117.896 79.9172 118.034 79.9516 118.24 79.9516C118.585 79.9516 118.929 79.8828 119.239 79.6762C119.583 79.504 119.824 79.2286 119.962 78.9531C120.065 78.7121 120.134 78.4022 120.134 78.0579ZM136.73 73.5817L136.799 73.6505V74.0982L136.696 74.167C136.214 74.167 135.904 74.2015 135.801 74.2703C135.697 74.3392 135.663 74.5113 135.629 74.7868L135.594 75.441C135.594 75.6476 135.594 76.1641 135.594 76.9905C135.594 77.7824 135.594 78.4366 135.594 78.9187C135.594 79.4352 135.629 79.7106 135.663 79.7795C135.697 79.8483 135.766 79.9172 135.835 79.9516C135.938 79.9861 136.179 80.0205 136.661 80.0205L136.73 80.0894V80.537L136.661 80.6059C136.179 80.5714 135.525 80.5714 134.63 80.5714C133.804 80.5714 133.149 80.6059 132.598 80.6059L132.53 80.537V80.0894L132.598 80.0205C133.046 79.9861 133.322 79.9861 133.425 79.9516C133.494 79.9172 133.563 79.8483 133.597 79.7795C133.631 79.7106 133.666 79.4352 133.666 79.022C133.666 78.5744 133.7 77.9201 133.7 77.0249V74.8212C132.323 77.0938 131.221 79.022 130.36 80.6059L128.983 80.5714C128.432 80.5714 127.881 80.6059 127.365 80.6059L127.296 80.537V80.0894L127.365 80.0205C127.812 79.9861 128.088 79.9861 128.157 79.9516C128.26 79.9172 128.294 79.8828 128.329 79.8139C128.363 79.745 128.398 79.5385 128.398 79.1597C128.398 78.7809 128.432 78.4711 128.432 78.2645C128.432 76.6461 128.432 75.6132 128.432 75.1656C128.432 74.7179 128.398 74.4425 128.363 74.3736C128.329 74.3048 128.26 74.2359 128.157 74.2359C128.053 74.2015 127.812 74.2015 127.399 74.167L127.33 74.0982V73.6505L127.399 73.5817C127.881 73.6161 128.535 73.6505 129.431 73.6505C130.326 73.6505 131.015 73.6161 131.462 73.5817L131.531 73.6505V74.0982L131.462 74.167C131.015 74.2015 130.774 74.2015 130.67 74.2359C130.601 74.2703 130.533 74.3048 130.498 74.3736C130.464 74.4081 130.429 74.6491 130.429 75.0278C130.395 75.4066 130.395 75.8542 130.395 76.4051C130.395 76.956 130.395 77.9201 130.395 79.3663C130.774 78.7465 131.359 77.7824 132.116 76.4396C132.874 75.0967 133.39 74.1326 133.666 73.5817C134.01 73.6161 134.423 73.6161 134.94 73.6161C135.456 73.6161 136.042 73.5817 136.73 73.5817ZM134.286 70.7238L134.596 71.2747C133.976 72.2044 133.149 72.652 132.116 72.652C131.841 72.652 131.6 72.6176 131.359 72.5831C131.118 72.5487 130.911 72.4454 130.67 72.3077C130.464 72.17 130.223 71.9289 129.913 71.5846V71.378L130.533 70.7927L130.739 70.7582C131.152 71.4813 131.772 71.8256 132.564 71.8256C132.874 71.8256 133.149 71.7912 133.356 71.6535C133.597 71.5502 133.769 71.4124 133.872 71.2403C133.976 71.0681 134.045 70.896 134.045 70.7238H134.286Z" fill="#A47C38"/>
<path d="M86.7692 124.266L90.4879 131.015V127.813C90.4879 126.78 90.5223 126.057 90.5912 125.609C90.6601 125.196 90.8666 124.852 91.1765 124.576C91.4864 124.301 91.8996 124.163 92.3817 124.163C92.7604 124.163 93.0359 124.266 93.2769 124.439C93.5179 124.611 93.5868 124.852 93.5868 125.093C93.5868 125.299 93.5179 125.472 93.3802 125.609C93.2425 125.747 93.0359 125.816 92.8293 125.816C92.6227 125.816 92.3817 125.747 92.1751 125.609C91.934 125.472 91.7619 125.368 91.6586 125.368C91.4864 125.368 91.3487 125.472 91.2454 125.644C91.1765 125.816 91.1421 126.263 91.1421 126.952V134.458H90.7978L86.2183 126.263V131.084C86.2183 132.151 86.1494 132.909 86.0117 133.288C85.874 133.701 85.6674 133.976 85.3231 134.183C85.0132 134.355 84.6688 134.458 84.2557 134.458C83.8425 134.458 83.5326 134.355 83.3604 134.183C83.1538 134.011 83.085 133.77 83.085 133.563C83.085 133.357 83.1538 133.184 83.2916 133.047C83.4293 132.909 83.6359 132.84 83.8425 132.84C84.0491 132.84 84.2557 132.909 84.4967 133.047C84.7721 133.184 84.9787 133.253 85.082 133.253C85.2542 133.253 85.3919 133.115 85.4608 132.874C85.5296 132.633 85.5641 132.083 85.5641 131.222V126.057C85.5641 125.506 85.5296 125.162 85.4608 124.989C85.3919 124.817 85.2542 124.68 85.0476 124.611C84.841 124.507 84.5311 124.473 84.1179 124.473V124.198H86.7692V124.266ZM94.5853 127.296C95.1707 127.296 95.7216 127.503 96.2036 127.916C96.6857 128.329 96.9267 128.915 96.9267 129.672C96.9267 130.361 96.7201 130.912 96.3069 131.325C95.8938 131.738 95.4117 131.945 94.8264 131.945C94.2066 131.945 93.6557 131.704 93.1736 131.256C92.726 130.774 92.485 130.189 92.485 129.5C92.485 128.915 92.6571 128.398 93.0359 127.951C93.4491 127.503 93.9311 127.296 94.5853 127.296ZM94.5165 127.641C93.9311 127.641 93.6212 128.088 93.6212 128.949C93.6212 129.603 93.759 130.189 94 130.774C94.2754 131.325 94.5853 131.6 94.9985 131.6C95.5494 131.6 95.8249 131.187 95.8249 130.395C95.8249 129.844 95.7216 129.225 95.4806 128.605C95.274 127.985 94.9296 127.641 94.5165 127.641ZM92.485 133.46H96.8923V134.286H92.485V133.46ZM99.9568 125.231L102.401 124.025H102.642V132.496C102.642 133.047 102.677 133.425 102.711 133.563C102.746 133.701 102.849 133.804 103.021 133.873C103.159 133.942 103.469 133.976 103.916 134.011V134.286H100.129V134.011C100.611 134.011 100.921 133.976 101.059 133.907C101.196 133.839 101.3 133.735 101.334 133.632C101.403 133.494 101.403 133.15 101.403 132.53V127.124C101.403 126.401 101.368 125.919 101.334 125.713C101.3 125.54 101.231 125.437 101.127 125.368C101.024 125.299 100.921 125.265 100.818 125.265C100.645 125.265 100.37 125.334 100.06 125.506L99.9568 125.231Z" fill="#E0BB58"/>
</g>
<defs>
<linearGradient id="paint0_linear_1681_2654" x1="-0.501899" y1="94.0004" x2="187.765" y2="94.0004" gradientUnits="userSpaceOnUse">
<stop stop-color="#D0A13B"/>
<stop offset="0.2426" stop-color="#DFBC60"/>
<stop offset="0.524" stop-color="#FFE17D"/>
<stop offset="1" stop-color="#B98927"/>
</linearGradient>
<clipPath id="clip0_1681_2654">
<rect width="188" height="188" fill="white"/>
</clipPath>
</defs>
</svg>
