<svg width="240" height="240" viewBox="0 0 240 240" fill="none" xmlns="http://www.w3.org/2000/svg">
<path d="M75 15H15V75H75V15ZM90 0V90H0V0H90ZM30 30H60V60H30V30ZM225 15H165V75H225V15ZM240 0V90H150V0H240ZM180 30H210V60H180V30ZM75 165H15V225H75V165ZM90 150V240H0V150H90ZM30 180H60V210H30V180ZM105 0H120V15H105V0ZM120 15H135V30H120V15ZM105 30H120V45H105V30ZM120 45H135V60H120V45ZM105 60H120V75H105V60ZM120 75H135V90H120V75ZM105 90H120V105H105V90ZM105 120H120V135H105V120ZM120 135H135V150H120V135ZM105 150H120V165H105V150ZM120 165H135V180H120V165ZM105 180H120V195H105V180ZM120 195H135V210H120V195ZM105 210H120V225H105V210ZM120 225H135V240H120V225ZM225 120H240V135H225V120ZM15 120H30V135H15V120ZM30 105H45V120H30V105ZM0 105H15V120H0V105ZM60 105H75V120H60V105ZM75 120H90V135H75V120ZM90 105H105V120H90V105ZM135 120H150V135H135V120ZM150 105H165V120H150V105ZM165 120H180V135H165V120ZM180 105H195V120H180V105ZM195 120H210V135H195V120ZM210 105H225V120H210V105ZM225 150H240V165H225V150ZM135 150H150V165H135V150ZM150 135H165V150H150V135ZM165 150H180V165H165V150ZM195 150H210V165H195V150ZM210 135H225V150H210V135ZM225 180H240V195H225V180ZM135 180H150V195H135V180ZM150 165H165V180H150V165ZM180 165H195V180H180V165ZM195 180H210V195H195V180ZM210 165H225V180H210V165ZM225 210H240V225H225V210ZM150 195H165V210H150V195ZM165 210H180V225H165V210ZM180 195H195V210H180V195ZM195 210H210V225H195V210ZM150 225H165V240H150V225ZM180 225H195V240H180V225ZM210 225H225V240H210V225Z" fill="url(#paint0_linear_1701_5770)"/>
<defs>
<linearGradient id="paint0_linear_1701_5770" x1="200.47" y1="240" x2="200.47" y2="1.08269e-05" gradientUnits="userSpaceOnUse">
<stop offset="0.0104167" stop-color="#FFF0DA"/>
<stop offset="0.0416667" stop-color="#94641E"/>
<stop offset="0.828125" stop-color="#FFF2DB"/>
<stop offset="0.9375" stop-color="#EAC885"/>
<stop offset="0.979167" stop-color="#FBF5D1"/>
<stop offset="0.9999" stop-color="#BD9A4B"/>
<stop offset="1" stop-color="#ECD8A3"/>
</linearGradient>
</defs>
</svg>
