<svg width="168" height="68" viewBox="0 0 168 68" fill="none" xmlns="http://www.w3.org/2000/svg">
<path d="M50.8472 9.09668H48.188V8.02344H50.8472C51.3621 8.02344 51.7791 7.94141 52.0981 7.77734C52.4172 7.61328 52.6496 7.38542 52.7954 7.09375C52.9458 6.80208 53.021 6.4694 53.021 6.0957C53.021 5.75391 52.9458 5.43262 52.7954 5.13184C52.6496 4.83105 52.4172 4.58952 52.0981 4.40723C51.7791 4.22038 51.3621 4.12695 50.8472 4.12695H48.4956V13H47.1763V3.04688H50.8472C51.5991 3.04688 52.2349 3.17676 52.7544 3.43652C53.2739 3.69629 53.6681 4.05632 53.937 4.5166C54.2059 4.97233 54.3403 5.49414 54.3403 6.08203C54.3403 6.72005 54.2059 7.26465 53.937 7.71582C53.6681 8.16699 53.2739 8.51107 52.7544 8.74805C52.2349 8.98047 51.5991 9.09668 50.8472 9.09668ZM60.0962 11.7354V7.92773C60.0962 7.63607 60.0369 7.38314 59.9185 7.16895C59.8045 6.9502 59.6313 6.78158 59.3989 6.66309C59.1665 6.5446 58.8794 6.48535 58.5376 6.48535C58.2186 6.48535 57.9383 6.54004 57.6968 6.64941C57.4598 6.75879 57.2729 6.90234 57.1362 7.08008C57.0041 7.25781 56.938 7.44922 56.938 7.6543H55.6733C55.6733 7.38997 55.7417 7.12793 55.8784 6.86816C56.0151 6.6084 56.2111 6.3737 56.4663 6.16406C56.7261 5.94987 57.036 5.78125 57.396 5.6582C57.7606 5.5306 58.1662 5.4668 58.6128 5.4668C59.1506 5.4668 59.6245 5.55794 60.0347 5.74023C60.4494 5.92253 60.7729 6.19824 61.0054 6.56738C61.2424 6.93197 61.3608 7.38997 61.3608 7.94141V11.3867C61.3608 11.6328 61.3813 11.8949 61.4224 12.1729C61.4679 12.4508 61.534 12.6901 61.6206 12.8906V13H60.3013C60.2375 12.8542 60.1873 12.6605 60.1509 12.4189C60.1144 12.1729 60.0962 11.945 60.0962 11.7354ZM60.3149 8.51562L60.3286 9.4043H59.0503C58.6903 9.4043 58.369 9.43392 58.0864 9.49316C57.8039 9.54785 57.5669 9.63216 57.3755 9.74609C57.1841 9.86003 57.0382 10.0036 56.938 10.1768C56.8377 10.3454 56.7876 10.5436 56.7876 10.7715C56.7876 11.0039 56.84 11.2158 56.9448 11.4072C57.0496 11.5986 57.2069 11.7513 57.4165 11.8652C57.6307 11.9746 57.8927 12.0293 58.2026 12.0293C58.59 12.0293 58.9318 11.9473 59.228 11.7832C59.5243 11.6191 59.759 11.4186 59.9321 11.1816C60.1099 10.9447 60.2056 10.7145 60.2192 10.4912L60.7593 11.0996C60.7274 11.291 60.6408 11.5029 60.4995 11.7354C60.3582 11.9678 60.1691 12.1911 59.9321 12.4053C59.6997 12.6149 59.4217 12.7904 59.0981 12.9316C58.7791 13.0684 58.4191 13.1367 58.0181 13.1367C57.5168 13.1367 57.077 13.0387 56.6987 12.8428C56.325 12.6468 56.0334 12.3848 55.8237 12.0566C55.6187 11.724 55.5161 11.3525 55.5161 10.9424C55.5161 10.5459 55.5936 10.1973 55.7485 9.89648C55.9035 9.59115 56.1268 9.33822 56.4185 9.1377C56.7101 8.93262 57.061 8.77767 57.4712 8.67285C57.8813 8.56803 58.3394 8.51562 58.8452 8.51562H60.3149ZM66.1118 9.46582H64.7515V8.68652H66.0093C66.3602 8.68652 66.6382 8.64323 66.8433 8.55664C67.0483 8.46549 67.1942 8.34017 67.2808 8.18066C67.3674 8.02116 67.4106 7.83431 67.4106 7.62012C67.4106 7.42871 67.3605 7.2487 67.2603 7.08008C67.1646 6.9069 67.0096 6.7679 66.7954 6.66309C66.5812 6.55371 66.2941 6.49902 65.9341 6.49902C65.6424 6.49902 65.3781 6.55143 65.1411 6.65625C64.9041 6.75651 64.715 6.89551 64.5737 7.07324C64.437 7.24642 64.3687 7.44238 64.3687 7.66113H63.104C63.104 7.20996 63.2316 6.82259 63.4868 6.49902C63.7466 6.1709 64.0907 5.91797 64.519 5.74023C64.952 5.5625 65.4237 5.47363 65.9341 5.47363C66.3625 5.47363 66.7453 5.52148 67.0825 5.61719C67.4243 5.70833 67.7137 5.84505 67.9507 6.02734C68.1877 6.20508 68.3677 6.42839 68.4907 6.69727C68.6183 6.96159 68.6821 7.26921 68.6821 7.62012C68.6821 7.87077 68.6229 8.10775 68.5044 8.33105C68.3859 8.55436 68.215 8.7526 67.9917 8.92578C67.7684 9.0944 67.4972 9.22656 67.1782 9.32227C66.8638 9.41797 66.5083 9.46582 66.1118 9.46582ZM64.7515 8.9873H66.1118C66.5539 8.9873 66.9435 9.0306 67.2808 9.11719C67.618 9.19922 67.9006 9.32227 68.1284 9.48633C68.3563 9.65039 68.5272 9.85319 68.6411 10.0947C68.7596 10.3317 68.8188 10.6051 68.8188 10.915C68.8188 11.2614 68.7482 11.5736 68.6069 11.8516C68.4702 12.125 68.2743 12.3574 68.019 12.5488C67.7638 12.7402 67.4585 12.8861 67.103 12.9863C66.7521 13.0866 66.3625 13.1367 65.9341 13.1367C65.4556 13.1367 64.9907 13.0547 64.5396 12.8906C64.0884 12.7266 63.717 12.4736 63.4253 12.1318C63.1336 11.7855 62.9878 11.3457 62.9878 10.8125H64.2524C64.2524 11.0358 64.3231 11.2477 64.4644 11.4482C64.6056 11.6488 64.8016 11.8105 65.0522 11.9336C65.3075 12.0566 65.6014 12.1182 65.9341 12.1182C66.2896 12.1182 66.5858 12.0635 66.8228 11.9541C67.0597 11.8447 67.2375 11.6989 67.356 11.5166C67.479 11.3343 67.5405 11.1361 67.5405 10.9219C67.5405 10.6439 67.4858 10.4206 67.3765 10.252C67.2671 10.0833 67.0985 9.96029 66.8706 9.88281C66.6473 9.80078 66.3602 9.75977 66.0093 9.75977H64.7515V8.9873ZM71.7241 7.02539V15.8438H70.4526V5.60352H71.6147L71.7241 7.02539ZM76.7075 9.24023V9.38379C76.7075 9.92155 76.6437 10.4206 76.5161 10.8809C76.3885 11.3366 76.2017 11.7331 75.9556 12.0703C75.714 12.4076 75.4155 12.6696 75.0601 12.8564C74.7046 13.0433 74.2967 13.1367 73.8364 13.1367C73.367 13.1367 72.9523 13.0592 72.5923 12.9043C72.2323 12.7493 71.9269 12.5238 71.6763 12.2275C71.4256 11.9313 71.2251 11.5758 71.0747 11.1611C70.9289 10.7464 70.8286 10.2793 70.7739 9.75977V8.99414C70.8286 8.44727 70.9312 7.95736 71.0815 7.52441C71.2319 7.09147 71.4302 6.72233 71.6763 6.41699C71.9269 6.1071 72.23 5.8724 72.5854 5.71289C72.9409 5.54883 73.3511 5.4668 73.8159 5.4668C74.2808 5.4668 74.6932 5.55794 75.0532 5.74023C75.4132 5.91797 75.7163 6.17318 75.9624 6.50586C76.2085 6.83854 76.3931 7.2373 76.5161 7.70215C76.6437 8.16243 76.7075 8.67513 76.7075 9.24023ZM75.436 9.38379V9.24023C75.436 8.87109 75.3973 8.52474 75.3198 8.20117C75.2424 7.87305 75.1216 7.58594 74.9575 7.33984C74.798 7.08919 74.5929 6.89323 74.3423 6.75195C74.0916 6.60612 73.7931 6.5332 73.4468 6.5332C73.1278 6.5332 72.8498 6.58789 72.6128 6.69727C72.3804 6.80664 72.1821 6.95475 72.0181 7.1416C71.854 7.32389 71.7196 7.53353 71.6147 7.77051C71.5145 8.00293 71.4393 8.24447 71.3892 8.49512V10.2656C71.4803 10.5846 71.6079 10.8854 71.772 11.168C71.936 11.446 72.1548 11.6715 72.4282 11.8447C72.7017 12.0133 73.0457 12.0977 73.4604 12.0977C73.8022 12.0977 74.0962 12.027 74.3423 11.8857C74.5929 11.7399 74.798 11.5417 74.9575 11.291C75.1216 11.0404 75.2424 10.7533 75.3198 10.4297C75.3973 10.1016 75.436 9.75293 75.436 9.38379ZM82.6821 11.7354V7.92773C82.6821 7.63607 82.6229 7.38314 82.5044 7.16895C82.3905 6.9502 82.2173 6.78158 81.9849 6.66309C81.7524 6.5446 81.4653 6.48535 81.1235 6.48535C80.8045 6.48535 80.5243 6.54004 80.2827 6.64941C80.0457 6.75879 79.8589 6.90234 79.7222 7.08008C79.59 7.25781 79.5239 7.44922 79.5239 7.6543H78.2593C78.2593 7.38997 78.3276 7.12793 78.4644 6.86816C78.6011 6.6084 78.797 6.3737 79.0522 6.16406C79.312 5.94987 79.6219 5.78125 79.9819 5.6582C80.3465 5.5306 80.7521 5.4668 81.1987 5.4668C81.7365 5.4668 82.2104 5.55794 82.6206 5.74023C83.0353 5.92253 83.3589 6.19824 83.5913 6.56738C83.8283 6.93197 83.9468 7.38997 83.9468 7.94141V11.3867C83.9468 11.6328 83.9673 11.8949 84.0083 12.1729C84.0539 12.4508 84.12 12.6901 84.2065 12.8906V13H82.8872C82.8234 12.8542 82.7733 12.6605 82.7368 12.4189C82.7004 12.1729 82.6821 11.945 82.6821 11.7354ZM82.9009 8.51562L82.9146 9.4043H81.6362C81.2762 9.4043 80.9549 9.43392 80.6724 9.49316C80.3898 9.54785 80.1528 9.63216 79.9614 9.74609C79.77 9.86003 79.6242 10.0036 79.5239 10.1768C79.4237 10.3454 79.3735 10.5436 79.3735 10.7715C79.3735 11.0039 79.4259 11.2158 79.5308 11.4072C79.6356 11.5986 79.7928 11.7513 80.0024 11.8652C80.2166 11.9746 80.4787 12.0293 80.7886 12.0293C81.1759 12.0293 81.5177 11.9473 81.814 11.7832C82.1102 11.6191 82.3449 11.4186 82.5181 11.1816C82.6958 10.9447 82.7915 10.7145 82.8052 10.4912L83.3452 11.0996C83.3133 11.291 83.2267 11.5029 83.0854 11.7354C82.9442 11.9678 82.755 12.1911 82.5181 12.4053C82.2856 12.6149 82.0076 12.7904 81.6841 12.9316C81.3651 13.0684 81.005 13.1367 80.604 13.1367C80.1027 13.1367 79.6629 13.0387 79.2847 12.8428C78.911 12.6468 78.6193 12.3848 78.4097 12.0566C78.2046 11.724 78.1021 11.3525 78.1021 10.9424C78.1021 10.5459 78.1795 10.1973 78.3345 9.89648C78.4894 9.59115 78.7127 9.33822 79.0044 9.1377C79.2961 8.93262 79.647 8.77767 80.0571 8.67285C80.4673 8.56803 80.9253 8.51562 81.4312 8.51562H82.9009ZM90.6802 2.38379H91.7192C91.7192 2.8304 91.6509 3.18587 91.5142 3.4502C91.3774 3.70996 91.1906 3.91048 90.9536 4.05176C90.7212 4.19303 90.4569 4.30013 90.1606 4.37305C89.869 4.44596 89.5659 4.5166 89.2515 4.58496C88.8595 4.66699 88.495 4.79688 88.1577 4.97461C87.825 5.14779 87.5379 5.39388 87.2964 5.71289C87.0594 6.0319 86.884 6.44661 86.77 6.95703C86.6606 7.46745 86.631 8.09863 86.6812 8.85059V9.47949H85.6421V8.85059C85.6421 8.00749 85.7218 7.27148 85.8813 6.64258C86.0454 6.01367 86.2756 5.48275 86.5718 5.0498C86.868 4.61686 87.2189 4.27279 87.6245 4.01758C88.0347 3.76237 88.4858 3.58691 88.978 3.49121C89.3335 3.42285 89.6388 3.34993 89.894 3.27246C90.1493 3.19043 90.3429 3.08105 90.4751 2.94434C90.6118 2.80762 90.6802 2.62077 90.6802 2.38379ZM89.1831 6.02734C89.6662 6.02734 90.0968 6.11165 90.4751 6.28027C90.8534 6.44889 91.1746 6.68359 91.439 6.98438C91.7033 7.28516 91.9038 7.64062 92.0405 8.05078C92.1818 8.45638 92.2524 8.89844 92.2524 9.37695V9.52734C92.2524 10.0423 92.1772 10.5208 92.0269 10.9629C91.881 11.4004 91.6646 11.7832 91.3774 12.1113C91.0949 12.4349 90.7485 12.6878 90.3384 12.8701C89.9328 13.0524 89.4702 13.1436 88.9507 13.1436C88.4312 13.1436 87.9663 13.0524 87.5562 12.8701C87.1506 12.6878 86.8042 12.4349 86.5171 12.1113C86.23 11.7832 86.0112 11.4004 85.8608 10.9629C85.715 10.5208 85.6421 10.0423 85.6421 9.52734V9.37695C85.6421 9.26302 85.6626 9.15137 85.7036 9.04199C85.7446 8.93262 85.7948 8.82096 85.854 8.70703C85.9178 8.5931 85.9748 8.47233 86.0249 8.34473C86.1935 7.93457 86.4237 7.55404 86.7153 7.20312C87.0116 6.85221 87.3647 6.56966 87.7749 6.35547C88.1896 6.13672 88.659 6.02734 89.1831 6.02734ZM88.937 7.05957C88.4722 7.05957 88.0894 7.16667 87.7886 7.38086C87.4924 7.59505 87.2713 7.87988 87.1255 8.23535C86.9797 8.58626 86.9067 8.9668 86.9067 9.37695V9.52734C86.9067 9.8737 86.9478 10.2018 87.0298 10.5117C87.1118 10.8216 87.2349 11.0973 87.3989 11.3389C87.5675 11.5758 87.7795 11.7627 88.0347 11.8994C88.2944 12.0361 88.5998 12.1045 88.9507 12.1045C89.3016 12.1045 89.6047 12.0361 89.8599 11.8994C90.1151 11.7627 90.3247 11.5758 90.4888 11.3389C90.6528 11.0973 90.7759 10.8216 90.8579 10.5117C90.9399 10.2018 90.981 9.8737 90.981 9.52734V9.37695C90.981 9.06706 90.9399 8.77311 90.8579 8.49512C90.7759 8.21712 90.6506 7.97103 90.4819 7.75684C90.3179 7.54264 90.106 7.37402 89.8462 7.25098C89.591 7.12337 89.2879 7.05957 88.937 7.05957ZM93.353 9.38379V9.22656C93.353 8.69336 93.4305 8.19889 93.5854 7.74316C93.7404 7.28288 93.9637 6.88411 94.2554 6.54688C94.547 6.20508 94.9002 5.94076 95.3149 5.75391C95.7297 5.5625 96.1945 5.4668 96.7095 5.4668C97.229 5.4668 97.6961 5.5625 98.1108 5.75391C98.5301 5.94076 98.8856 6.20508 99.1772 6.54688C99.4735 6.88411 99.6991 7.28288 99.854 7.74316C100.009 8.19889 100.086 8.69336 100.086 9.22656V9.38379C100.086 9.91699 100.009 10.4115 99.854 10.8672C99.6991 11.3229 99.4735 11.7217 99.1772 12.0635C98.8856 12.4007 98.5324 12.665 98.1177 12.8564C97.7075 13.0433 97.2427 13.1367 96.7231 13.1367C96.2036 13.1367 95.7365 13.0433 95.3218 12.8564C94.9071 12.665 94.5516 12.4007 94.2554 12.0635C93.9637 11.7217 93.7404 11.3229 93.5854 10.8672C93.4305 10.4115 93.353 9.91699 93.353 9.38379ZM94.6177 9.22656V9.38379C94.6177 9.75293 94.661 10.1016 94.7476 10.4297C94.8341 10.7533 94.964 11.0404 95.1372 11.291C95.3149 11.5417 95.536 11.7399 95.8003 11.8857C96.0646 12.027 96.3722 12.0977 96.7231 12.0977C97.0695 12.0977 97.3726 12.027 97.6323 11.8857C97.8966 11.7399 98.1154 11.5417 98.2886 11.291C98.4618 11.0404 98.5916 10.7533 98.6782 10.4297C98.7694 10.1016 98.8149 9.75293 98.8149 9.38379V9.22656C98.8149 8.86198 98.7694 8.5179 98.6782 8.19434C98.5916 7.86621 98.4595 7.57682 98.2817 7.32617C98.1086 7.07096 97.8898 6.87044 97.6255 6.72461C97.3657 6.57878 97.0604 6.50586 96.7095 6.50586C96.3631 6.50586 96.0578 6.57878 95.7935 6.72461C95.5337 6.87044 95.3149 7.07096 95.1372 7.32617C94.964 7.57682 94.8341 7.86621 94.7476 8.19434C94.661 8.5179 94.6177 8.86198 94.6177 9.22656ZM104.537 5.60352V13H103.265V5.60352H104.537ZM107.018 5.60352V6.62891H100.832V5.60352H107.018ZM109.636 5.60352V13H108.372V5.60352H109.636ZM114.49 5.60352L110.983 9.8418H109.212L109.021 8.73438H110.47L112.952 5.60352H114.49ZM113.129 13L110.409 9.65039L111.222 8.73438L114.736 13H113.129ZM120.198 11.7354V7.92773C120.198 7.63607 120.139 7.38314 120.02 7.16895C119.906 6.9502 119.733 6.78158 119.5 6.66309C119.268 6.5446 118.981 6.48535 118.639 6.48535C118.32 6.48535 118.04 6.54004 117.798 6.64941C117.561 6.75879 117.375 6.90234 117.238 7.08008C117.106 7.25781 117.04 7.44922 117.04 7.6543H115.775C115.775 7.38997 115.843 7.12793 115.98 6.86816C116.117 6.6084 116.313 6.3737 116.568 6.16406C116.828 5.94987 117.138 5.78125 117.498 5.6582C117.862 5.5306 118.268 5.4668 118.714 5.4668C119.252 5.4668 119.726 5.55794 120.136 5.74023C120.551 5.92253 120.875 6.19824 121.107 6.56738C121.344 6.93197 121.462 7.38997 121.462 7.94141V11.3867C121.462 11.6328 121.483 11.8949 121.524 12.1729C121.569 12.4508 121.636 12.6901 121.722 12.8906V13H120.403C120.339 12.8542 120.289 12.6605 120.252 12.4189C120.216 12.1729 120.198 11.945 120.198 11.7354ZM120.417 8.51562L120.43 9.4043H119.152C118.792 9.4043 118.471 9.43392 118.188 9.49316C117.905 9.54785 117.668 9.63216 117.477 9.74609C117.286 9.86003 117.14 10.0036 117.04 10.1768C116.939 10.3454 116.889 10.5436 116.889 10.7715C116.889 11.0039 116.942 11.2158 117.046 11.4072C117.151 11.5986 117.308 11.7513 117.518 11.8652C117.732 11.9746 117.994 12.0293 118.304 12.0293C118.692 12.0293 119.033 11.9473 119.33 11.7832C119.626 11.6191 119.861 11.4186 120.034 11.1816C120.211 10.9447 120.307 10.7145 120.321 10.4912L120.861 11.0996C120.829 11.291 120.742 11.5029 120.601 11.7354C120.46 11.9678 120.271 12.1911 120.034 12.4053C119.801 12.6149 119.523 12.7904 119.2 12.9316C118.881 13.0684 118.521 13.1367 118.12 13.1367C117.618 13.1367 117.179 13.0387 116.8 12.8428C116.427 12.6468 116.135 12.3848 115.925 12.0566C115.72 11.724 115.618 11.3525 115.618 10.9424C115.618 10.5459 115.695 10.1973 115.85 9.89648C116.005 9.59115 116.228 9.33822 116.52 9.1377C116.812 8.93262 117.163 8.77767 117.573 8.67285C117.983 8.56803 118.441 8.51562 118.947 8.51562H120.417ZM129.884 12.0977C130.185 12.0977 130.463 12.0361 130.718 11.9131C130.973 11.79 131.183 11.6214 131.347 11.4072C131.511 11.1885 131.605 10.9401 131.627 10.6621H132.831C132.808 11.0996 132.66 11.5075 132.386 11.8857C132.117 12.2594 131.764 12.5625 131.327 12.7949C130.889 13.0228 130.408 13.1367 129.884 13.1367C129.328 13.1367 128.843 13.0387 128.428 12.8428C128.018 12.6468 127.676 12.3779 127.403 12.0361C127.134 11.6943 126.931 11.3024 126.794 10.8604C126.662 10.4137 126.596 9.94206 126.596 9.44531V9.1582C126.596 8.66146 126.662 8.19206 126.794 7.75C126.931 7.30339 127.134 6.90918 127.403 6.56738C127.676 6.22559 128.018 5.95671 128.428 5.76074C128.843 5.56478 129.328 5.4668 129.884 5.4668C130.463 5.4668 130.969 5.58529 131.402 5.82227C131.835 6.05469 132.174 6.3737 132.42 6.7793C132.671 7.18034 132.808 7.63607 132.831 8.14648H131.627C131.605 7.84115 131.518 7.56543 131.368 7.31934C131.222 7.07324 131.021 6.87728 130.766 6.73145C130.515 6.58105 130.222 6.50586 129.884 6.50586C129.497 6.50586 129.171 6.58333 128.907 6.73828C128.647 6.88867 128.44 7.09375 128.285 7.35352C128.134 7.60872 128.025 7.89355 127.957 8.20801C127.893 8.5179 127.861 8.83464 127.861 9.1582V9.44531C127.861 9.76888 127.893 10.0879 127.957 10.4023C128.02 10.7168 128.127 11.0016 128.278 11.2568C128.433 11.512 128.64 11.7171 128.9 11.8721C129.164 12.0225 129.492 12.0977 129.884 12.0977ZM138.614 11.7354V7.92773C138.614 7.63607 138.555 7.38314 138.436 7.16895C138.322 6.9502 138.149 6.78158 137.917 6.66309C137.684 6.5446 137.397 6.48535 137.055 6.48535C136.736 6.48535 136.456 6.54004 136.214 6.64941C135.977 6.75879 135.791 6.90234 135.654 7.08008C135.522 7.25781 135.456 7.44922 135.456 7.6543H134.191C134.191 7.38997 134.259 7.12793 134.396 6.86816C134.533 6.6084 134.729 6.3737 134.984 6.16406C135.244 5.94987 135.554 5.78125 135.914 5.6582C136.278 5.5306 136.684 5.4668 137.13 5.4668C137.668 5.4668 138.142 5.55794 138.552 5.74023C138.967 5.92253 139.291 6.19824 139.523 6.56738C139.76 6.93197 139.878 7.38997 139.878 7.94141V11.3867C139.878 11.6328 139.899 11.8949 139.94 12.1729C139.986 12.4508 140.052 12.6901 140.138 12.8906V13H138.819C138.755 12.8542 138.705 12.6605 138.668 12.4189C138.632 12.1729 138.614 11.945 138.614 11.7354ZM138.833 8.51562L138.846 9.4043H137.568C137.208 9.4043 136.887 9.43392 136.604 9.49316C136.321 9.54785 136.084 9.63216 135.893 9.74609C135.702 9.86003 135.556 10.0036 135.456 10.1768C135.355 10.3454 135.305 10.5436 135.305 10.7715C135.305 11.0039 135.358 11.2158 135.462 11.4072C135.567 11.5986 135.724 11.7513 135.934 11.8652C136.148 11.9746 136.41 12.0293 136.72 12.0293C137.108 12.0293 137.449 11.9473 137.746 11.7832C138.042 11.6191 138.277 11.4186 138.45 11.1816C138.627 10.9447 138.723 10.7145 138.737 10.4912L139.277 11.0996C139.245 11.291 139.158 11.5029 139.017 11.7354C138.876 11.9678 138.687 12.1911 138.45 12.4053C138.217 12.6149 137.939 12.7904 137.616 12.9316C137.297 13.0684 136.937 13.1367 136.536 13.1367C136.034 13.1367 135.595 13.0387 135.216 12.8428C134.843 12.6468 134.551 12.3848 134.341 12.0566C134.136 11.724 134.034 11.3525 134.034 10.9424C134.034 10.5459 134.111 10.1973 134.266 9.89648C134.421 9.59115 134.644 9.33822 134.936 9.1377C135.228 8.93262 135.579 8.77767 135.989 8.67285C136.399 8.56803 136.857 8.51562 137.363 8.51562H138.833ZM143.235 10.9971L146.646 5.60352H147.917V13H146.646V7.60645L143.235 13H141.977V5.60352H143.235V10.9971ZM145.956 2.92383H146.981C146.981 3.2793 146.899 3.59603 146.735 3.87402C146.571 4.14746 146.336 4.36165 146.031 4.5166C145.725 4.67155 145.363 4.74902 144.944 4.74902C144.31 4.74902 143.809 4.5804 143.44 4.24316C143.075 3.90137 142.893 3.46159 142.893 2.92383H143.918C143.918 3.19271 143.996 3.42969 144.151 3.63477C144.306 3.83984 144.57 3.94238 144.944 3.94238C145.308 3.94238 145.568 3.83984 145.723 3.63477C145.878 3.42969 145.956 3.19271 145.956 2.92383ZM152.962 5.60352V13H151.691V5.60352H152.962ZM155.444 5.60352V6.62891H149.257V5.60352H155.444ZM160.94 11.7354V7.92773C160.94 7.63607 160.881 7.38314 160.762 7.16895C160.648 6.9502 160.475 6.78158 160.243 6.66309C160.01 6.5446 159.723 6.48535 159.381 6.48535C159.062 6.48535 158.782 6.54004 158.541 6.64941C158.304 6.75879 158.117 6.90234 157.98 7.08008C157.848 7.25781 157.782 7.44922 157.782 7.6543H156.517C156.517 7.38997 156.585 7.12793 156.722 6.86816C156.859 6.6084 157.055 6.3737 157.31 6.16406C157.57 5.94987 157.88 5.78125 158.24 5.6582C158.604 5.5306 159.01 5.4668 159.457 5.4668C159.994 5.4668 160.468 5.55794 160.878 5.74023C161.293 5.92253 161.617 6.19824 161.849 6.56738C162.086 6.93197 162.205 7.38997 162.205 7.94141V11.3867C162.205 11.6328 162.225 11.8949 162.266 12.1729C162.312 12.4508 162.378 12.6901 162.464 12.8906V13H161.145C161.081 12.8542 161.031 12.6605 160.995 12.4189C160.958 12.1729 160.94 11.945 160.94 11.7354ZM161.159 8.51562L161.172 9.4043H159.894C159.534 9.4043 159.213 9.43392 158.93 9.49316C158.648 9.54785 158.411 9.63216 158.219 9.74609C158.028 9.86003 157.882 10.0036 157.782 10.1768C157.681 10.3454 157.631 10.5436 157.631 10.7715C157.631 11.0039 157.684 11.2158 157.789 11.4072C157.893 11.5986 158.051 11.7513 158.26 11.8652C158.474 11.9746 158.736 12.0293 159.046 12.0293C159.434 12.0293 159.776 11.9473 160.072 11.7832C160.368 11.6191 160.603 11.4186 160.776 11.1816C160.954 10.9447 161.049 10.7145 161.063 10.4912L161.603 11.0996C161.571 11.291 161.485 11.5029 161.343 11.7354C161.202 11.9678 161.013 12.1911 160.776 12.4053C160.543 12.6149 160.265 12.7904 159.942 12.9316C159.623 13.0684 159.263 13.1367 158.862 13.1367C158.361 13.1367 157.921 13.0387 157.542 12.8428C157.169 12.6468 156.877 12.3848 156.667 12.0566C156.462 11.724 156.36 11.3525 156.36 10.9424C156.36 10.5459 156.437 10.1973 156.592 9.89648C156.747 9.59115 156.971 9.33822 157.262 9.1377C157.554 8.93262 157.905 8.77767 158.315 8.67285C158.725 8.56803 159.183 8.51562 159.689 8.51562H161.159ZM164.139 12.3301C164.139 12.1159 164.205 11.9359 164.337 11.79C164.474 11.6396 164.67 11.5645 164.925 11.5645C165.181 11.5645 165.374 11.6396 165.506 11.79C165.643 11.9359 165.711 12.1159 165.711 12.3301C165.711 12.5397 165.643 12.7174 165.506 12.8633C165.374 13.0091 165.181 13.082 164.925 13.082C164.67 13.082 164.474 13.0091 164.337 12.8633C164.205 12.7174 164.139 12.5397 164.139 12.3301ZM164.146 6.29395C164.146 6.07975 164.212 5.89974 164.344 5.75391C164.481 5.60352 164.677 5.52832 164.932 5.52832C165.187 5.52832 165.381 5.60352 165.513 5.75391C165.65 5.89974 165.718 6.07975 165.718 6.29395C165.718 6.50358 165.65 6.68132 165.513 6.82715C165.381 6.97298 165.187 7.0459 164.932 7.0459C164.677 7.0459 164.481 6.97298 164.344 6.82715C164.212 6.68132 164.146 6.50358 164.146 6.29395Z" fill="black"/>
<path d="M59.4773 30.9185L56.8353 30.9339L56.9094 40.7408L54.6197 40.7542L54.5456 30.9474L51.9037 30.9628L51.8887 28.9838L59.4624 28.9394L59.4773 30.9185Z" fill="black"/>
<path d="M68.3107 40.674L67.2529 38.2063L62.5149 38.2341L61.4945 40.714L59.011 40.7285L63.977 28.913L65.7735 28.9024L70.7766 40.6596L68.3107 40.674ZM63.2229 36.3568L66.5694 36.3372L64.8642 32.1062L63.2229 36.3568Z" fill="black"/>
<path d="M72.0592 28.8656L75.4585 28.8457C76.7501 28.8381 77.7504 29.1268 78.4594 29.7116C79.2394 30.3668 79.6335 31.248 79.6419 32.3553C79.6511 33.5805 79.2002 34.5079 78.289 35.1376C77.9386 35.387 77.5113 35.5604 77.0071 35.6575L80.7082 40.6014L77.8548 40.6181L74.6839 35.9009L74.4021 35.9025L74.4379 40.6381L72.1482 40.6515L72.0592 28.8656ZM74.363 30.7252L74.3899 34.2769L75.0415 34.2731C75.2294 34.272 75.4113 34.2591 75.5873 34.2345C75.7749 34.1981 76.0151 34.1319 76.3079 34.0359C76.6007 33.9282 76.8342 33.7442 77.0083 33.484C77.1942 33.212 77.2856 32.8757 77.2825 32.4752C77.2795 32.0747 77.189 31.7453 77.0109 31.4872C76.8327 31.2173 76.5965 31.0361 76.3022 30.9436C76.0079 30.8393 75.7725 30.7759 75.5962 30.7533C75.4199 30.7308 75.2378 30.7201 75.0499 30.7212L74.363 30.7252Z" fill="black"/>
<path d="M88.1825 36.2282L88.1676 34.2492L93.5572 34.2176L93.5582 34.3589C93.5742 36.4676 93.0111 38.0966 91.869 39.246C90.8435 40.2887 89.456 40.8152 87.7064 40.8254C85.9216 40.8359 84.4968 40.3141 83.432 39.2601C82.2608 38.1007 81.6681 36.5904 81.654 34.7291C81.6407 32.9621 82.205 31.498 83.347 30.3368C84.5122 29.1284 86.0517 28.5185 87.9657 28.5073C88.999 28.5013 89.9047 28.7021 90.6828 29.1099C91.5904 29.564 92.3297 30.2783 92.9007 31.2527L90.9185 32.3423C90.5969 31.7316 90.1354 31.2689 89.5342 30.9544C89.0391 30.7099 88.4863 30.5894 87.8757 30.593C86.772 30.5995 85.8705 30.9523 85.1712 31.6514C84.3903 32.4218 84.0047 33.4607 84.0146 34.7683C84.0239 36.0052 84.419 36.9983 85.1996 37.7477C85.8975 38.4151 86.7689 38.7458 87.814 38.7396C88.7299 38.7343 89.4972 38.4942 90.1159 38.0193C90.6763 37.5801 91.0416 36.9772 91.212 36.2105L88.1825 36.2282Z" fill="black"/>
<path d="M102.14 28.6893L102.155 30.6684L97.9283 30.6931L97.9481 33.326L101.999 33.3022L102.014 35.2813L97.9631 35.305L97.9874 38.521L102.215 38.4962L102.229 40.4753L95.7126 40.5134L95.6236 28.7275L102.14 28.6893Z" fill="black"/>
<path d="M111.095 30.616L108.453 30.6315L108.528 40.4383L106.238 40.4518L106.164 30.6449L103.522 30.6604L103.507 28.6813L111.08 28.6369L111.095 30.616Z" fill="black"/>
<path d="M118.959 35.4294L118.954 34.7226L123.885 34.6937C123.897 36.2486 123.508 37.5409 122.717 38.5704C121.694 39.8959 120.225 40.5642 118.311 40.5754C116.573 40.5856 115.119 40.0227 113.948 38.8869C112.788 37.751 112.202 36.3054 112.189 34.5502C112.176 32.8185 112.752 31.372 113.917 30.2107C115.094 29.0375 116.546 28.4459 118.272 28.4358C119.623 28.4278 120.853 28.8447 121.963 29.6864C122.506 30.1073 122.98 30.5994 123.383 31.1625L122.77 31.6608C122.485 31.1795 122.106 30.7458 121.633 30.3599C120.641 29.541 119.516 29.1353 118.26 29.1427C116.757 29.1515 115.499 29.6831 114.485 30.7375C113.483 31.7918 112.988 33.0729 112.999 34.5808C113.01 36.0651 113.519 37.3226 114.525 38.3534C115.531 39.3724 116.785 39.8775 118.288 39.8687C119.216 39.8633 120.036 39.6641 120.75 39.2711C121.474 38.8663 122.011 38.392 122.359 37.848C122.823 37.1149 123.076 36.3006 123.116 35.405L118.959 35.4294Z" fill="black"/>
<path d="M132.285 40.2991L131.404 40.3043L127.558 34.7605L127.205 34.7626L127.248 40.3286L126.473 40.3332L126.384 28.5473L128.074 28.5374C129.143 28.5311 129.972 28.7265 130.562 29.1236C131.377 29.6843 131.788 30.5242 131.797 31.6433C131.802 32.2912 131.648 32.8752 131.334 33.3954C131.021 33.9038 130.525 34.2778 129.846 34.5174C129.401 34.6731 128.92 34.7525 128.403 34.7556L132.285 40.2991ZM127.164 29.2495L127.2 34.0558L128.327 34.0492C129.161 34.0443 129.811 33.8284 130.278 33.4016C130.756 32.9747 130.992 32.3843 130.986 31.6304C130.979 30.6408 130.627 29.9596 129.932 29.5867C129.519 29.3535 128.919 29.2392 128.133 29.2438L127.164 29.2495Z" fill="black"/>
<path d="M135.573 30.1015C136.738 28.9166 138.178 28.3191 139.892 28.3091C141.606 28.299 143.055 28.8796 144.238 30.0507C145.421 31.2218 146.019 32.6555 146.032 34.3519C146.045 36.0482 145.469 37.4888 144.303 38.6737C143.138 39.8468 141.698 40.4383 139.984 40.4484C138.258 40.4585 136.803 39.8839 135.62 38.7246C134.449 37.5534 133.857 36.1196 133.844 34.4233C133.831 32.727 134.407 31.2863 135.573 30.1015ZM136.198 38.2264C137.215 39.2453 138.475 39.7504 139.978 39.7416C141.481 39.7328 142.734 39.213 143.736 38.1822C144.738 37.1396 145.233 35.8644 145.222 34.3566C145.21 32.837 144.696 31.5677 143.678 30.5487C142.661 29.518 141.4 29.0071 139.897 29.0159C138.394 29.0247 137.142 29.5504 136.14 30.5929C135.138 31.6237 134.643 32.8989 134.654 34.4185C134.665 35.9264 135.18 37.1957 136.198 38.2264Z" fill="black"/>
<path d="M148.52 28.4175L149.295 28.413L149.351 35.7814C149.356 36.4058 149.389 36.9062 149.45 37.2829C149.524 37.6476 149.661 37.9943 149.863 38.323C150.172 38.816 150.58 39.167 151.087 39.3761C151.605 39.5733 152.11 39.6705 152.604 39.6676C153.097 39.6647 153.595 39.5617 154.098 39.3584C154.614 39.1434 155.022 38.7876 155.323 38.291C155.521 37.96 155.647 37.6117 155.703 37.2462C155.771 36.8688 155.802 36.368 155.797 35.7436L155.742 28.3752L156.517 28.3707L156.572 35.7391C156.578 36.4695 156.541 37.0528 156.462 37.4892C156.383 37.9255 156.205 38.3506 155.926 38.7646C155.206 39.8291 154.1 40.3657 152.609 40.3744C151.118 40.3831 150.004 39.8595 149.268 38.8036C148.983 38.393 148.798 37.9699 148.712 37.5346C148.627 37.0992 148.581 36.5163 148.576 35.786L148.52 28.4175Z" fill="black"/>
<path d="M162.02 34.5232L160.505 34.5321L160.547 40.1335L159.772 40.1381L159.683 28.3521L161.955 28.3388C162.953 28.333 163.777 28.5991 164.427 29.1372C165.077 29.6635 165.406 30.4155 165.413 31.3933C165.42 32.3592 165.115 33.1209 164.497 33.6782C163.879 34.2355 163.053 34.5172 162.02 34.5232ZM160.464 29.0544L160.5 33.8253L162.05 33.8162C162.825 33.8117 163.445 33.596 163.912 33.1692C164.378 32.7305 164.609 32.1461 164.603 31.4157C164.598 30.6736 164.352 30.0919 163.868 29.6706C163.395 29.2493 162.736 29.0411 161.89 29.046L160.464 29.0544Z" fill="black"/>
<path d="M59.066 51.0847L59.0137 44.158L59.7182 44.1539L59.8155 57.0353L59.1109 57.0395L59.1012 55.7495C58.4629 56.7429 57.539 57.2431 56.3295 57.2501C55.3549 57.2558 54.5187 56.925 53.8209 56.2576C53.1347 55.5784 52.787 54.6379 52.778 53.4364C52.7687 52.2113 53.1081 51.2845 53.7962 50.6561C54.4842 50.0159 55.3096 49.693 56.2724 49.6874C57.4701 49.6803 58.4013 50.1461 59.066 51.0847ZM56.2775 50.3588C55.4908 50.3634 54.8293 50.6324 54.2932 51.1656C53.7688 51.6988 53.5103 52.4484 53.5176 53.4144C53.5251 54.4157 53.807 55.1974 54.3631 55.7596C54.9192 56.3101 55.5847 56.583 56.3597 56.5785C57.1229 56.574 57.7725 56.2933 58.3085 55.7365C58.8561 55.1678 59.1261 54.3829 59.1185 53.3816C59.112 52.5098 58.854 51.7868 58.3448 51.2126C57.8355 50.6383 57.1464 50.3537 56.2775 50.3588Z" fill="black"/>
<path d="M62.2907 49.8111L62.9952 49.807L63.0497 57.0164L62.3452 57.0205L62.2907 49.8111ZM63.0687 47.8804C62.9522 47.9989 62.8059 48.0587 62.6298 48.0597C62.4536 48.0608 62.3005 48.0028 62.1705 47.8857C62.0521 47.7568 61.9922 47.5981 61.9907 47.4097C61.9893 47.2212 62.0469 47.0677 62.1634 46.9492C62.2916 46.8189 62.4437 46.7532 62.6199 46.7521C62.796 46.7511 62.9433 46.815 63.0617 46.9439C63.1917 47.061 63.2575 47.2137 63.2589 47.4022C63.2603 47.5907 63.1969 47.7501 63.0687 47.8804Z" fill="black"/>
<path d="M71.4424 49.7575L72.1469 49.7534L72.1997 56.7507C72.21 58.1054 71.895 59.1557 71.2548 59.9017C70.6264 60.6593 69.7486 61.0414 68.6213 61.048C67.6468 61.0537 66.8227 60.7817 66.1492 60.232C65.4876 59.694 65.1296 58.9421 65.0754 57.9764L65.8151 57.9721C65.8794 58.7139 66.1657 59.3012 66.6739 59.7341C67.1938 60.167 67.8413 60.3811 68.6163 60.3766C69.1447 60.3735 69.6018 60.2648 69.9877 60.0505C70.3853 59.8361 70.6771 59.5929 70.8629 59.3208C71.0487 59.0488 71.193 58.7181 71.2957 58.3287C71.3985 57.9394 71.4549 57.6386 71.4651 57.4265C71.4869 57.2143 71.497 56.9904 71.4952 56.7548L71.4875 55.73C70.8136 56.6882 69.872 57.1708 68.6626 57.1779C67.7115 57.1834 66.8811 56.8526 66.1715 56.1852C65.4619 55.5179 65.1026 54.5893 65.0936 53.3996C65.0855 52.3276 65.4076 51.4304 66.0597 50.7079C66.7118 49.9855 67.5898 49.621 68.6935 49.6146C69.8677 49.6077 70.7872 50.0735 71.4518 51.0121L71.4424 49.7575ZM70.6955 51.1579C70.1744 50.5719 69.4853 50.2814 68.6281 50.2864C67.771 50.2915 67.0864 50.6018 66.5743 51.2174C66.074 51.8211 65.8271 52.5588 65.8337 53.4306C65.8403 54.3141 66.0984 55.0488 66.6077 55.6349C67.1288 56.2209 67.8062 56.5114 68.6399 56.5065C69.5088 56.5014 70.2052 56.1969 70.729 55.5931C71.2529 54.9892 71.5114 54.2337 71.5046 53.3266C71.4981 52.4667 71.2284 51.7438 70.6955 51.1579Z" fill="black"/>
<path d="M74.6749 49.7386L75.3794 49.7344L75.4339 56.9438L74.7294 56.9479L74.6749 49.7386ZM75.453 47.8079C75.3364 47.9264 75.1901 47.9861 75.014 47.9872C74.8378 47.9882 74.6848 47.9302 74.5547 47.8131C74.4363 47.6842 74.3764 47.5256 74.375 47.3371C74.3735 47.1486 74.4311 46.9951 74.5476 46.8766C74.6758 46.7463 74.828 46.6806 75.0041 46.6796C75.1802 46.6785 75.3275 46.7425 75.4459 46.8714C75.5759 46.9884 75.6417 47.1412 75.6431 47.3296C75.6445 47.5181 75.5812 47.6775 75.453 47.8079Z" fill="black"/>
<path d="M79.9215 50.3793L78.671 50.3866L78.7204 56.9246L78.0159 56.9287L77.9665 50.3908L77.1739 50.3954L77.1688 49.7239L77.9614 49.7193L77.9419 47.1395L78.6465 47.1353L78.6659 49.7152L79.9165 49.7078L79.9215 50.3793Z" fill="black"/>
<path d="M87.1885 50.9199L87.179 49.6653L87.8835 49.6612L87.938 56.8705L87.2334 56.8747L87.2237 55.5848C86.5854 56.5781 85.6556 57.0783 84.4344 57.0854C83.4598 57.0912 82.6294 56.7485 81.9431 56.0575C81.2568 55.3664 80.9094 54.4496 80.9007 53.3069C80.8923 52.1878 81.2083 51.2789 81.8489 50.5801C82.4895 49.8813 83.3323 49.5288 84.3773 49.5227C85.575 49.5156 86.5121 49.9814 87.1885 50.9199ZM84.4176 50.1939C83.6544 50.1984 82.9989 50.4791 82.4512 51.036C81.9034 51.5811 81.633 52.319 81.6401 53.2496C81.6466 54.1095 81.9047 54.8561 82.4144 55.4892C82.924 56.1106 83.6133 56.4188 84.4822 56.4137C85.3394 56.4087 86.0122 56.0984 86.5008 55.483C87.001 54.8557 87.2477 54.1003 87.241 53.2168C87.2337 52.239 86.9403 51.4927 86.3611 50.9777C85.7817 50.451 85.1339 50.1897 84.4176 50.1939Z" fill="black"/>
<path d="M90.3704 43.9742L91.0749 43.9701L91.1722 56.8516L90.4677 56.8557L90.3704 43.9742Z" fill="black"/>
<path d="M103.615 50.8236L103.605 49.569L104.31 49.5649L104.364 56.7743L103.66 56.7784L103.65 55.4885C103.012 56.4818 102.082 56.982 100.861 56.9892C99.8861 56.9949 99.0557 56.6522 98.3694 55.9612C97.6831 55.2702 97.3356 54.3533 97.327 53.2107C97.3186 52.0916 97.6346 51.1826 98.2752 50.4838C98.9158 49.785 99.7586 49.4325 100.804 49.4264C102.001 49.4194 102.938 49.8851 103.615 50.8236ZM100.844 50.0977C100.081 50.1021 99.4252 50.3828 98.8775 50.9397C98.3297 51.4848 98.0593 52.2227 98.0664 53.1533C98.0729 54.0133 98.331 54.7598 98.8407 55.393C99.3503 56.0144 100.04 56.3225 100.908 56.3174C101.766 56.3124 102.439 56.0022 102.927 55.3867C103.427 54.7594 103.674 54.004 103.667 53.1205C103.66 52.1428 103.367 51.3964 102.787 50.8815C102.208 50.3547 101.56 50.0935 100.844 50.0977Z" fill="black"/>
<path d="M112.758 49.5154L113.462 49.5113L113.515 56.5086C113.525 57.8633 113.21 58.9136 112.57 59.6596C111.942 60.4172 111.064 60.7993 109.936 60.8059C108.962 60.8116 108.138 60.5396 107.464 59.9899C106.803 59.4518 106.445 58.7 106.391 57.7343L107.13 57.73C107.195 58.4718 107.481 59.0591 107.989 59.492C108.509 59.9248 109.156 60.139 109.931 60.1345C110.46 60.1314 110.917 60.0227 111.303 59.8083C111.7 59.594 111.992 59.3508 112.178 59.0787C112.364 58.8067 112.508 58.476 112.611 58.0866C112.714 57.6972 112.77 57.3965 112.78 57.1844C112.802 56.9722 112.812 56.7483 112.81 56.5127L112.803 55.4879C112.129 56.446 111.187 56.9287 109.978 56.9358C109.027 56.9413 108.196 56.6105 107.487 55.9431C106.777 55.2758 106.418 54.3472 106.409 53.1574C106.401 52.0855 106.723 51.1883 107.375 50.4658C108.027 49.7434 108.905 49.3789 110.009 49.3725C111.183 49.3656 112.102 49.8314 112.767 50.77L112.758 49.5154ZM112.011 50.9158C111.49 50.3298 110.8 50.0393 109.943 50.0443C109.086 50.0494 108.402 50.3597 107.889 50.9753C107.389 51.579 107.142 52.3167 107.149 53.1885C107.155 54.072 107.413 54.8067 107.923 55.3928C108.444 55.9787 109.121 56.2693 109.955 56.2644C110.824 56.2593 111.52 55.9548 112.044 55.3509C112.568 54.7471 112.827 53.9916 112.82 53.0845C112.813 52.2246 112.544 51.5017 112.011 50.9158Z" fill="black"/>
<path d="M122.447 53.1518L116.3 53.1878C116.307 54.0831 116.588 54.8119 117.144 55.3741C117.712 55.9362 118.389 56.215 119.176 56.2104C119.74 56.2071 120.238 56.0569 120.67 55.7598C121.102 55.451 121.434 55.0485 121.665 54.5524L122.266 54.9023C122 55.4222 121.61 55.8839 121.097 56.2875C120.583 56.6792 119.927 56.8775 119.128 56.8821C118.036 56.8885 117.171 56.5402 116.531 55.8371C115.892 55.1222 115.568 54.2229 115.56 53.1392C115.551 51.9494 115.884 51.0168 116.56 50.3413C117.248 49.6658 118.067 49.3252 119.018 49.3197C119.993 49.314 120.806 49.6685 121.457 50.3833C122.108 51.0981 122.438 52.0209 122.447 53.1518ZM116.348 52.5161L121.702 52.4847C121.602 51.7549 121.304 51.1558 120.808 50.6875C120.323 50.2191 119.728 49.987 119.023 49.9911C118.307 49.9953 117.704 50.2404 117.215 50.7262C116.725 51.2003 116.436 51.7969 116.348 52.5161Z" fill="black"/>
<path d="M124.559 56.6559L124.504 49.4466L125.209 49.4424L125.217 50.5733C125.692 49.7106 126.423 49.2763 127.409 49.2705C128.302 49.2653 128.968 49.5971 129.407 50.266C129.645 50.6416 129.767 51.2476 129.773 52.084L129.807 56.6252L129.103 56.6293L129.069 52.0881C129.063 51.4166 128.966 50.9342 128.776 50.6408C128.49 50.1713 128.019 49.9384 127.361 49.9423C126.563 49.9469 125.978 50.2861 125.608 50.9598C125.353 51.4207 125.229 52.0694 125.235 52.9058L125.263 56.6518L124.559 56.6559Z" fill="black"/>
<path d="M138.061 50.127L138.068 51.0635C137.381 50.2782 136.55 49.8884 135.576 49.8941C134.707 49.8992 133.993 50.2038 133.434 50.8079C132.875 51.4002 132.598 52.144 132.605 53.0393C132.613 54.0052 132.918 54.7633 133.521 55.3135C134.124 55.8518 134.813 56.1187 135.588 56.1142C136.539 56.1086 137.404 55.6736 138.185 54.809L138.192 55.7632C137.445 56.4391 136.573 56.7799 135.575 56.7858C134.495 56.7921 133.606 56.4439 132.907 55.7411C132.221 55.0266 131.874 54.1333 131.866 53.0613C131.857 51.9657 132.191 51.0567 132.867 50.3341C133.542 49.5998 134.444 49.2293 135.571 49.2227C136.498 49.2172 137.329 49.5187 138.061 50.127Z" fill="black"/>
<path d="M140.772 60.6252L142.433 56.6749L138.96 49.3618L139.771 49.3571L142.831 55.7537L145.407 49.3241L146.217 49.3193L141.582 60.6205L140.772 60.6252Z" fill="black"/>
<rect width="45.8752" height="46.0506" rx="22.9376" transform="matrix(0.999971 -0.00736534 0.0111047 0.999943 0.0209961 21.1387)" fill="black"/>
<rect x="1.01108" y="0.992578" width="41.1766" height="41.3418" rx="20.5883" transform="matrix(0.999971 -0.00736534 0.0111047 0.999943 1.37524 22.4899)" fill="black" stroke="#FFB800" stroke-width="2"/>
<path d="M14.4738 40.1186L10.1014 40.1509L10.078 38.0666L21.0751 37.9855L21.0985 40.0697L16.7262 40.102L16.8466 50.8074L14.5942 50.824L14.4738 40.1186Z" fill="#FFB800"/>
<path d="M23.7483 49.1079C22.4722 47.854 21.8235 46.2797 21.8022 44.385C21.7809 42.4902 22.4066 40.9002 23.6793 39.6149C24.9396 38.3423 26.5414 37.6988 28.4846 37.6845C29.8096 37.6747 31.0056 37.9817 32.0726 38.6055C33.1523 39.2291 33.9696 40.0821 34.5244 41.1645L32.3379 41.9954C31.9517 41.3161 31.4221 40.7894 30.749 40.4154C30.076 40.0414 29.3293 39.8574 28.5091 39.8635C27.2725 39.8726 26.23 40.3098 25.3816 41.1751C24.5457 42.0277 24.1348 43.0855 24.1491 44.3487C24.1636 45.6371 24.5794 46.7015 25.3965 47.5419C26.2136 48.3823 27.2215 48.798 28.4203 48.7892C29.3541 48.7823 30.2027 48.4981 30.9662 47.9366C31.7046 47.388 32.1949 46.6643 32.4372 45.7656L28.1595 45.7971L28.1362 43.7319L34.9692 43.6814C34.9981 44.0097 35.0131 44.218 35.0141 44.3064C35.0102 46.2014 34.3906 47.7787 33.1555 49.0385C31.9204 50.3109 30.3691 50.954 28.5016 50.9678C26.6088 50.9817 25.0244 50.3618 23.7483 49.1079Z" fill="#FFB800"/>
</svg>
