<svg width="43" height="42" viewBox="0 0 43 42" fill="none" xmlns="http://www.w3.org/2000/svg">
<g clip-path="url(#clip0_1782_1169)">
<path fill-rule="evenodd" clip-rule="evenodd" d="M21.4399 7C22.9362 7 24.4709 7.0385 25.9584 7.1015L27.7154 7.1855L29.3972 7.28525L30.9722 7.392L32.4107 7.504C33.9718 7.62349 35.4407 8.28966 36.5591 9.38532C37.6775 10.481 38.3737 11.9359 38.5252 13.4942L38.5952 14.238L38.7264 15.8305C38.8489 17.4807 38.9399 19.2797 38.9399 21C38.9399 22.7203 38.8489 24.5193 38.7264 26.1695L38.5952 27.762C38.5724 28.0175 38.5497 28.2642 38.5252 28.5057C38.3736 30.0643 37.6772 31.5195 36.5584 32.6152C35.4397 33.7109 33.9703 34.3769 32.4089 34.496L30.9739 34.6062L29.3989 34.7148L27.7154 34.8145L25.9584 34.8985C24.4531 34.9639 22.9467 34.9978 21.4399 35C19.9332 34.9978 18.4267 34.9639 16.9214 34.8985L15.1644 34.8145L13.4827 34.7148L11.9077 34.6062L10.4692 34.496C8.9081 34.3765 7.43916 33.7103 6.32077 32.6147C5.20238 31.519 4.5062 30.0641 4.35469 28.5057L4.28469 27.762L4.15344 26.1695C4.01963 24.4495 3.94842 22.7252 3.93994 21C3.93994 19.2797 4.03094 17.4807 4.15344 15.8305L4.28469 14.238C4.30744 13.9825 4.33019 13.7357 4.35469 13.4942C4.50614 11.9362 5.20207 10.4815 6.3201 9.38585C7.43813 8.29022 8.90667 7.62388 10.4674 7.504L11.9042 7.392L13.4792 7.28525L15.1627 7.1855L16.9197 7.1015C18.4256 7.03611 19.9326 7.00227 21.4399 7ZM17.9399 16.7562V25.2437C17.9399 26.0522 18.8149 26.5562 19.5149 26.1537L26.8649 21.91C27.0249 21.8179 27.1577 21.6853 27.2501 21.5256C27.3425 21.3658 27.3911 21.1845 27.3911 21C27.3911 20.8155 27.3425 20.6342 27.2501 20.4744C27.1577 20.3147 27.0249 20.1821 26.8649 20.09L19.5149 15.848C19.3553 15.7558 19.1741 15.7073 18.9898 15.7073C18.8054 15.7074 18.6243 15.7559 18.4646 15.8482C18.305 15.9404 18.1725 16.0731 18.0804 16.2328C17.9883 16.3925 17.9398 16.5736 17.9399 16.758V16.7562Z" fill="url(#paint0_linear_1782_1169)"/>
</g>
<defs>
<linearGradient id="paint0_linear_1782_1169" x1="3.93994" y1="21" x2="38.9399" y2="21" gradientUnits="userSpaceOnUse">
<stop stop-color="#FDD69D"/>
<stop offset="1" stop-color="#EDB261"/>
</linearGradient>
<clipPath id="clip0_1782_1169">
<rect width="42" height="42" fill="white" transform="translate(0.439941)"/>
</clipPath>
</defs>
</svg>
