<svg width="42" height="42" viewBox="0 0 42 42" fill="none" xmlns="http://www.w3.org/2000/svg">
<path d="M28.77 10.185C27.574 8.81917 26.9148 7.06545 26.915 5.25H21.5075V26.95C21.4667 28.1246 20.9712 29.2374 20.1255 30.0536C19.2799 30.8699 18.1503 31.3257 16.975 31.325C14.49 31.325 12.425 29.295 12.425 26.775C12.425 23.765 15.33 21.5075 18.3225 22.435V16.905C12.285 16.1 7 20.79 7 26.775C7 32.6025 11.83 36.75 16.9575 36.75C22.4525 36.75 26.915 32.2875 26.915 26.775V15.7675C29.1077 17.3422 31.7404 18.1871 34.44 18.1825V12.775C34.44 12.775 31.15 12.9325 28.77 10.185Z" fill="url(#paint0_linear_1782_1165)"/>
<defs>
<linearGradient id="paint0_linear_1782_1165" x1="7" y1="21" x2="34.44" y2="21" gradientUnits="userSpaceOnUse">
<stop stop-color="#FDD69D"/>
<stop offset="1" stop-color="#EDB261"/>
</linearGradient>
</defs>
</svg>
