<svg width="37" height="36" viewBox="0 0 37 36" fill="none" xmlns="http://www.w3.org/2000/svg">
<path d="M12.1399 3H24.7399C29.5399 3 33.4399 6.9 33.4399 11.7V24.3C33.4399 26.6074 32.5233 28.8203 30.8918 30.4518C29.2602 32.0834 27.0473 33 24.7399 33H12.1399C7.33994 33 3.43994 29.1 3.43994 24.3V11.7C3.43994 9.39262 4.35655 7.17974 5.98811 5.54817C7.61968 3.9166 9.83256 3 12.1399 3ZM11.8399 6C10.4078 6 9.03426 6.56893 8.02156 7.58162C7.00887 8.59432 6.43994 9.96783 6.43994 11.4V24.6C6.43994 27.585 8.85494 30 11.8399 30H25.0399C26.4721 30 27.8456 29.4311 28.8583 28.4184C29.871 27.4057 30.4399 26.0322 30.4399 24.6V11.4C30.4399 8.415 28.0249 6 25.0399 6H11.8399ZM26.3149 8.25C26.8122 8.25 27.2891 8.44754 27.6408 8.79917C27.9924 9.15081 28.1899 9.62772 28.1899 10.125C28.1899 10.6223 27.9924 11.0992 27.6408 11.4508C27.2891 11.8025 26.8122 12 26.3149 12C25.8177 12 25.3407 11.8025 24.9891 11.4508C24.6375 11.0992 24.4399 10.6223 24.4399 10.125C24.4399 9.62772 24.6375 9.15081 24.9891 8.79917C25.3407 8.44754 25.8177 8.25 26.3149 8.25ZM18.4399 10.5C20.4291 10.5 22.3367 11.2902 23.7432 12.6967C25.1498 14.1032 25.9399 16.0109 25.9399 18C25.9399 19.9891 25.1498 21.8968 23.7432 23.3033C22.3367 24.7098 20.4291 25.5 18.4399 25.5C16.4508 25.5 14.5432 24.7098 13.1366 23.3033C11.7301 21.8968 10.9399 19.9891 10.9399 18C10.9399 16.0109 11.7301 14.1032 13.1366 12.6967C14.5432 11.2902 16.4508 10.5 18.4399 10.5ZM18.4399 13.5C17.2465 13.5 16.1019 13.9741 15.258 14.818C14.414 15.6619 13.9399 16.8065 13.9399 18C13.9399 19.1935 14.414 20.3381 15.258 21.182C16.1019 22.0259 17.2465 22.5 18.4399 22.5C19.6334 22.5 20.778 22.0259 21.6219 21.182C22.4658 20.3381 22.9399 19.1935 22.9399 18C22.9399 16.8065 22.4658 15.6619 21.6219 14.818C20.778 13.9741 19.6334 13.5 18.4399 13.5Z" fill="url(#paint0_linear_1782_1167)"/>
<defs>
<linearGradient id="paint0_linear_1782_1167" x1="3.43994" y1="18" x2="33.4399" y2="18" gradientUnits="userSpaceOnUse">
<stop stop-color="#FDD69D"/>
<stop offset="1" stop-color="#EDB261"/>
</linearGradient>
</defs>
</svg>
