<svg width="19" height="21" viewBox="0 0 19 21" fill="none" xmlns="http://www.w3.org/2000/svg">
<path d="M5.51 0.837891H13.49C16.53 0.837891 19 3.43789 19 6.63789V15.0379C19 16.5761 18.4195 18.0514 17.3862 19.1391C16.3528 20.2268 14.9513 20.8379 13.49 20.8379H5.51C2.47 20.8379 0 18.2379 0 15.0379V6.63789C0 5.09964 0.580516 3.62438 1.61384 2.53667C2.64717 1.44896 4.04866 0.837891 5.51 0.837891ZM5.32 2.83789C4.41296 2.83789 3.54307 3.21718 2.90169 3.89231C2.26032 4.56744 1.9 5.48311 1.9 6.43789V15.2379C1.9 17.2279 3.4295 18.8379 5.32 18.8379H13.68C14.587 18.8379 15.4569 18.4586 16.0983 17.7835C16.7397 17.1083 17.1 16.1927 17.1 15.2379V6.43789C17.1 4.44789 15.5705 2.83789 13.68 2.83789H5.32ZM14.4875 4.33789C14.8024 4.33789 15.1045 4.46959 15.3272 4.70401C15.5499 4.93843 15.675 5.25637 15.675 5.58789C15.675 5.91941 15.5499 6.23735 15.3272 6.47177C15.1045 6.70619 14.8024 6.83789 14.4875 6.83789C14.1726 6.83789 13.8705 6.70619 13.6478 6.47177C13.4251 6.23735 13.3 5.91941 13.3 5.58789C13.3 5.25637 13.4251 4.93843 13.6478 4.70401C13.8705 4.46959 14.1726 4.33789 14.4875 4.33789ZM9.5 5.83789C10.7598 5.83789 11.968 6.36467 12.8588 7.30236C13.7496 8.24004 14.25 9.51181 14.25 10.8379C14.25 12.164 13.7496 13.4357 12.8588 14.3734C11.968 15.3111 10.7598 15.8379 9.5 15.8379C8.24022 15.8379 7.03204 15.3111 6.14124 14.3734C5.25044 13.4357 4.75 12.164 4.75 10.8379C4.75 9.51181 5.25044 8.24004 6.14124 7.30236C7.03204 6.36467 8.24022 5.83789 9.5 5.83789ZM9.5 7.83789C8.74413 7.83789 8.01922 8.15396 7.48475 8.71657C6.95027 9.27918 6.65 10.0422 6.65 10.8379C6.65 11.6335 6.95027 12.3966 7.48475 12.9592C8.01922 13.5218 8.74413 13.8379 9.5 13.8379C10.2559 13.8379 10.9808 13.5218 11.5153 12.9592C12.0497 12.3966 12.35 11.6335 12.35 10.8379C12.35 10.0422 12.0497 9.27918 11.5153 8.71657C10.9808 8.15396 10.2559 7.83789 9.5 7.83789Z" fill="white"/>
</svg>
