<svg width="36" height="36" viewBox="0 0 36 36" fill="none" xmlns="http://www.w3.org/2000/svg">
<path d="M14.25 6C16.8359 6 19.3158 7.02723 21.1443 8.85571C22.9728 10.6842 24 13.1641 24 15.75C24 18.18 23.115 20.4 21.645 22.095L30.12 30.57L29.055 31.635L20.58 23.16C18.8179 24.6721 16.572 25.5024 14.25 25.5C11.6641 25.5 9.18419 24.4728 7.35571 22.6443C5.52723 20.8158 4.5 18.3359 4.5 15.75C4.5 13.1641 5.52723 10.6842 7.35571 8.85571C9.18419 7.02723 11.6641 6 14.25 6ZM14.25 7.5C12.062 7.5 9.96354 8.36919 8.41637 9.91637C6.86919 11.4635 6 13.562 6 15.75C6 17.938 6.86919 20.0365 8.41637 21.5836C9.96354 23.1308 12.062 24 14.25 24C15.3334 24 16.4062 23.7866 17.4071 23.372C18.4081 22.9574 19.3175 22.3497 20.0836 21.5836C20.8497 20.8175 21.4574 19.9081 21.872 18.9071C22.2866 17.9062 22.5 16.8334 22.5 15.75C22.5 14.6666 22.2866 13.5938 21.872 12.5929C21.4574 11.5919 20.8497 10.6825 20.0836 9.91637C19.3175 9.15029 18.4081 8.5426 17.4071 8.12799C16.4062 7.71339 15.3334 7.5 14.25 7.5Z" fill="white"/>
</svg>
