<svg width="19" height="22" viewBox="0 0 19 22" fill="none" xmlns="http://www.w3.org/2000/svg">
<path d="M15.074 3.62789C14.2459 2.71734 13.7894 1.54819 13.7895 0.337891H10.0453V14.8046C10.017 15.5876 9.67391 16.3295 9.08838 16.8736C8.50286 17.4178 7.72069 17.7217 6.90689 17.7212C5.18622 17.7212 3.75638 16.3679 3.75638 14.6879C3.75638 12.6812 5.76786 11.1762 7.83992 11.7946V8.10789C3.65944 7.57122 0 10.6979 0 14.6879C0 18.5729 3.34439 21.3379 6.89477 21.3379C10.6996 21.3379 13.7895 18.3629 13.7895 14.6879V7.34956C15.3078 8.39938 17.1307 8.96264 19 8.95956V5.35456C19 5.35456 16.7219 5.45956 15.074 3.62789Z" fill="white"/>
</svg>
