<svg width="24" height="20" viewBox="0 0 24 20" fill="none" xmlns="http://www.w3.org/2000/svg">
<path fill-rule="evenodd" clip-rule="evenodd" d="M11.8377 0.612305C12.8236 0.612305 13.8349 0.637674 14.8151 0.679187L15.9728 0.734538L17.081 0.800267L18.1188 0.870608L19.0667 0.944409C20.0954 1.02314 21.0633 1.46211 21.8003 2.18408C22.5372 2.90605 22.996 3.86478 23.0958 4.89161L23.1419 5.3817L23.2284 6.43105C23.3091 7.51847 23.3691 8.70389 23.3691 9.83743C23.3691 10.971 23.3091 12.1564 23.2284 13.2438L23.1419 14.2932C23.1269 14.4615 23.1119 14.6241 23.0958 14.7833C22.9959 15.8103 22.537 16.7691 21.7998 17.4911C21.0627 18.2131 20.0944 18.652 19.0656 18.7305L18.12 18.8031L17.0822 18.8746L15.9728 18.9403L14.8151 18.9957C13.8232 19.0388 12.8305 19.0611 11.8377 19.0626C10.8449 19.0611 9.85217 19.0388 8.86027 18.9957L7.70252 18.9403L6.59435 18.8746L5.55652 18.8031L4.60864 18.7305C3.57998 18.6517 2.61204 18.2128 1.87509 17.4908C1.13814 16.7688 0.679401 15.8101 0.579569 14.7833L0.533443 14.2932L0.446958 13.2438C0.358786 12.1104 0.31186 10.9742 0.306274 9.83743C0.306274 8.70389 0.366238 7.51847 0.446958 6.43105L0.533443 5.3817C0.548434 5.21334 0.563425 5.05074 0.579569 4.89161C0.679362 3.86497 1.13794 2.90638 1.87465 2.18443C2.61136 1.46248 3.57904 1.0234 4.60749 0.944409L5.55422 0.870608L6.59205 0.800267L7.70137 0.734538L8.85912 0.679187C9.8514 0.636097 10.8445 0.613798 11.8377 0.612305ZM9.5314 7.04107V12.6338C9.5314 13.1665 10.108 13.4987 10.5692 13.2334L15.4124 10.4371C15.5178 10.3764 15.6053 10.289 15.6662 10.1838C15.7271 10.0785 15.7591 9.95903 15.7591 9.83743C15.7591 9.71583 15.7271 9.59638 15.6662 9.4911C15.6053 9.38583 15.5178 9.29846 15.4124 9.2378L10.5692 6.44258C10.464 6.38184 10.3447 6.34987 10.2232 6.34989C10.1017 6.34991 9.98234 6.38192 9.87715 6.4427C9.77196 6.50347 9.68462 6.59088 9.62393 6.69612C9.56324 6.80136 9.53132 6.92073 9.5314 7.04222V7.04107Z" fill="white"/>
</svg>
